SplineFontDB: 3.2
FontName: SeriousShannsLight
FullName: Serious Shanns Light
FamilyName: Serious Shanns Light
Weight: Light
Copyright: https://github.com/kaBeech/serious-shanns/blob/main/LICENSE
Version: 6.0.0
ItalicAngle: 0
UnderlinePosition: 0
UnderlineWidth: 0
Ascent: 800
Descent: 200
InvalidEm: 0
sfntRevision: 0x00003333
LayerCount: 2
Layer: 0 0 "Back" 1
Layer: 1 0 "Fore" 0
XUID: [1021 329 -1817886000 12366394]
StyleMap: 0x0040
FSType: 4
OS2Version: 3
OS2_WeightWidthSlopeOnly: 0
OS2_UseTypoMetrics: 0
CreationTime: 1532631502
ModificationTime: 315532800
PfmFamily: 81
TTFWeight: 300
TTFWidth: 5
LineGap: 0
VLineGap: 0
Panose: 0 0 0 0 0 0 0 0 0 0
OS2TypoAscent: 613
OS2TypoAOffset: 0
OS2TypoDescent: -188
OS2TypoDOffset: 0
OS2TypoLinegap: 98
OS2WinAscent: 778
OS2WinAOffset: 0
OS2WinDescent: 308
OS2WinDOffset: 0
HheadAscent: 796
HheadAOffset: 0
HheadDescent: -317
HheadDOffset: 0
OS2SubXSize: 317
OS2SubYSize: 293
OS2SubXOff: 0
OS2SubYOff: 37
OS2SupXSize: 317
OS2SupYSize: 293
OS2SupXOff: 0
OS2SupYOff: 171
OS2StrikeYSize: 0
OS2StrikeYPos: 132
OS2CapHeight: 576
OS2XHeight: 485
OS2Vendor: 'NONE'
OS2CodePages: 00000001.00000000
OS2UnicodeRanges: 00000001.00000000.00000000.00000000
MarkAttachClasses: 1
DEI: 91125
LangName: 1033 "" "" "Normal" "FontForge 2.0 : Serious Shanns Light : 1-1-1980" "" "Version 0.2.0"
Encoding: UnicodeBmp
Compacted: 1
UnicodeInterp: none
NameList: AGL For New Fonts
DisplaySize: -48
AntiAlias: 1
FitToEm: 0
WinInfo: 48 16 4
BeginPrivate: 8
BlueValues 32 [-39 -8 492 523 690 718 765 769]
OtherBlues 11 [-297 -287]
BlueScale 9 0.0333333
BlueShift 2 17
StdHW 4 [67]
StdVW 4 [73]
StemSnapH 4 [67]
StemSnapV 7 [68 73]
EndPrivate
BeginChars: 65537 105

StartChar: .notdef
Encoding: 65536 -1 0
Width: 670
GlyphClass: 1
Flags: HMW
HStem: -258 34<164.5 505.5 164.5 539.5> 705 34<164.5 505.5 164.5 164.5>
VStem: 130.5 34<-224 -224 -224 705> 505.5 34<-224 705 705 705>
LayerCount: 2
Fore
SplineSet
130.5 739 m 1
 539.5 739 l 1
 539.5 -258 l 1
 130.5 -258 l 1
 130.5 739 l 1
164.5 -224 m 1
 505.5 -224 l 1
 505.5 705 l 1
 164.5 705 l 1
 164.5 -224 l 1
EndSplineSet
EndChar

StartChar: exclam
Encoding: 33 33 2
Width: 670
GlyphClass: 2
Flags: HMW
HStem: -15.3799 135.375
VStem: 263.5 143.001 297.5 78.001 305.5 72
LayerCount: 2
Fore
SplineSet
383.5 738 m 0x90
 383.5 732 382.166992188 694.669921875 379.5 626.002929688 c 0
 377.5 557.3359375 376.5 507.668945312 376.5 477.001953125 c 0
 376.166015625 461.66796875 375.999023438 447.583984375 375.999023438 434.75 c 0
 375.999023438 421.916015625 376.166015625 410.33203125 376.5 399.998046875 c 0
 377.166992188 379.331054688 377.5 361.6640625 377.5 346.997070312 c 0x90
 377.5 332.330078125 377.166992188 322.663085938 376.5 317.99609375 c 0
 375.611328125 311.331054688 375.166992188 302.1484375 375.166992188 290.44921875 c 0
 375.166992188 284.594726562 375.27734375 278.110351562 375.5 270.99609375 c 0xa0
 374.16796875 259.663085938 369.5 250.663085938 361.5 243.99609375 c 0
 354.16796875 237.329101562 345.16796875 233.99609375 334.5 233.99609375 c 2
 331.5 233.99609375 l 2
 320.833984375 234.663085938 312.166992188 238.330078125 305.5 244.997070312 c 0x90
 300.166992188 250.997070312 297.5 259.330078125 297.5 269.997070312 c 0xa0
 297.5 276.6640625 298.83203125 287.997070312 301.5 303.997070312 c 0
 303.5 313.330078125 304.83203125 323.330078125 305.5 333.997070312 c 0
 306.166992188 344.6640625 306.5 367.331054688 306.5 401.998046875 c 0
 306.5 415.998046875 305.83203125 437.331054688 304.5 465.998046875 c 0
 303.166992188 497.331054688 302.5 531.6640625 302.5 568.997070312 c 0
 303.166992188 596.330078125 304.166992188 634.997070312 305.5 684.997070312 c 0
 306.166992188 710.330078125 306.5 726.997070312 306.5 734.997070312 c 0
 307.166992188 750.330078125 311.166992188 761.663085938 318.5 768.99609375 c 0
 325.83203125 776.329101562 335.166015625 779.99609375 346.499023438 779.99609375 c 2
 349.499023438 779.99609375 l 2
 359.499023438 779.99609375 367.499023438 776.99609375 373.499023438 770.99609375 c 0
 380.166015625 764.329101562 383.5 753.333007812 383.5 738 c 0x90
387.499023438 7.9990234375 m 0
 374.83203125 -4.66796875 357.83203125 -12.3349609375 336.499023438 -15.001953125 c 0
 333.83203125 -15.251953125 331.2265625 -15.376953125 328.685546875 -15.376953125 c 0
 310.89453125 -15.376953125 296.166015625 -9.251953125 284.5 2.998046875 c 0
 270.5 16.998046875 263.5 33.998046875 263.5 53.998046875 c 0
 263.5 71.3310546875 270.83203125 86.3310546875 285.5 98.998046875 c 0
 302.166992188 112.998046875 320.833984375 119.998046875 341.5 119.998046875 c 0
 360.16796875 119.998046875 375.5 113.998046875 387.5 101.998046875 c 0
 400.16796875 89.3310546875 406.5 73.6640625 406.5 54.9970703125 c 0xc0
 406.5 36.330078125 400.166015625 20.666015625 387.499023438 7.9990234375 c 0
EndSplineSet
EndChar

StartChar: quotedbl
Encoding: 34 34 3
Width: 670
GlyphClass: 2
Flags: HMW
HStem: 444.999 328.002
VStem: 212.5 84 371.502 86.998
LayerCount: 2
Fore
SplineSet
417.499023438 773.000976562 m 0
 427.499023438 773.000976562 436.499023438 770.66796875 444.499023438 766.000976562 c 0
 448.499023438 764.000976562 451.833007812 760.66796875 454.499023438 756.000976562 c 0
 457.166992188 750.66796875 458.499023438 744.66796875 458.499023438 738.000976562 c 2
 458.499023438 696.000976562 l 2
 458.499023438 676.66796875 457.833007812 641.000976562 456.499023438 589.000976562 c 0
 455.166992188 537.000976562 453.166992188 499.333984375 450.499023438 476.000976562 c 0
 449.166992188 466.000976562 444.833984375 458.33203125 437.500976562 452.999023438 c 0
 430.833984375 447.666015625 423.500976562 444.999023438 415.500976562 444.999023438 c 2
 412.500976562 444.999023438 l 2
 401.833984375 445.666015625 391.833984375 449.333007812 382.500976562 456 c 0
 375.833984375 460.666992188 372.500976562 467.333984375 372.500976562 476.000976562 c 0
 373.166992188 477.333984375 373.500976562 479.000976562 373.500976562 481.000976562 c 0
 374.833984375 506.333984375 375.500976562 537.3359375 375.500976562 574.002929688 c 2
 375.500976562 612.000976562 l 2
 374.166992188 665.333984375 372.834960938 709.333984375 371.501953125 744.000976562 c 2
 371.501953125 746.002929688 l 2
 371.501953125 751.3359375 372.833984375 756.000976562 375.500976562 760.000976562 c 0
 378.166992188 764.000976562 381.501953125 766.66796875 385.501953125 768.000976562 c 0
 394.834960938 772.000976562 403.501953125 774.002929688 411.501953125 774.002929688 c 0
 414.168945312 773.3359375 416.166992188 773.000976562 417.499023438 773.000976562 c 0
290.499023438 476.000976562 m 0
 289.166015625 465.333984375 284.833984375 457.666015625 277.500976562 452.999023438 c 0
 269.500976562 447.666015625 261.833984375 444.999023438 254.500976562 444.999023438 c 2
 252.500976562 444.999023438 l 2
 241.833984375 445.666015625 231.833984375 449.333007812 222.500976562 456 c 0
 215.833984375 460.666992188 212.500976562 467.333984375 212.500976562 476.000976562 c 2
 212.500976562 481.000976562 l 2
 214.500976562 507.66796875 215.500976562 540.000976562 215.500976562 578.000976562 c 0
 214.833984375 588.66796875 214.500976562 600.000976562 214.500976562 612.000976562 c 0
 213.166992188 665.333984375 212.166992188 709.333984375 211.500976562 744.000976562 c 2
 211.500976562 747.000976562 l 2
 211.500976562 751.66796875 212.500976562 756.000976562 214.500976562 760.000976562 c 0
 217.166992188 764.000976562 220.500976562 766.66796875 224.500976562 768.000976562 c 0
 233.643554688 771.4296875 243.030273438 773.14453125 252.663085938 773.14453125 c 0
 254.268554688 773.14453125 255.880859375 773.096679688 257.499023438 773.000976562 c 0
 267.499023438 773.000976562 276.499023438 770.66796875 284.499023438 766.000976562 c 0
 287.833007812 764.000976562 290.833007812 760.66796875 293.499023438 756.000976562 c 0
 296.166992188 750.66796875 297.499023438 744.334960938 297.499023438 737.001953125 c 0
 298.166992188 729.001953125 298.499023438 715.668945312 298.499023438 697.001953125 c 0
 298.499023438 678.334960938 297.833007812 642.66796875 296.499023438 590.000976562 c 0
 295.166992188 537.333984375 293.166015625 499.333984375 290.499023438 476.000976562 c 0
EndSplineSet
EndChar

StartChar: numbersign
Encoding: 35 35 4
Width: 670
GlyphClass: 2
Flags: HMW
HStem: 200 63.999 454.998 65.002 695.002 20G
LayerCount: 2
Fore
SplineSet
294.502929688 454.998046875 m 1
 255.498046875 263.999023438 l 1
 290.831054688 264.666015625 334.168945312 264.998046875 385.501953125 264.998046875 c 2
 393.501953125 264.998046875 l 1
 405.501953125 324.998046875 417.168945312 388.331054688 428.501953125 454.998046875 c 1
 294.502929688 454.998046875 l 1
251.497070312 200 m 1
 243.497070312 200 l 1
 228.1640625 122.666992188 217.497070312 70.6669921875 211.497070312 44 c 0
 207.497070312 32 199.1640625 22.3330078125 186.497070312 15 c 0
 178.497070312 10.3330078125 170.830078125 7.9990234375 163.497070312 7.9990234375 c 0
 160.1640625 7.33203125 156.831054688 7.6650390625 153.498046875 8.998046875 c 0
 144.165039062 10.998046875 137.165039062 17.666015625 132.498046875 28.9990234375 c 0
 129.831054688 35.666015625 128.497070312 42.3330078125 128.497070312 49 c 0
 128.497070312 55.6669921875 129.498046875 62.6669921875 131.498046875 70 c 0
 136.831054688 86.6669921875 147.1640625 129.666992188 162.497070312 199 c 1
 120.497070312 199 l 2
 105.1640625 199 94.1640625 201.666992188 87.4970703125 207 c 0
 81.4970703125 211.666992188 78.4970703125 218 78.4970703125 226 c 2
 78.4970703125 228 l 2
 79.1640625 236.666992188 82.1640625 243.666992188 87.4970703125 249 c 0
 93.4970703125 255.666992188 103.830078125 259.333984375 118.497070312 260.000976562 c 0
 123.1640625 260.66796875 131.1640625 261.000976562 142.497070312 261.000976562 c 0
 153.830078125 261.000976562 164.830078125 261.333984375 175.497070312 262.000976562 c 1
 213.497070312 454.000976562 l 1
 201.497070312 454.000976562 l 1
 159.497070312 453.000976562 l 1
 156.497070312 453.000976562 l 2
 144.497070312 452.333984375 135.1640625 455.000976562 128.497070312 461.000976562 c 0
 121.830078125 466.333984375 118.497070312 473.333984375 118.497070312 482.000976562 c 2
 118.497070312 485.000976562 l 2
 118.497070312 493.000976562 121.497070312 500.000976562 127.497070312 506.000976562 c 0
 134.1640625 512.66796875 144.830078125 516.334960938 159.497070312 517.001953125 c 0
 172.1640625 517.668945312 191.498046875 518.001953125 217.498046875 518.001953125 c 2
 225.498046875 518.001953125 l 1
 255.498046875 680.001953125 l 2
 260.165039062 694.001953125 266.83203125 703.668945312 275.499023438 709.001953125 c 0
 282.166015625 713.001953125 288.833007812 715.001953125 295.5 715.001953125 c 0
 298.166992188 715.001953125 301.166992188 714.668945312 304.5 714.001953125 c 0
 316.5 711.334960938 325.5 705.66796875 331.5 697.000976562 c 0
 334.833007812 691.66796875 336.5 685.000976562 336.5 677.000976562 c 0
 337.166992188 672.333984375 336.833984375 667.666992188 335.500976562 663 c 2
 306.500976562 520 l 1
 439.500976562 520 l 1
 467.500976562 673 l 2
 472.16796875 687 478.834960938 696.666992188 487.501953125 702 c 0
 493.501953125 706 499.834960938 708 506.501953125 708 c 0
 509.834960938 707.333007812 513.501953125 706.666015625 517.501953125 705.999023438 c 0
 529.501953125 703.33203125 538.501953125 697.999023438 544.501953125 689.999023438 c 0
 547.834960938 685.33203125 549.501953125 679.33203125 549.501953125 671.999023438 c 0
 549.501953125 667.33203125 548.834960938 661.999023438 547.501953125 655.999023438 c 0
 540.168945312 627.999023438 531.168945312 582.999023438 520.501953125 520.999023438 c 1
 532.501953125 520.999023438 l 1
 543.501953125 520.999023438 l 2
 557.501953125 520.999023438 568.834960938 517.33203125 577.501953125 509.999023438 c 0
 586.168945312 502.666015625 590.8359375 495.333007812 591.502929688 488 c 0
 590.8359375 479.333007812 587.502929688 471.666015625 581.502929688 464.999023438 c 0
 575.502929688 458.999023438 565.8359375 455.665039062 552.502929688 454.998046875 c 2
 507.502929688 454.998046875 l 1
 475.502929688 263.999023438 l 1
 528.501953125 263.999023438 l 2
 541.168945312 263.999023438 549.502929688 261.666015625 553.502929688 256.999023438 c 0
 557.502929688 252.33203125 559.8359375 245.33203125 560.502929688 235.999023438 c 0
 560.502929688 225.33203125 558.502929688 217.33203125 554.502929688 211.999023438 c 0
 549.8359375 205.33203125 541.168945312 201.999023438 528.501953125 201.999023438 c 2
 464.501953125 201.999023438 l 1
 450.501953125 121.33203125 440.501953125 67.33203125 434.501953125 39.9990234375 c 0
 429.834960938 28.666015625 421.834960938 19.9990234375 410.501953125 13.9990234375 c 0
 403.168945312 9.9990234375 395.8359375 7.9990234375 388.502929688 7.9990234375 c 0
 385.169921875 7.33203125 381.502929688 7.6650390625 377.502929688 8.998046875 c 0
 367.502929688 11.6650390625 360.169921875 17.998046875 355.502929688 27.998046875 c 0
 352.8359375 33.998046875 351.502929688 39.998046875 351.502929688 45.998046875 c 0
 351.502929688 51.998046875 352.502929688 58.6650390625 354.502929688 65.998046875 c 0
 361.169921875 92.6650390625 370.502929688 137.665039062 382.502929688 200.998046875 c 1
 370.502929688 200.998046875 l 1
 251.497070312 200 l 1
EndSplineSet
EndChar

StartChar: dollar
Encoding: 36 36 5
Width: 670
GlyphClass: 2
Flags: HMW
HStem: -18.9971 64.9971 368 63.0029 653 59<369.498 378.5 369.498 378.5>
VStem: 127.501 72.999 307.5 58 307.5 63.002 486.499 73.999
LayerCount: 2
Fore
SplineSet
482 245.50390625 m 0xfa
 479 257.170898438 473.5 269.337890625 465.5 282.004882812 c 0
 457.5 294.671875 445.833007812 306.338867188 430.5 317.005859375 c 0
 415.166992188 327.005859375 397.166992188 336.005859375 376.5 344.005859375 c 2
 365.5 349.005859375 l 1
 365.5 335.005859375 l 1
 364.499023438 187.005859375 l 2
 363.83203125 132.338867188 363.165039062 89.671875 362.498046875 59.0048828125 c 1
 375.499023438 65 l 2
 406.166015625 79 432.166015625 98.337890625 453.499023438 123.004882812 c 0
 475.499023438 147.671875 486.499023438 176.004882812 486.499023438 208.004882812 c 0
 486.499023438 221.337890625 485 233.836914062 482 245.50390625 c 0xfa
228.498046875 469.002929688 m 0
 245.165039062 451.669921875 267.83203125 439.002929688 296.499023438 431.002929688 c 2
 307.5 429.002929688 l 1xf6
 308.166992188 483.002929688 308.499023438 551.002929688 308.499023438 633.002929688 c 2
 308.499023438 646.002929688 l 1
 296.499023438 643.002929688 l 2
 269.166015625 633.669921875 246.833007812 619.336914062 229.5 600.00390625 c 0
 210.166992188 581.336914062 200.5 558.336914062 200.5 531.00390625 c 0
 200.5 507.00390625 209.831054688 486.3359375 228.498046875 469.002929688 c 0
231.5 -11 m 0
 211.5 -5.6669921875 194.501953125 2 180.501953125 12 c 0
 151.834960938 30.6669921875 130.834960938 52.333984375 117.501953125 77.0009765625 c 0
 112.168945312 89.0009765625 109.501953125 99.333984375 109.501953125 108.000976562 c 0
 109.501953125 119.333984375 114.834960938 127.666992188 125.501953125 133 c 0
 132.834960938 136.333007812 138.16796875 138.333007812 141.500976562 139 c 0
 144.833984375 139.666992188 147.500976562 140 149.500976562 140 c 2
 155.500976562 140 l 2
 159.500976562 140 163.66796875 138.166992188 168.000976562 134.5 c 0
 172.333984375 130.833007812 177.166992188 125 182.5 117 c 0
 196.5 95 212.833007812 77.6669921875 231.5 65 c 0
 248.166992188 52.3330078125 269.166015625 46 294.499023438 46 c 2
 296.499023438 46 l 1
 305.5 46 l 1
 306.833007812 164 307.5 266.666992188 307.5 354 c 2
 307.5 363 l 1
 298.833007812 363.666992188 291 364.5 284 365.5 c 2
 266.5 368 l 2
 245.833007812 370.666992188 226.5 376.666992188 208.5 386 c 0
 189.833007812 395.333007812 174.833007812 406.666015625 163.5 419.999023438 c 0
 152.166992188 433.33203125 143.333984375 447.499023438 137.000976562 462.499023438 c 0
 130.66796875 477.499023438 127.500976562 491.999023438 127.500976562 505.999023438 c 0
 127.500976562 528.666015625 131.16796875 550.499023438 138.500976562 571.499023438 c 0
 145.833984375 592.499023438 156.500976562 611.999023438 170.500976562 629.999023438 c 0
 184.500976562 647.999023438 203.16796875 663.666015625 226.500976562 676.999023438 c 0
 248.500976562 690.33203125 273.499023438 699.665039062 301.499023438 704.998046875 c 2
 307.5 705.998046875 l 1xfa
 308.833007812 727.331054688 309.500976562 749.331054688 309.500976562 771.998046875 c 0
 310.16796875 786.665039062 312.66796875 797.83203125 317.000976562 805.499023438 c 0
 321.333984375 813.166015625 328.500976562 816.999023438 338.500976562 816.999023438 c 2
 340.500976562 816.999023438 l 2
 351.16796875 817.666015625 358.834960938 813.999023438 363.501953125 805.999023438 c 0
 368.168945312 798.666015625 370.501953125 788.333007812 370.501953125 775 c 2
 370.501953125 713 l 1xf6
 378.5 712 l 2
 391.833007812 711.333007812 410.16796875 708 433.500976562 702 c 0
 458.833984375 696 477.833984375 690.666992188 490.500976562 686 c 0
 500.500976562 682.666992188 507.833007812 677 512.5 669 c 0
 516.5 662.333007812 518.500976562 655.666015625 518.500976562 648.999023438 c 0
 518.500976562 646.999023438 518.16796875 644.666015625 517.500976562 641.999023438 c 0
 516.833984375 635.999023438 515.166992188 631.666015625 512.5 628.999023438 c 0
 509.166992188 626.33203125 505.666015625 624.83203125 501.999023438 624.499023438 c 0
 498.33203125 624.166015625 494.833007812 623.999023438 491.5 623.999023438 c 0
 478.166992188 623.999023438 463.5 627.666015625 447.5 634.999023438 c 0
 438.833007812 638.999023438 429 642.83203125 418 646.499023438 c 0
 407 650.166015625 393.833007812 652.333007812 378.5 653 c 2
 369.498046875 653 l 1
 365.5 423 l 1xfa
 373.5 421 l 2
 400.833007812 417.666992188 425.166015625 411 446.499023438 401 c 0
 469.83203125 391 488.33203125 379.666992188 501.999023438 367 c 0
 515.666015625 354.333007812 527.166015625 339.833007812 536.499023438 323.5 c 0
 545.83203125 307.166992188 552.165039062 291 555.498046875 275 c 0
 558.831054688 259 560.498046875 242.333007812 560.498046875 225 c 0
 560.498046875 195.666992188 555.331054688 167.833984375 544.998046875 141.500976562 c 0
 534.665039062 115.16796875 520.665039062 92.3349609375 502.998046875 73.001953125 c 0
 485.331054688 53.6689453125 464.498046875 37.001953125 440.498046875 23.001953125 c 0
 419.165039062 9.001953125 395.498046875 -1.6650390625 369.498046875 -8.998046875 c 2
 362.498046875 -11 l 1
 362.498046875 -17.998046875 l 2
 363.165039062 -57.3310546875 363.83203125 -83.998046875 364.499023438 -97.998046875 c 0
 363.166015625 -109.998046875 358.999023438 -119.165039062 351.999023438 -125.498046875 c 0
 344.999023438 -131.831054688 336.499023438 -134.998046875 326.499023438 -134.998046875 c 2
 325.499023438 -134.998046875 l 1
 324.499023438 -134.998046875 l 2
 316.499023438 -134.998046875 310.499023438 -131.998046875 306.499023438 -125.998046875 c 0
 303.166015625 -120.665039062 301.499023438 -112.998046875 301.499023438 -102.998046875 c 2
 301.499023438 -93.998046875 l 2
 302.83203125 -79.3310546875 303.499023438 -57.6640625 303.499023438 -28.9970703125 c 2
 303.499023438 -18.9970703125 l 1
 294.499023438 -18.9970703125 l 1
 290.499023438 -18.9970703125 l 2
 269.83203125 -18.9970703125 250.166992188 -16.3330078125 231.5 -11 c 0
EndSplineSet
EndChar

StartChar: percent
Encoding: 37 37 6
Width: 670
GlyphClass: 2
Flags: HMW
HStem: -18.001 57 180.998 54.0323 442 54.999 642.043 52.9575
VStem: 95.4986 53.001 112.002 68.499 271.5 45.998 352.501 49.002 462.499 70.001 522.573 51.9275
LayerCount: 2
Fore
SplineSet
412.500976562 58.9990234375 m 0xf340
 421.168945312 46.9990234375 436.834960938 40.33203125 459.501953125 38.9990234375 c 2
 462.498046875 38.9990234375 l 2xf380
 480.498046875 38.9990234375 494.668945312 45.166015625 505.001953125 57.4990234375 c 0
 515.334960938 69.83203125 521.168945312 85.6650390625 522.500976562 104.998046875 c 2
 522.500976562 105.998046875 l 1
 522.500976562 108.998046875 l 2
 522.548828125 110.474609375 522.572265625 111.9296875 522.572265625 113.362304688 c 0
 522.572265625 131.977539062 518.548828125 146.85546875 510.500976562 157.998046875 c 0
 499.168945312 173.331054688 481.834960938 180.998046875 458.501953125 180.998046875 c 0
 440.501953125 180.998046875 426.501953125 173.998046875 416.501953125 159.998046875 c 0
 407.168945312 145.998046875 402.168945312 128.331054688 401.501953125 106.998046875 c 2
 401.501953125 102.998046875 l 2
 401.450195312 101.561523438 401.424804688 100.1484375 401.424804688 98.7587890625 c 0
 401.424804688 82.0966796875 405.116210938 68.8447265625 412.500976562 58.9990234375 c 0xf340
397.499023438 -0.5009765625 m 0
 382.166015625 11.166015625 370.833007812 25.9990234375 363.499023438 43.9990234375 c 0
 356.166015625 61.9990234375 352.500976562 81.33203125 352.500976562 101.999023438 c 2
 352.500976562 103.999023438 l 2
 352.500976562 142.666015625 362.168945312 174.166015625 381.500976562 198.499023438 c 0
 400.833984375 222.83203125 428.833984375 234.999023438 465.500976562 234.999023438 c 0
 466.500976562 235.01953125 467.497070312 235.030273438 468.485351562 235.030273438 c 0
 499.141601562 235.030273438 524.479492188 225.01953125 544.500976562 204.999023438 c 0
 554.500976562 194.33203125 562.166992188 179.999023438 567.500976562 161.999023438 c 0
 572.166992188 147.999023438 574.500976562 132.33203125 574.500976562 114.999023438 c 0xf340
 574.500976562 110.999023438 574.166992188 104.999023438 573.500976562 96.9990234375 c 0
 571.500976562 58.33203125 560.833007812 29.33203125 541.500976562 9.9990234375 c 0
 522.166992188 -8.66796875 492.833984375 -18.0009765625 453.500976562 -18.0009765625 c 2
 450.500976562 -18.0009765625 l 2
 430.500976562 -18.0009765625 412.833007812 -12.16796875 397.499023438 -0.5009765625 c 0
160.501953125 517.999023438 m 0
 169.834960938 505.999023438 187.168945312 498.999023438 212.500976562 496.999023438 c 2
 213.500976562 496.999023438 l 2
 231.500976562 496.999023438 245.168945312 503.33203125 254.500976562 515.999023438 c 0
 263.833984375 528.666015625 269.166992188 544.999023438 270.500976562 564.999023438 c 0
 271.166992188 566.33203125 271.500976562 567.999023438 271.500976562 569.999023438 c 0
 270.833007812 593.33203125 265.500976562 610.999023438 255.500976562 622.999023438 c 0
 244.833007812 635.666015625 229.833007812 641.999023438 210.500976562 641.999023438 c 0
 209.659179688 642.028320312 208.826171875 642.04296875 208.001953125 642.04296875 c 0
 189.870117188 642.04296875 175.704101562 635.028320312 165.500976562 620.999023438 c 0
 156.166992188 607.666015625 150.500976562 589.999023438 148.500976562 567.999023438 c 2
 148.500976562 562.999023438 l 2xfb
 148.452148438 561.618164062 148.428710938 560.259765625 148.428710938 558.922851562 c 0
 148.428710938 541.545898438 152.454101562 527.904296875 160.501953125 517.999023438 c 0
218.499023438 195 m 2
 363.499023438 472 l 2
 412.166015625 565.333007812 445.166015625 632.333007812 462.499023438 673 c 0
 470.499023438 685 481.833007812 691 496.499023438 691 c 0
 503.166015625 691 509.833007812 689.333007812 516.500976562 686 c 0
 527.166992188 680.666992188 532.500976562 673.666992188 532.500976562 665 c 0
 532.500976562 657.666992188 529.168945312 648.666992188 522.501953125 638 c 0
 497.168945312 597.333007812 440.833984375 493.666015625 353.500976562 326.999023438 c 0
 267.500976562 160.33203125 209.833984375 47.33203125 180.500976562 -12.0009765625 c 0
 169.168945312 -32.0009765625 157.500976562 -42.0009765625 145.500976562 -42.0009765625 c 0
 141.500976562 -42.0009765625 136.66796875 -40.66796875 131.000976562 -38.0009765625 c 0
 125.333984375 -35.333984375 120.833984375 -31.833984375 117.500976562 -27.5009765625 c 0
 114.16796875 -23.16796875 112.334960938 -17.5009765625 112.001953125 -10.5009765625 c 0xf780
 111.982421875 -10.08984375 111.97265625 -9.6728515625 111.97265625 -9.2509765625 c 0
 111.97265625 -2.49609375 114.482421875 5.5869140625 119.501953125 14.9990234375 c 0
 133.501953125 43.666015625 166.499023438 103.666992188 218.499023438 195 c 2
144.998046875 459.5 m 0
 128.665039062 471.166992188 116.33203125 486 107.999023438 504 c 0
 99.666015625 522 95.4990234375 541.333007812 95.4990234375 562 c 2
 95.4990234375 564 l 2xfb
 95.4990234375 602.666992188 106.166015625 634.166992188 127.499023438 658.5 c 0
 148.833007812 682.833007812 178.833007812 695 217.499023438 695 c 0
 218.416015625 695.020507812 219.329101562 695.03125 220.235351562 695.03125 c 0
 248.348632812 695.03125 271.770507812 685.020507812 290.498046875 665 c 0
 299.831054688 654.333007812 306.831054688 640 311.498046875 622 c 0
 315.498046875 608 317.498046875 591.666992188 317.498046875 573 c 0
 317.498046875 526.333007812 307.498046875 492.333007812 287.498046875 471 c 0
 269.498046875 451.666992188 241.498046875 442 203.498046875 442 c 2
 201.498046875 442 l 2
 180.165039062 442 161.331054688 447.833007812 144.998046875 459.5 c 0
EndSplineSet
EndChar

StartChar: ampersand
Encoding: 38 38 7
Width: 670
GlyphClass: 2
Flags: HMW
HStem: -32 74.001 655.001 59.1001
VStem: 86.4986 80.0029 172.499 76.002 407.501 63.1093
LayerCount: 2
Fore
SplineSet
569.49609375 11 m 2
 569.49609375 3 l 2
 567.49609375 -13 562.828125 -23 555.49609375 -27 c 0
 551.49609375 -29.6669921875 546.828125 -31 541.49609375 -31 c 0
 536.828125 -31 531.162109375 -29.3330078125 524.495117188 -26 c 0
 511.162109375 -19.3330078125 499.495117188 -7.3330078125 489.495117188 10 c 0
 487.495117188 13.3330078125 483.495117188 23 477.495117188 39 c 0
 471.495117188 55 466.495117188 67 462.495117188 75 c 2
 455.495117188 90 l 1
 434.828125 61.3330078125 422.828125 45 419.495117188 41 c 0
 416.162109375 37.6669921875 410.828125 32 403.49609375 24 c 0
 396.163085938 16 389.830078125 10 384.49609375 6 c 0
 379.1640625 2.6669921875 372.1640625 -2 363.49609375 -8 c 0
 355.49609375 -14 347.49609375 -18.3330078125 339.49609375 -21 c 0
 331.49609375 -23.6669921875 322.1640625 -26 311.49609375 -28 c 0
 300.1640625 -30.6669921875 288.831054688 -32 277.498046875 -32 c 0
 242.1640625 -32 209.83203125 -23 180.499023438 -5 c 0
 151.166015625 13 128.166015625 37 111.498046875 67 c 0
 94.83203125 97.6669921875 86.498046875 130.333984375 86.498046875 165.000976562 c 0
 86.498046875 219.000976562 96.498046875 265.333984375 116.498046875 304.000976562 c 0
 140.499023438 352.000976562 180.499023438 388.333984375 236.499023438 413.000976562 c 2
 246.499023438 418.000976562 l 1
 236.499023438 434.000976562 227.166015625 449.000976562 218.499023438 463.000976562 c 0
 209.83203125 476.333984375 203.83203125 486.000976562 200.499023438 492.000976562 c 0
 197.166015625 498.000976562 193.166015625 505.333984375 188.499023438 514.000976562 c 0
 183.83203125 522.66796875 180.83203125 530.000976562 179.499023438 536.000976562 c 0
 174.83203125 554.000976562 172.499023438 571.66796875 172.499023438 589.000976562 c 0
 172.499023438 600.333984375 174.166015625 611.333984375 177.499023438 622.000976562 c 0
 180.166015625 632.66796875 185.166015625 643.66796875 192.499023438 655.000976562 c 0
 199.83203125 666.333984375 208.83203125 676.333984375 219.499023438 685.000976562 c 0
 230.166015625 693.66796875 244.499023438 700.66796875 262.499023438 706.000976562 c 0
 279.83203125 711.333984375 299.83203125 714.000976562 322.499023438 714.000976562 c 0
 324.366210938 714.067382812 326.2265625 714.100585938 328.080078125 714.100585938 c 0
 344.759765625 714.100585938 360.8984375 711.400390625 376.499023438 706.000976562 c 0
 394.499023438 700.000976562 410.499023438 691.66796875 424.499023438 681.000976562 c 0
 438.499023438 669.66796875 449.83203125 655.334960938 458.499023438 638.001953125 c 0
 466.499023438 620.668945312 470.499023438 601.3359375 470.499023438 580.002929688 c 0
 470.573242188 577.631835938 470.609375 575.28515625 470.609375 572.962890625 c 0
 470.609375 554.396484375 468.240234375 537.41015625 463.5 522.00390625 c 0
 458.166992188 504.00390625 451.5 489.336914062 443.5 478.00390625 c 0
 435.5 466.670898438 425.5 455.670898438 413.5 445.00390625 c 0
 401.5 434.336914062 390.5 425.669921875 380.5 419.002929688 c 0
 369.83203125 412.3359375 357.5 405.668945312 343.5 399.001953125 c 2
 334.5 395.001953125 l 1
 339.5 386.001953125 l 2
 352.166992188 364.668945312 372.833984375 333.668945312 401.5 293.001953125 c 0
 430.16796875 252.334960938 448.5 225.66796875 456.5 213.000976562 c 2
 465.5 198.000976562 l 1
 475.5 217.333984375 483.16796875 233.333984375 488.5 246.000976562 c 0
 494.5 258.66796875 499.16796875 268.66796875 502.5 276.000976562 c 0
 505.833984375 283.333984375 508.5 288.666992188 510.5 292 c 0
 521.16796875 308 530.834960938 317.666992188 539.501953125 321 c 0
 542.16796875 321.666992188 545.16796875 322 548.501953125 322 c 0
 554.501953125 322 560.834960938 320.333007812 567.501953125 317 c 0
 575.501953125 313.666992188 580.501953125 306.333984375 582.501953125 295.000976562 c 0
 583.16796875 291.66796875 583.501953125 288.66796875 583.501953125 286.000976562 c 0
 583.501953125 276.000976562 580.501953125 264.66796875 574.501953125 252.000976562 c 0
 571.834960938 246.66796875 562.16796875 233.66796875 545.5 213.000976562 c 0
 528.833984375 192.333984375 514.833984375 173.333984375 503.5 156.000976562 c 2
 500.5 151.000976562 l 1
 511.16796875 133.000976562 530.5 99.333984375 558.5 50.0009765625 c 0
 565.833984375 38.0009765625 569.49609375 25 569.49609375 11 c 2
248.5 572.000976562 m 0
 248.5 554.000976562 253.16796875 534.333984375 262.5 513.000976562 c 0
 272.5 492.333984375 284.16796875 474.000976562 297.5 458.000976562 c 2
 301.5 453.000976562 l 1
 307.5 455.000976562 l 2
 322.833984375 459.66796875 335.833984375 464.66796875 346.5 470.000976562 c 0
 357.16796875 475.333984375 367.5 482.333984375 377.5 491.000976562 c 0
 387.5 499.66796875 394.833984375 510.66796875 399.5 524.000976562 c 0
 404.833984375 536.66796875 407.5 551.66796875 407.5 569.000976562 c 0
 407.5 597.000976562 398.833984375 618.333984375 381.5 633.000976562 c 0
 364.16796875 647.66796875 343.834960938 655.000976562 320.501953125 655.000976562 c 0
 293.834960938 655.000976562 274.501953125 646.000976562 262.501953125 628.000976562 c 0
 253.16796875 614.000976562 248.5 595.333984375 248.5 572.000976562 c 0
166.501953125 174.000976562 m 0
 166.501953125 136.66796875 176.834960938 105.66796875 197.501953125 81.0009765625 c 0
 218.16796875 55.0009765625 245.16796875 42.0009765625 278.501953125 42.0009765625 c 0
 295.834960938 42.66796875 313.834960938 46.0009765625 332.501953125 52.0009765625 c 0
 339.16796875 54.0009765625 346.16796875 57.66796875 353.501953125 63.0009765625 c 0
 361.501953125 67.66796875 367.501953125 71.66796875 371.501953125 75.0009765625 c 0
 375.501953125 78.333984375 380.501953125 83.333984375 386.501953125 90.0009765625 c 0
 392.501953125 96.66796875 396.501953125 101.334960938 398.501953125 104.001953125 c 0
 401.16796875 106.001953125 404.8359375 110.668945312 409.502929688 118.001953125 c 0
 414.169921875 125.334960938 418.169921875 131.001953125 421.502929688 135.001953125 c 1
 407.502929688 165.001953125 396.502929688 187.334960938 388.502929688 202.001953125 c 0
 379.8359375 218.001953125 363.502929688 243.334960938 339.502929688 278.001953125 c 0
 315.502929688 312.668945312 296.8359375 340.668945312 283.502929688 362.001953125 c 1
 275.502929688 359.001953125 l 2
 254.8359375 349.001953125 237.16796875 337.334960938 222.501953125 324.001953125 c 0
 207.16796875 310.668945312 195.501953125 295.668945312 187.501953125 279.001953125 c 0
 180.16796875 262.334960938 174.8359375 245.66796875 171.502929688 229.000976562 c 0
 168.169921875 212.333984375 166.501953125 194.000976562 166.501953125 174.000976562 c 0
EndSplineSet
EndChar

StartChar: quotesingle
Encoding: 39 39 8
Width: 670
GlyphClass: 2
Flags: HMW
HStem: 456 307.126
VStem: 292.5 84
LayerCount: 2
Fore
SplineSet
370.499023438 487 m 0
 369.166015625 476.333007812 364.833984375 468.333007812 357.500976562 463 c 0
 350.166992188 458.333007812 342.500976562 456 334.500976562 456 c 2
 332.500976562 456 l 2
 321.166992188 456.666992188 311.166992188 460.333984375 302.500976562 467.000976562 c 0
 295.833984375 472.333984375 292.500976562 479.333984375 292.500976562 488.000976562 c 2
 292.500976562 491.000976562 l 1
 292.500976562 492.000976562 l 2
 294.346679688 519.694335938 295.270507812 551.71875 295.270507812 588.075195312 c 0
 295.270507812 630.48828125 294.013671875 678.796875 291.500976562 733.000976562 c 2
 291.500976562 735.000976562 l 2
 291.500976562 740.333984375 292.500976562 745.000976562 294.500976562 749.000976562 c 0
 297.166992188 753.000976562 300.500976562 755.66796875 304.500976562 757.000976562 c 0
 313.833984375 761.083984375 323.420898438 763.125976562 333.264648438 763.125976562 c 0
 334.670898438 763.125976562 336.083007812 763.083984375 337.499023438 763.000976562 c 0
 347.499023438 762.333984375 356.499023438 759.666992188 364.499023438 755 c 0
 368.499023438 753 371.833007812 749.666992188 374.499023438 745 c 0
 376.499023438 740.333007812 377.499023438 734 377.499023438 726 c 0
 378.166992188 718 378.499023438 705 378.499023438 687 c 0
 378.499023438 669 377.833007812 637 376.499023438 591 c 0
 375.166992188 545 373.166015625 510.333007812 370.499023438 487 c 0
EndSplineSet
EndChar

StartChar: parenleft
Encoding: 40 40 9
Width: 670
GlyphClass: 2
Flags: HMW
HStem: -122 64.999 743 61<434.239 447.572>
VStem: 195.428 78.1449
LayerCount: 2
Fore
SplineSet
473.572265625 -93 m 0
 473.572265625 -101 470.239257812 -107.666992188 463.572265625 -113 c 0
 457.572265625 -119 450.905273438 -122 443.572265625 -122 c 0
 400.905273438 -121.333007812 362.23828125 -105.666015625 327.571289062 -74.9990234375 c 0
 292.904296875 -44.33203125 264.571289062 -1.33203125 242.571289062 54.0009765625 c 0
 220.571289062 110.000976562 205.904296875 174.333984375 198.571289062 247.000976562 c 0
 196.571289062 267.000976562 195.571289062 292.000976562 195.571289062 322.000976562 c 0
 195.475585938 326.288085938 195.427734375 330.731445312 195.427734375 335.331054688 c 0
 195.427734375 362.921875 197.142578125 396.145507812 200.571289062 435.000976562 c 0
 207.904296875 512.333984375 220.904296875 575.666992188 239.571289062 625 c 0
 247.571289062 647 258.571289062 668.333007812 272.571289062 689 c 0
 286.571289062 709.666992188 302.571289062 728.666992188 320.571289062 746 c 0
 337.904296875 763.333007812 357.571289062 777.333007812 379.571289062 788 c 0
 402.23828125 798.666992188 423.905273438 804 444.572265625 804 c 0
 454.572265625 804 461.905273438 802 466.572265625 798 c 0
 471.905273438 793.333007812 474.572265625 785.333007812 474.572265625 774 c 0
 474.572265625 762.666992188 471.905273438 754.666992188 466.572265625 750 c 0
 460.572265625 745.333007812 452.572265625 743 442.572265625 743 c 0
 423.239257812 743 405.239257812 737.333007812 388.572265625 726 c 0
 372.572265625 715.333007812 358.572265625 700.666015625 346.572265625 681.999023438 c 0
 323.239257812 647.33203125 305.90625 604.999023438 294.573242188 554.999023438 c 0
 285.90625 520.33203125 279.90625 472.33203125 276.573242188 410.999023438 c 0
 274.573242188 379.666015625 273.573242188 351.666015625 273.573242188 326.999023438 c 0
 274.240234375 301.666015625 275.240234375 279.666015625 276.573242188 260.999023438 c 0
 279.90625 220.33203125 287.239257812 180.33203125 298.572265625 140.999023438 c 0
 309.239257812 101.666015625 322.239257812 67.9990234375 337.572265625 39.9990234375 c 0
 352.239257812 11.33203125 368.90625 -12.0009765625 387.573242188 -30.0009765625 c 0
 406.90625 -48.0009765625 425.573242188 -57.0009765625 443.573242188 -57.0009765625 c 0
 453.573242188 -57.0009765625 461.240234375 -59.333984375 466.573242188 -64.0009765625 c 0
 471.240234375 -68.66796875 473.572265625 -78.3330078125 473.572265625 -93 c 0
EndSplineSet
EndChar

StartChar: parenright
Encoding: 41 41 10
Width: 670
GlyphClass: 2
Flags: HMW
HStem: -122 65.001 743.001 61
VStem: 396.625 78
LayerCount: 2
Fore
SplineSet
471.626953125 247 m 0
 464.293945312 174.333007812 449.626953125 110 427.626953125 54 c 0
 405.626953125 -1.3330078125 377.293945312 -44.3330078125 342.626953125 -75 c 0
 307.293945312 -106.333007812 268.626953125 -122 226.626953125 -122 c 0
 219.959960938 -121.333007812 213.29296875 -118.333007812 206.625976562 -113 c 0
 199.29296875 -107.666992188 195.625976562 -101 195.625976562 -93 c 0
 195.625976562 -78.3330078125 198.29296875 -68.666015625 203.625976562 -63.9990234375 c 0
 208.29296875 -59.33203125 215.959960938 -56.9990234375 226.626953125 -56.9990234375 c 0
 244.626953125 -56.9990234375 262.959960938 -47.9990234375 281.626953125 -29.9990234375 c 0
 300.293945312 -11.33203125 317.293945312 12.0009765625 332.626953125 40.0009765625 c 0
 347.293945312 68.0009765625 360.293945312 101.66796875 371.626953125 141.000976562 c 0
 382.959960938 180.333984375 390.29296875 220.333984375 393.625976562 261.000976562 c 0
 395.625976562 281.000976562 396.625976562 303.333984375 396.625976562 328.000976562 c 0
 396.625976562 352.66796875 395.625976562 380.334960938 393.625976562 411.001953125 c 0
 390.29296875 471.668945312 384.29296875 519.668945312 375.625976562 555.001953125 c 0
 363.625976562 605.001953125 346.29296875 647.668945312 323.625976562 683.001953125 c 0
 312.29296875 700.334960938 298.29296875 714.66796875 281.625976562 726.000976562 c 0
 264.958984375 737.333984375 247.291992188 743.000976562 228.625 743.000976562 c 0
 218.625 743.000976562 210.291992188 745.333984375 203.625 750.000976562 c 0
 198.291992188 754.000976562 195.625 761.66796875 195.625 773.000976562 c 0
 194.958007812 780.333984375 195.625 786.000976562 197.625 790.000976562 c 0
 199.625 794.66796875 201.958007812 797.66796875 204.625 799.000976562 c 0
 210.625 802.333984375 217.625 804.000976562 225.625 804.000976562 c 0
 247.625 804.000976562 269.291992188 798.66796875 290.625 788.000976562 c 0
 311.958007812 777.333984375 331.625 763.333984375 349.625 746.000976562 c 0
 367.625 728.66796875 383.625 709.66796875 397.625 689.000976562 c 0
 411.625 667.66796875 422.625 646.334960938 430.625 625.001953125 c 0
 449.291992188 575.668945312 461.958984375 512.3359375 468.625976562 435.002929688 c 0
 472.625976562 389.669921875 474.625976562 352.002929688 474.625976562 322.002929688 c 0
 474.625976562 292.002929688 473.626953125 267 471.626953125 247 c 0
EndSplineSet
EndChar

StartChar: asterisk
Encoding: 42 42 11
Width: 670
GlyphClass: 2
Flags: HMW
HStem: 303 84<128.835 131.503 128.503 148.502> 315.998 56.999 315.998 69.999
VStem: 401.503 71.9951
LayerCount: 2
Fore
SplineSet
463.502929688 132 m 0x50
 457.502929688 128 449.834960938 126.333007812 440.501953125 127 c 0
 431.834960938 127 423.834960938 128.666992188 416.501953125 132 c 0
 409.168945312 135.333007812 404.168945312 140.666015625 401.501953125 147.999023438 c 0
 392.834960938 175.999023438 375.16796875 215.33203125 348.500976562 265.999023438 c 2
 339.500976562 282.999023438 l 1
 331.500976562 265.999023438 l 2
 299.500976562 203.33203125 279.833984375 161.999023438 272.500976562 141.999023438 c 0
 270.500976562 136.666015625 267.16796875 132.333007812 262.500976562 129 c 0
 257.833984375 126.333007812 252.500976562 124.666015625 246.500976562 123.999023438 c 2
 241.500976562 123.999023438 l 2
 229.500976562 123.999023438 219.500976562 126.33203125 211.500976562 130.999023438 c 0
 207.500976562 132.999023438 203.833984375 136.666015625 200.500976562 141.999023438 c 0
 197.16796875 147.999023438 194.834960938 154.666015625 193.501953125 161.999023438 c 2
 193.501953125 164.999023438 l 2
 193.501953125 171.666015625 195.168945312 178.333007812 198.501953125 185 c 2
 274.501953125 309 l 1
 207.834960938 305 161.501953125 303 135.501953125 303 c 0
 122.168945312 303 111.8359375 307.333007812 104.502929688 316 c 0
 97.169921875 324 93.5029296875 333 93.5029296875 343 c 2
 93.5029296875 346 l 2
 93.5029296875 356 96.169921875 365.333007812 101.502929688 374 c 0
 104.169921875 378.666992188 107.836914062 382 112.50390625 384 c 0
 117.836914062 386 123.169921875 387 128.502929688 387 c 2
 131.502929688 387 l 2x90
 162.169921875 384.333007812 213.502929688 380.666015625 285.502929688 375.999023438 c 1
 276.502929688 391.999023438 l 2
 247.8359375 440.666015625 224.168945312 477.999023438 205.501953125 503.999023438 c 0
 198.834960938 515.33203125 195.501953125 526.33203125 195.501953125 536.999023438 c 2
 195.501953125 542.999023438 l 2
 196.834960938 553.666015625 201.16796875 560.666015625 208.500976562 563.999023438 c 1
 208.500976562 564.999023438 l 1
 213.833984375 568.33203125 220.166992188 569.999023438 227.5 569.999023438 c 0
 234.833007812 570.666015625 242.5 568.666015625 250.5 563.999023438 c 0
 258.5 559.33203125 264.5 552.665039062 268.5 543.998046875 c 0
 275.833007812 527.331054688 298.166015625 483.6640625 335.499023438 412.997070312 c 1
 343.499023438 427.997070312 l 2
 370.166015625 473.997070312 390.499023438 512.330078125 404.499023438 542.997070312 c 0
 408.499023438 550.997070312 414.166015625 557.330078125 421.499023438 561.997070312 c 0
 428.431640625 566.50390625 435.184570312 568.756835938 441.7578125 568.756835938 c 0
 447.825195312 568.756835938 453.739257812 566.836914062 459.499023438 562.997070312 c 0
 464.166015625 560.330078125 468.166015625 556.330078125 471.499023438 550.997070312 c 0
 474.83203125 545.6640625 476.499023438 538.6640625 476.499023438 529.997070312 c 0
 476.499023438 521.330078125 473.83203125 512.997070312 468.499023438 504.997070312 c 0
 447.166015625 473.6640625 423.499023438 434.6640625 397.499023438 387.997070312 c 2
 389.499023438 372.997070312 l 1
 406.499023438 372.997070312 l 2x50
 465.83203125 372.997070312 508.165039062 376.6640625 533.498046875 383.997070312 c 0
 536.831054688 385.330078125 540.1640625 385.997070312 543.497070312 385.997070312 c 0
 550.830078125 385.997070312 557.163085938 383.6640625 562.49609375 378.997070312 c 0
 571.163085938 370.997070312 575.830078125 362.6640625 576.497070312 353.997070312 c 0
 576.497070312 348.6640625 575.830078125 343.331054688 574.497070312 337.998046875 c 0
 571.1640625 325.331054688 565.831054688 316.998046875 558.498046875 312.998046875 c 0
 555.831054688 311.665039062 553.1640625 310.998046875 550.497070312 310.998046875 c 0
 547.1640625 310.331054688 544.497070312 310.331054688 542.497070312 310.998046875 c 0
 525.1640625 314.331054688 494.497070312 315.998046875 450.497070312 315.998046875 c 0x30
 443.831054688 316.33203125 435.498046875 316.499023438 425.498046875 316.499023438 c 0
 415.498046875 316.499023438 403.831054688 316.33203125 390.498046875 315.998046875 c 1
 466.498046875 185.998046875 l 2
 471.831054688 174.665039062 474.498046875 164.665039062 474.498046875 155.998046875 c 0
 473.831054688 154.665039062 473.498046875 152.998046875 473.498046875 150.998046875 c 0
 472.831054688 141.665039062 469.502929688 135.333007812 463.502929688 132 c 0x50
EndSplineSet
EndChar

StartChar: plus
Encoding: 43 43 12
Width: 670
GlyphClass: 2
Flags: HMW
HStem: 367.001 63.999
VStem: 302.497 62.0029
LayerCount: 2
Fore
SplineSet
192.5 366 m 2
 178.5 366 168.5 369.333007812 162.5 376 c 0
 155.83203125 382 152.5 389.666992188 152.5 399 c 2
 152.5 402 l 2
 153.166992188 410.666992188 156.166992188 418 161.5 424 c 0
 167.5 430 176.5 433 188.5 433 c 2
 191.5 433 l 2
 238.83203125 431.666992188 272.830078125 431 293.49609375 431 c 2
 302.49609375 431 l 1
 302.49609375 441 l 2
 302.49609375 474.333007812 301.83203125 510.333007812 300.5 549 c 2
 300.5 553 l 2
 300.5 563.666992188 303.5 571.333984375 309.5 576.000976562 c 0
 314.83203125 580.000976562 322.83203125 582.000976562 333.5 582.000976562 c 2
 337.5 582.000976562 l 2
 346.83203125 582.000976562 354.5 580.000976562 360.5 576.000976562 c 0
 365.166992188 572.66796875 367.5 565.66796875 367.5 555.000976562 c 2
 367.5 550.000976562 l 2
 365.5 511.333984375 364.5 474.333984375 364.5 439.000976562 c 2
 364.5 430.000976562 l 1
 484.5 430.000976562 l 2
 497.166992188 430.000976562 505.5 427.66796875 509.5 423.000976562 c 0
 514.166992188 417.66796875 516.833984375 410.666992188 517.5 402 c 0
 516.833984375 396.666992188 516.166992188 392.000976562 515.5 388.000976562 c 0
 514.83203125 384.000976562 513.166015625 380 510.499023438 376 c 0
 507.166015625 370.666992188 500.166015625 368.000976562 489.499023438 368.000976562 c 2
 485.499023438 368.000976562 l 2
 474.166015625 369.333984375 458.166015625 370.000976562 437.499023438 370.000976562 c 0
 417.499023438 370.000976562 392.83203125 369.66796875 363.499023438 369.000976562 c 1
 363.499023438 359.000976562 l 1
 363.499023438 295.000976562 l 2
 364.166015625 270.333984375 364.5 255.333984375 364.5 250.000976562 c 0
 363.83203125 238.000976562 361.1640625 229.66796875 356.498046875 225.000976562 c 0
 351.831054688 220.333984375 345.1640625 217.666992188 336.49609375 217 c 0
 325.830078125 217.666992188 317.830078125 220 312.49609375 224 c 0
 305.830078125 228.666992188 302.49609375 237.333984375 302.49609375 250.000976562 c 2
 302.49609375 367.000976562 l 1
 293.49609375 367.000976562 l 1
 192.5 366 l 2
EndSplineSet
EndChar

StartChar: comma
Encoding: 44 44 13
Width: 670
GlyphClass: 2
Flags: HMW
VStem: 242.501 185.998
LayerCount: 2
Fore
SplineSet
278.500976562 -207 m 0
 266.500976562 -207 256.833984375 -203.333007812 249.500976562 -196 c 0
 245.500976562 -191.333007812 243.16796875 -185.666015625 242.500976562 -178.999023438 c 0
 241.833984375 -177.666015625 241.500976562 -176.666015625 241.500976562 -175.999023438 c 0
 242.16796875 -171.999023438 244.500976562 -165.999023438 248.500976562 -157.999023438 c 0
 262.500976562 -137.999023438 281.833984375 -93.666015625 306.500976562 -24.9990234375 c 0
 331.833984375 43.66796875 347.166992188 91.66796875 352.5 119.000976562 c 0
 353.833007812 125.66796875 357.166015625 131.000976562 362.499023438 135.000976562 c 0
 368.499023438 139.000976562 374.499023438 141.000976562 380.499023438 141.000976562 c 2
 382.499023438 141.000976562 l 2
 389.166015625 141.000976562 395.499023438 140.333984375 401.499023438 139.000976562 c 0
 410.166015625 136.333984375 417.166015625 131.333984375 422.499023438 124.000976562 c 0
 426.499023438 119.333984375 428.499023438 113.333984375 428.499023438 106.000976562 c 0
 428.499023438 104.66796875 428.166015625 102.000976562 427.499023438 98.0009765625 c 0
 420.83203125 65.333984375 406.499023438 15.333984375 384.499023438 -51.9990234375 c 0
 372.499023438 -89.33203125 362.499023438 -117.665039062 354.499023438 -136.998046875 c 0
 345.83203125 -155.665039062 339.165039062 -168.33203125 334.498046875 -174.999023438 c 0
 325.165039062 -187.666015625 313.165039062 -196.666015625 298.498046875 -201.999023438 c 0
 290.498046875 -205.33203125 283.833984375 -207 278.500976562 -207 c 0
EndSplineSet
EndChar

StartChar: hyphen
Encoding: 45 45 14
Width: 670
GlyphClass: 2
Flags: HMW
HStem: 252 68<223.499 235.166> 259 61
VStem: 190.499 289.002
LayerCount: 2
Fore
SplineSet
190.500976562 290 m 2x60
 190.500976562 301.333007812 193.500976562 309.333007812 199.500976562 314 c 0
 204.16796875 318 211.500976562 320 221.500976562 320 c 0
 259.500976562 320 304.833984375 320.333007812 357.500976562 321 c 0
 410.16796875 322.333007812 440.16796875 323 447.500976562 323 c 0
 460.16796875 323 468.500976562 320.666992188 472.500976562 316 c 0
 476.500976562 310.666992188 478.833984375 303.666992188 479.500976562 295 c 0
 479.500976562 284.333007812 477.500976562 276.333007812 473.500976562 271 c 0
 468.833984375 264.333007812 460.166992188 261 447.5 261 c 0
 438.833007812 261 405.166015625 259.666992188 346.499023438 257 c 0
 287.83203125 253.666992188 246.83203125 252 223.499023438 252 c 0xa0
 212.83203125 252.666992188 204.83203125 255 199.499023438 259 c 0
 193.499023438 264.333007812 190.499023438 273.333007812 190.499023438 286 c 2
 190.500976562 290 l 2x60
EndSplineSet
EndChar

StartChar: period
Encoding: 46 46 15
Width: 670
GlyphClass: 2
Flags: HMW
HStem: -4 134.053
VStem: 263.5 143.001
LayerCount: 2
Fore
SplineSet
336.499023438 -4 m 2
 327.499023438 -4 l 2
 326.584960938 -4.03515625 325.681640625 -4.052734375 324.786132812 -4.052734375 c 0
 308.665039062 -4.052734375 295.236328125 1.6318359375 284.499023438 13 c 0
 270.499023438 27.6669921875 263.499023438 44.6669921875 263.499023438 64 c 0
 263.499023438 81.3330078125 270.833007812 96.3330078125 285.499023438 109 c 0
 302.166992188 123 320.833984375 130 341.500976562 130 c 0
 342.483398438 130.03515625 343.456054688 130.052734375 344.420898438 130.052734375 c 0
 361.772460938 130.052734375 376.131835938 124.368164062 387.500976562 113 c 0
 400.166992188 100.333007812 406.500976562 84.666015625 406.500976562 65.9990234375 c 0
 406.500976562 47.33203125 400.166992188 31.6650390625 387.500976562 18.998046875 c 0
 375.500976562 6.3310546875 358.499023438 -1.3330078125 336.499023438 -4 c 2
EndSplineSet
EndChar

StartChar: slash
Encoding: 47 47 16
Width: 670
GlyphClass: 2
Flags: W
LayerCount: 2
Fore
SplineSet
95 -9 m 0
 95 5 98.6669921875 17.6669921875 106 29 c 0
 203.333007812 189 286.666015625 331.333007812 355.999023438 456 c 0
 399.999023438 532.666992188 446.33203125 619.666992188 494.999023438 717 c 0
 499.666015625 725.666992188 505.666015625 732.333984375 512.999023438 737.000976562 c 0
 520.33203125 741.66796875 527.33203125 744.000976562 533.999023438 744.000976562 c 0
 541.33203125 744.000976562 548.999023438 742.333984375 556.999023438 739.000976562 c 0
 565.666015625 733.66796875 571.333007812 726.334960938 574 717.001953125 c 0
 574.666992188 715.001953125 575 712.334960938 575 709.001953125 c 0
 575 704.334960938 572.666992188 695.001953125 568 681.001953125 c 0
 550.666992188 646.334960938 502 562.66796875 422 430.000976562 c 0
 342 297.333984375 293.333007812 214.666992188 276 182 c 0
 268 166.666992188 250.666992188 131.666992188 224 77 c 0
 200 28.3330078125 185 -1.333984375 179 -12.0009765625 c 0
 169.666992188 -28.66796875 157.666992188 -40.3349609375 143 -47.001953125 c 0
 136.333007812 -50.3349609375 130.333007812 -52.001953125 125 -52.001953125 c 0
 119 -52.001953125 113.666992188 -50.3349609375 109 -47.001953125 c 0
 101.666992188 -43.001953125 97.333984375 -33.3349609375 96.0009765625 -18.001953125 c 0
 95.333984375 -14.6689453125 95 -11.6669921875 95 -9 c 0
EndSplineSet
EndChar

StartChar: zero
Encoding: 48 48 17
Width: 670
GlyphClass: 2
Flags: HMW
HStem: -14.998 65.001 646.003 61.999
VStem: 119.668 79 475.669 74.998
LayerCount: 2
Fore
SplineSet
120.6640625 391 m 0
 121.33203125 418.333007812 122.998046875 441.83203125 125.666015625 461.499023438 c 0
 128.33203125 481.166015625 132 502.333007812 136.666015625 525 c 0
 141.333007812 547.666992188 146.666015625 567.666992188 152.666015625 585 c 0
 168 625.666992188 194 656.333984375 230.666015625 677.000976562 c 0
 264 697.66796875 304.666015625 708.000976562 352.666015625 708.000976562 c 0
 376 708.000976562 398 703.66796875 418.666015625 695.000976562 c 0
 440.666015625 686.333984375 460.666015625 673.500976562 478.666015625 656.500976562 c 0
 496.666015625 639.500976562 511.666015625 617.000976562 523.666015625 589.000976562 c 0
 535.666015625 561.000976562 543.333007812 529.000976562 546.666015625 493.000976562 c 0
 549.333007812 453.000976562 550.666015625 409.333984375 550.666015625 362.000976562 c 0
 550.666015625 326.000976562 549.5 288.16796875 547.166015625 248.500976562 c 0
 544.833007812 208.833984375 540.666015625 178.000976562 534.666015625 156.000976562 c 0
 523.333007812 114.000976562 509.333007812 80.333984375 492.666015625 55.0009765625 c 0
 484.666015625 43.0009765625 475.666015625 33.0009765625 465.666015625 25.0009765625 c 0
 455.666015625 17.0009765625 445.333007812 10.333984375 434.666015625 5.0009765625 c 0
 425.333007812 -0.33203125 414 -4.4990234375 400.66796875 -7.4990234375 c 0
 387.333984375 -10.4990234375 374.333984375 -12.4990234375 361.66796875 -13.4990234375 c 0
 349 -14.4990234375 333.66796875 -14.9990234375 315.66796875 -14.9990234375 c 0
 288.333984375 -14.33203125 263.333984375 -8.6650390625 240.66796875 2.001953125 c 0
 215.333984375 12.6689453125 193.66796875 27.501953125 175.66796875 46.501953125 c 0
 157.66796875 65.501953125 143.833984375 89.001953125 134.16796875 117.001953125 c 0
 124.5 145.001953125 119.66796875 175.334960938 119.66796875 208.001953125 c 2
 119.66796875 214.001953125 l 1
 119.66796875 309.001953125 l 2
 119.4453125 316.125976562 119.333984375 323.918945312 119.333984375 332.380859375 c 0
 119.333984375 349.258789062 119.77734375 368.797851562 120.6640625 391 c 0
254.666015625 613.000976562 m 0
 233.333007812 591.000976562 217 555.998046875 205.666015625 507.998046875 c 0
 201.666015625 490.665039062 198.666015625 470.665039062 196.666015625 447.998046875 c 0
 195 428.33203125 194.16796875 402.166015625 194.16796875 369.5 c 0
 194.16796875 336.833984375 195 297.66796875 196.66796875 252.001953125 c 0
 197.333984375 234.001953125 197.833984375 222.501953125 198.16796875 217.501953125 c 0
 198.5 212.501953125 198.66796875 209.001953125 198.66796875 207.001953125 c 2
 198.66796875 177.001953125 l 1
 216.66796875 201.001953125 l 1
 299.333984375 323.001953125 373.66796875 448.668945312 439.66796875 578.001953125 c 2
 442.66796875 584.001953125 l 1
 438.66796875 589.001953125 l 2
 426.66796875 607.001953125 412.16796875 621.001953125 395.16796875 631.001953125 c 0
 378.16796875 641.001953125 359.333984375 646.001953125 338.66796875 646.001953125 c 0
 302.66796875 646.001953125 274.666015625 635.000976562 254.666015625 613.000976562 c 0
361.166015625 54.9990234375 m 0
 374.833007812 58.33203125 388 63.9990234375 400.66796875 71.9990234375 c 0
 426 88.666015625 445.66796875 119.666015625 459.66796875 164.999023438 c 0
 462.333984375 173.666015625 465.16796875 196.166015625 468.16796875 232.499023438 c 0
 471.16796875 268.83203125 473.333984375 310.33203125 474.66796875 356.999023438 c 0
 475.333984375 369.666015625 475.66796875 381.999023438 475.66796875 393.999023438 c 0
 475.66796875 427.999023438 474.333984375 460.666015625 471.66796875 491.999023438 c 2
 468.66796875 526.999023438 l 1
 452.66796875 494.999023438 l 1
 386.66796875 349.666015625 309.333984375 227.666015625 220.66796875 128.999023438 c 1
 216.66796875 123.999023438 l 1
 218.66796875 117.999023438 l 2
 230 93.33203125 245 75.33203125 263.66796875 63.9990234375 c 0
 278.333984375 54.666015625 295.66796875 49.9990234375 315.66796875 49.9990234375 c 0
 332.333984375 49.9990234375 347.5 51.666015625 361.166015625 54.9990234375 c 0
EndSplineSet
EndChar

StartChar: one
Encoding: 49 49 18
Width: 670
GlyphClass: 2
Flags: HMW
HStem: 1 64.9961<516.499 518.499 516.166 524.833> 520.999 21G
VStem: 302.498 70 313.498 61
LayerCount: 2
Fore
SplineSet
549.5 59 m 0xe0
 555.5 53 558.5 45 558.5 35 c 0
 558.5 25 555.66796875 16.8330078125 550 10.5 c 0
 544.333007812 4.1669921875 533.166015625 1 516.5 1 c 0
 293.166015625 3 169.166015625 4 144.5 4 c 0
 132.5 4 124 7.1669921875 119 13.5 c 0
 114 19.8330078125 111.5 28 111.5 38 c 2
 111.5 41 l 2
 111.5 50.3330078125 114 58.3330078125 119 65 c 0
 124 71.6669921875 132.83203125 75 145.5 75 c 0
 174.83203125 75 227.165039062 74.3330078125 302.498046875 73 c 1
 302.498046875 83 l 2xe0
 302.498046875 109 302.165039062 127.666992188 301.498046875 139 c 0
 300.83203125 150.333007812 300.498046875 160.666015625 300.498046875 169.999023438 c 0
 300.498046875 180.666015625 300.83203125 212.333007812 301.498046875 265 c 0
 301.498046875 278.333007812 302.998046875 328.666015625 305.998046875 415.999023438 c 0
 308.998046875 503.33203125 311.498046875 567.999023438 313.498046875 609.999023438 c 1
 297.498046875 595.999023438 l 2
 253.498046875 555.999023438 220.498046875 531.666015625 198.498046875 522.999023438 c 0
 195.165039062 521.666015625 192.165039062 520.999023438 189.498046875 520.999023438 c 0
 183.498046875 520.999023438 176.498046875 524.33203125 168.498046875 530.999023438 c 0
 157.83203125 540.33203125 152.498046875 549.33203125 152.498046875 557.999023438 c 2
 152.498046875 558.999023438 l 1
 152.498046875 559.999023438 l 2
 152.498046875 568.666015625 154.498046875 576.666015625 158.498046875 583.999023438 c 0
 162.498046875 591.33203125 169.83203125 598.999023438 180.498046875 606.999023438 c 0
 200.498046875 622.33203125 220.83203125 638.665039062 241.498046875 655.998046875 c 2
 283.498046875 693.998046875 l 2
 291.498046875 701.331054688 299.665039062 707.6640625 307.998046875 712.997070312 c 0
 316.33203125 718.330078125 323.1640625 720.997070312 328.497070312 720.997070312 c 0
 339.830078125 720.997070312 351.497070312 715.6640625 363.497070312 704.997070312 c 0
 370.1640625 698.997070312 374.83203125 693.6640625 377.498046875 688.997070312 c 0
 379.498046875 686.330078125 380.498046875 683.997070312 380.498046875 681.997070312 c 0
 379.83203125 665.997070312 377.83203125 611.330078125 374.498046875 517.997070312 c 0xd0
 371.165039062 424.6640625 369.498046875 369.997070312 369.498046875 353.997070312 c 0
 369.498046875 237.330078125 370.498046875 142.663085938 372.498046875 69.99609375 c 1
 415.83203125 68.6630859375 449.83203125 67.6630859375 474.498046875 66.99609375 c 0
 499.165039062 66.3291015625 513.83203125 65.99609375 518.5 65.99609375 c 0
 520.205078125 66.0703125 521.849609375 66.107421875 523.431640625 66.107421875 c 0
 536.0703125 66.107421875 544.76171875 63.7392578125 549.5 59 c 0xe0
EndSplineSet
EndChar

StartChar: two
Encoding: 50 50 19
Width: 670
GlyphClass: 2
Flags: HMW
HStem: -8 64.0029 -1.99512 68.998 647.002 64.998
VStem: 120.499 81.0029 454.5 80.002
LayerCount: 2
Fore
SplineSet
320.498046875 -8 m 0xb8
 291.166015625 -9.3330078125 261.498046875 -10 231.498046875 -10 c 0
 198.166015625 -9.3330078125 172.166015625 -8 153.498046875 -6 c 0
 147.498046875 -5.3330078125 142.498046875 -3.166015625 138.498046875 0.5009765625 c 0
 134.498046875 4.16796875 131.498046875 9.0009765625 129.498046875 15.0009765625 c 0
 123.498046875 30.333984375 120.498046875 52.5009765625 120.498046875 81.5009765625 c 0
 120.498046875 110.500976562 126.498046875 140.16796875 138.498046875 170.500976562 c 0
 150.498046875 200.833984375 168.331054688 230.000976562 191.998046875 258.000976562 c 0
 215.666015625 286.000976562 241.83203125 308.66796875 270.499023438 326.000976562 c 0
 335.83203125 366.66796875 377.83203125 395.000976562 396.499023438 411.000976562 c 0
 423.166015625 433.66796875 440.499023438 458.334960938 448.499023438 485.001953125 c 0
 452.499023438 499.668945312 454.499023438 517.668945312 454.499023438 539.001953125 c 0
 454.499023438 577.001953125 443.499023438 604.668945312 421.499023438 622.001953125 c 0
 401.499023438 638.668945312 373.499023438 647.001953125 337.499023438 647.001953125 c 0
 312.166015625 647.001953125 288.166015625 638.668945312 265.499023438 622.001953125 c 0
 242.83203125 605.334960938 224.499023438 586.66796875 210.499023438 566.000976562 c 0
 204.499023438 558.000976562 199.499023438 552.16796875 195.499023438 548.500976562 c 0
 191.499023438 544.833984375 187.499023438 542.666992188 183.499023438 542 c 2
 177.999023438 542 l 2
 175.666015625 542 172.833984375 542.333007812 169.5 543 c 0
 166.166992188 543.666992188 160.833984375 545.666992188 153.501953125 549 c 0
 144.833984375 553.666992188 139.501953125 560 137.500976562 568 c 2
 137.500976562 575 l 2
 137.434570312 575.799804688 137.401367188 576.623046875 137.401367188 577.469726562 c 0
 137.401367188 585.08984375 140.1015625 594.599609375 145.501953125 606 c 0
 151.501953125 617.333007812 160.833984375 629.166015625 173.501953125 641.499023438 c 0
 186.16796875 653.83203125 200.834960938 665.33203125 217.501953125 675.999023438 c 0
 234.169921875 686.666015625 252.501953125 695.333007812 272.501953125 702 c 0
 292.501953125 708.666992188 312.834960938 712 333.501953125 712 c 0
 396.834960938 712 446.16796875 696.333007812 481.501953125 665 c 0
 516.833984375 633.666992188 534.501953125 586 534.501953125 522 c 0
 534.501953125 469.333007812 521.16796875 427 494.501953125 395 c 0
 473.833984375 371.666992188 438.833984375 345.333984375 389.501953125 316.000976562 c 0
 374.16796875 306.000976562 353.501953125 293.333984375 327.501953125 278.000976562 c 0
 300.16796875 262.66796875 277.501953125 243.334960938 259.501953125 220.001953125 c 0
 240.833984375 196.668945312 227.001953125 172.8359375 218.001953125 148.502929688 c 0
 209.001953125 124.169921875 203.501953125 98.0029296875 201.501953125 70.0029296875 c 2
 201.501953125 60.0029296875 l 1
 246.833984375 57.3359375 287.501953125 56.0029296875 323.501953125 56.0029296875 c 0xb8
 349.501953125 56.0029296875 370.833984375 56.669921875 387.501953125 58.0029296875 c 0
 404.16796875 59.3359375 426.16796875 61.0029296875 453.501953125 63.0029296875 c 0
 482.16796875 65.0029296875 500.501953125 66.3359375 508.501953125 67.0029296875 c 2
 518.501953125 67.0029296875 l 2
 521.61328125 67.2255859375 524.318359375 67.3369140625 526.615234375 67.3369140625 c 0
 531.206054688 67.3369140625 534.16796875 66.892578125 535.501953125 66.00390625 c 0
 537.501953125 65.3369140625 539.833984375 64.00390625 542.501953125 62.00390625 c 0
 544.501953125 60.6708984375 545.833984375 59.337890625 546.501953125 58.0048828125 c 0
 548.501953125 54.0048828125 549.501953125 48.337890625 549.501953125 41.0048828125 c 0
 549.501953125 26.337890625 545.833984375 14.337890625 538.501953125 5.0048828125 c 0
 535.16796875 0.337890625 530.834960938 -1.9951171875 525.501953125 -1.9951171875 c 0x78
 477.501953125 -1.9951171875 409.166015625 -4 320.498046875 -8 c 0xb8
EndSplineSet
EndChar

StartChar: three
Encoding: 51 51 20
Width: 670
GlyphClass: 2
Flags: HMW
HStem: -14.998 64.998 328.002 81.002 647.004 65.001
VStem: 440.499 81 463.498 80.002
LayerCount: 2
Fore
SplineSet
520.501953125 532 m 0xf0
 521.168945312 530.666992188 521.499023438 529.333984375 521.499023438 528.000976562 c 0xf0
 521.499023438 511.333984375 519.001953125 495.833984375 514.001953125 481.500976562 c 0
 509.001953125 467.16796875 502.501953125 455.16796875 494.501953125 445.500976562 c 0
 486.501953125 435.833984375 476.668945312 427.000976562 465.001953125 419.000976562 c 0
 453.334960938 411.000976562 441.16796875 404.66796875 428.500976562 400.000976562 c 0
 417.16796875 395.333984375 405.16796875 391.666992188 392.500976562 389 c 2
 350.500976562 380 l 1
 392.500976562 370 l 2
 416.500976562 364.666992188 437.66796875 357.833984375 456.000976562 349.500976562 c 0
 474.333984375 341.16796875 490.166992188 330.500976562 503.5 317.500976562 c 0
 516.833007812 304.500976562 526.833007812 288.333984375 533.5 269.000976562 c 0
 540.166992188 249.66796875 543.5 226.334960938 543.5 199.001953125 c 0
 543.5 133.668945312 523.166992188 81.6689453125 482.5 43.001953125 c 0
 442.5 4.3349609375 389.5 -14.998046875 323.5 -14.998046875 c 0
 303.5 -14.998046875 283.5 -11.6650390625 263.5 -4.998046875 c 0
 242.166992188 2.3349609375 223 11.16796875 206 21.5009765625 c 0
 189 31.833984375 174.333007812 43.1669921875 162 55.5 c 0
 149.666992188 67.8330078125 140.5 80 134.5 92 c 0
 129.166992188 102 126.5 111.333007812 126.5 120 c 0
 126.5 122.666992188 126.833007812 125.333984375 127.5 128.000976562 c 0
 129.5 137.333984375 134.5 144.000976562 142.5 148.000976562 c 0
 149.833007812 152.000976562 156.833007812 154.000976562 163.5 154.000976562 c 0
 166.166992188 154.000976562 168.833984375 153.66796875 171.500976562 153.000976562 c 0
 180.833984375 150.333984375 190.166992188 143.000976562 199.5 131.000976562 c 0
 214.833007812 110.333984375 234.166015625 91.6669921875 257.499023438 75 c 0
 278.83203125 58.3330078125 302.165039062 50 327.498046875 50 c 0
 365.498046875 50 396.831054688 62.3330078125 421.498046875 87 c 0
 449.498046875 111.666992188 463.498046875 143.333984375 463.498046875 182.000976562 c 0xe8
 463.498046875 204.66796875 459.831054688 224.834960938 452.498046875 242.501953125 c 0
 445.165039062 260.168945312 433.83203125 275.668945312 418.499023438 289.001953125 c 0
 390.499023438 315.001953125 343.499023438 328.001953125 277.499023438 328.001953125 c 0
 267.499023438 328.001953125 258.83203125 332.334960938 251.499023438 341.001953125 c 0
 244.166015625 349.668945312 240.499023438 359.8359375 240.499023438 371.502929688 c 0
 240.499023438 383.169921875 243.166015625 392.336914062 248.499023438 399.00390625 c 0
 253.166015625 405.670898438 260.499023438 409.00390625 270.499023438 409.00390625 c 0
 322.499023438 409.00390625 363.499023438 420.670898438 393.499023438 444.00390625 c 0
 424.83203125 467.336914062 440.499023438 501.00390625 440.499023438 545.00390625 c 2
 440.499023438 549.00390625 l 1
 440.499023438 553.00390625 l 2
 440.518554688 553.899414062 440.528320312 554.7890625 440.528320312 555.671875 c 0
 440.528320312 585.68359375 429.518554688 608.4609375 407.499023438 624.00390625 c 0
 386.166015625 639.336914062 356.166015625 647.00390625 317.499023438 647.00390625 c 0
 304.83203125 647.00390625 291.499023438 644.670898438 277.499023438 640.00390625 c 0
 272.83203125 638.00390625 267.83203125 634.670898438 262.499023438 630.00390625 c 0
 257.166015625 625.336914062 252.833007812 621.669921875 249.5 619.002929688 c 0
 246.166992188 616.3359375 242 611.8359375 237 605.502929688 c 0
 232 599.169921875 228.5 594.836914062 226.5 592.50390625 c 0
 224.5 590.170898438 221.166992188 585.337890625 216.5 578.004882812 c 0
 207.166992188 565.337890625 198.166992188 558.004882812 189.5 556.004882812 c 0
 186.833007812 555.337890625 184.166015625 555.004882812 181.499023438 555.004882812 c 0
 174.83203125 555.004882812 167.499023438 557.004882812 159.499023438 561.004882812 c 0
 151.499023438 565.004882812 146.499023438 571.671875 144.499023438 581.004882812 c 0
 143.83203125 583.004882812 143.499023438 585.337890625 143.499023438 588.004882812 c 0
 143.499023438 596.671875 146.166015625 606.338867188 151.499023438 617.005859375 c 0
 164.166015625 642.338867188 183.499023438 664.005859375 209.499023438 682.005859375 c 0
 222.83203125 691.338867188 238.83203125 698.671875 257.499023438 704.004882812 c 0
 274.83203125 709.337890625 293.499023438 712.004882812 313.499023438 712.004882812 c 0
 452.166015625 712.004882812 521.499023438 653.337890625 521.499023438 536.004882812 c 0
 520.83203125 534.671875 520.501953125 533.333007812 520.501953125 532 c 0xf0
EndSplineSet
EndChar

StartChar: four
Encoding: 52 52 21
Width: 670
GlyphClass: 2
Flags: HMW
HStem: -13.998 21G 234 61.002 696.001 20G
VStem: 404.502 65.499 411.5 67.001 411.5 75.001
LayerCount: 2
Fore
SplineSet
426.5 -1 m 0xf0
 417.166992188 7 412.166992188 14.6669921875 411.5 22 c 2
 411.5 60 l 1xe4
 411.5 233 l 1xe8
 390.166992188 233.666992188 372.5 234 358.5 234 c 0
 270.5 233.333007812 205.83203125 228.666015625 164.5 219.999023438 c 0
 160.5 219.33203125 156.5 218.999023438 152.5 218.999023438 c 0
 148.5 218.999023438 144.5 219.666015625 140.5 220.999023438 c 0
 134.5 223.666015625 129.5 227.333007812 125.5 232 c 0
 116.166992188 244 111.5 258.333007812 111.5 275 c 0
 111.5 283 112.833007812 291 115.5 299 c 0
 122.166992188 317.666992188 139.833984375 347.833984375 168.5 389.500976562 c 0
 197.16796875 431.16796875 233.16796875 483.000976562 276.5 545.000976562 c 0
 319.16796875 607.000976562 349.5 652.333984375 367.5 681.000976562 c 0
 374.833984375 692.333984375 382.833984375 700.833984375 391.5 706.500976562 c 0
 400.16796875 712.16796875 408.16796875 715.000976562 415.5 715.000976562 c 0
 417.5 715.66796875 419.5 716.000976562 421.5 716.000976562 c 0
 429.5 716.000976562 437.5 713.66796875 445.5 709.000976562 c 0
 453.5 704.333984375 458.5 696.333984375 460.5 685.000976562 c 0
 464.5 662.333984375 467.66796875 626.833984375 470 578.500976562 c 0xf0
 472.333984375 530.16796875 473.833984375 489.334960938 474.5 456.001953125 c 2
 477.5 294.001953125 l 1
 494.833984375 292.668945312 510.333984375 292.001953125 524 292.001953125 c 0
 537.66796875 292.001953125 546.66796875 289.501953125 551 284.501953125 c 0
 555.333984375 279.501953125 557.833984375 272.668945312 558.5 264.001953125 c 0
 558.5 253.334960938 556.5 245.334960938 552.5 240.001953125 c 0
 547.16796875 233.334960938 538 230.001953125 525 230.001953125 c 0
 512 230.001953125 496.5 230.668945312 478.5 232.001953125 c 1xe8
 479.16796875 126.668945312 481.16796875 67.001953125 484.5 53.001953125 c 0
 485.833984375 45.6689453125 486.5 39.001953125 486.5 33.001953125 c 0xe4
 487.16796875 22.3349609375 485.16796875 12.66796875 480.5 4.0009765625 c 0
 477.833984375 -1.33203125 474.333984375 -5.6650390625 470 -8.998046875 c 0
 465.66796875 -12.3310546875 460.5 -13.998046875 454.5 -13.998046875 c 0
 445.16796875 -13.3310546875 435.83203125 -9 426.5 -1 c 0xf0
404.501953125 603.001953125 m 2xf0
 403.501953125 629.001953125 l 1
 388.501953125 608.001953125 l 2
 297.834960938 478.001953125 235.501953125 377.001953125 201.501953125 305.001953125 c 2
 194.501953125 290.001953125 l 1
 210.501953125 291.001953125 l 2
 245.834960938 293.668945312 288.501953125 295.001953125 338.501953125 295.001953125 c 0
 358.501953125 295.001953125 382.834960938 294.668945312 411.501953125 294.001953125 c 1
 411.501953125 304.001953125 l 2
 411.501953125 429.334960938 409.16796875 529.001953125 404.501953125 603.001953125 c 2xf0
EndSplineSet
EndChar

StartChar: five
Encoding: 53 53 22
Width: 670
GlyphClass: 2
Flags: HMW
HStem: -7.99902 64.999 430 69.9971 628.997 69.002 639.996 60.0029
VStem: 126.501 73.999 134.501 67.999 473.5 80
LayerCount: 2
Fore
SplineSet
535.500976562 166 m 0xd6
 523.500976562 127.333007812 506.66796875 95.3330078125 485.000976562 70 c 0
 463.333984375 44.6669921875 438.500976562 25.333984375 410.500976562 12.0009765625 c 0
 383.16796875 -1.33203125 353.16796875 -7.9990234375 320.500976562 -7.9990234375 c 0
 295.16796875 -7.9990234375 271.500976562 -4.9990234375 249.500976562 1.0009765625 c 0
 226.16796875 7.0009765625 206.500976562 14.833984375 190.500976562 24.5009765625 c 0
 174.500976562 34.16796875 161.16796875 44.66796875 150.500976562 56.0009765625 c 0
 139.833984375 67.333984375 131.166992188 79.0009765625 124.5 91.0009765625 c 0
 119.166992188 103.66796875 116.5 114.000976562 116.5 122.000976562 c 0
 116.5 133.333984375 122.166992188 141.666992188 133.5 147 c 0
 144.833007812 152.333007812 152.833007812 155 157.5 155 c 0
 159.5 154.333007812 161.166992188 154 162.5 154 c 0
 166.5 154 170.5 152 174.5 148 c 0
 178.5 144 183.5 138 189.5 130 c 0
 222.166992188 81.3330078125 263.166992188 57 312.5 57 c 0
 360.5 57 398.833007812 78 427.5 120 c 0
 458.166992188 161.333007812 473.5 216.333007812 473.5 285 c 0
 473.5 328.333007812 463.5 363 443.5 389 c 0
 424.166992188 416.333007812 395.833984375 430 358.500976562 430 c 0
 342.500976562 430 325.833984375 428 308.500976562 424 c 0
 299.16796875 421.333007812 286.834960938 415.666015625 271.501953125 406.999023438 c 0
 267.501953125 404.999023438 262.334960938 401.166015625 256.001953125 395.499023438 c 0
 249.668945312 389.83203125 245.501953125 385.999023438 243.501953125 383.999023438 c 0
 233.501953125 374.666015625 225.168945312 366.666015625 218.501953125 359.999023438 c 0
 207.834960938 350.666015625 194.834960938 345.333007812 179.501953125 344 c 2
 175.501953125 344 l 2
 168.834960938 344 162.501953125 345.333007812 156.501953125 348 c 0
 147.834960938 351.333007812 141.16796875 359.666015625 136.500976562 372.999023438 c 0
 131.16796875 388.33203125 128.16796875 407.33203125 127.500976562 429.999023438 c 0
 126.833984375 440.666015625 126.500976562 450.999023438 126.500976562 460.999023438 c 0xda
 126.500976562 485.666015625 128.16796875 520.666015625 131.500976562 565.999023438 c 0
 133.500976562 590.666015625 134.500976562 607.999023438 134.500976562 617.999023438 c 2
 134.500976562 620.999023438 l 1
 132.500976562 622.999023438 l 2
 126.500976562 632.999023438 123.500976562 644.999023438 123.500976562 658.999023438 c 0
 123.500976562 674.33203125 127.833984375 686.33203125 136.500976562 694.999023438 c 0
 141.833984375 700.33203125 147.833984375 702.999023438 154.500976562 702.999023438 c 0
 179.16796875 702.33203125 234.500976562 701.33203125 320.500976562 699.999023438 c 0xd6
 405.16796875 698.666015625 471.500976562 697.999023438 519.500976562 697.999023438 c 0
 524.16796875 697.999023438 528.500976562 695.666015625 532.500976562 690.999023438 c 0
 537.16796875 684.999023438 540.16796875 677.83203125 541.500976562 669.499023438 c 0
 542.833984375 661.166015625 543.166992188 653.666015625 542.5 646.999023438 c 0
 541.833007812 640.33203125 540 636.165039062 537 634.498046875 c 0
 534 632.831054688 531.666992188 631.6640625 530 630.997070312 c 0
 528.333007812 630.330078125 525.5 629.830078125 521.5 629.497070312 c 0
 517.5 629.1640625 514.666992188 628.997070312 513 628.997070312 c 0xe6
 511.333007812 628.997070312 507.666015625 629.1640625 501.999023438 629.497070312 c 0
 496.33203125 629.830078125 490.999023438 630.163085938 485.999023438 630.49609375 c 0
 480.999023438 630.829101562 466.499023438 631.99609375 442.499023438 633.99609375 c 0
 420.499023438 635.99609375 400.83203125 637.49609375 383.499023438 638.49609375 c 0
 366.166015625 639.49609375 342.333007812 639.99609375 312 639.99609375 c 0
 281.666992188 639.99609375 246.166992188 638.663085938 205.5 635.99609375 c 1
 204.833007812 623.329101562 203.833007812 600.99609375 202.5 568.99609375 c 0xd6
 201.166992188 536.99609375 200.5 516.663085938 200.5 507.99609375 c 0xda
 200.5 499.329101562 200.666992188 490.829101562 201 482.49609375 c 0
 201.333007812 474.163085938 201.833007812 451.330078125 202.5 413.997070312 c 1
 218.5 431.997070312 l 2
 235.833007812 451.330078125 258.333007812 467.497070312 286 480.497070312 c 0
 313.666992188 493.497070312 345.5 499.997070312 381.5 499.997070312 c 0
 407.5 499.997070312 431.166992188 494.6640625 452.5 483.997070312 c 0
 475.166992188 473.330078125 493.666992188 458.997070312 508 440.997070312 c 0
 522.333007812 422.997070312 533.5 401.497070312 541.5 376.497070312 c 0
 549.5 351.497070312 553.5 324.6640625 553.5 295.997070312 c 0
 553.5 247.997070312 547.500976562 204.666992188 535.500976562 166 c 0xd6
EndSplineSet
EndChar

StartChar: six
Encoding: 54 54 23
Width: 670
GlyphClass: 2
Flags: HMW
HStem: -13 64.998 401.999 69.999
VStem: 114.499 69.999 477.499 78.002
LayerCount: 2
Fore
SplineSet
537.498046875 144 m 0
 525.498046875 112 509.331054688 84.5 488.998046875 61.5 c 0
 468.666015625 38.5 444.83203125 20.3330078125 417.499023438 7 c 0
 391.499023438 -6.3330078125 364.166015625 -13 335.499023438 -13 c 0
 299.499023438 -13 268.166015625 -5.3330078125 241.499023438 10 c 0
 212.166015625 25.3330078125 188.166015625 47.166015625 169.499023438 75.4990234375 c 0
 150.83203125 103.83203125 137 137.499023438 128 176.499023438 c 0
 119 215.499023438 114.5 258.666015625 114.5 305.999023438 c 0
 114.5 365.999023438 120.166015625 419.999023438 131.5 467.999023438 c 0
 142.166015625 512.666015625 156.666015625 550.333007812 174.999023438 581 c 0
 193.33203125 611.666992188 215.83203125 637.333984375 242.499023438 658.000976562 c 0
 267.166015625 679.333984375 293.833984375 695.333984375 322.5 706.000976562 c 0
 351.166992188 716.66796875 383.166992188 723.66796875 418.5 727.000976562 c 2
 424.5 727.000976562 l 2
 434.5 727.000976562 443.5 725.000976562 451.5 721.000976562 c 0
 459.5 717.000976562 464.166992188 710.333984375 465.5 701.000976562 c 2
 465.5 700.000976562 l 2
 465.5 695.333984375 462.5 689.666992188 456.5 683 c 0
 449.166992188 674.333007812 441.166992188 668.666015625 432.5 665.999023438 c 0
 425.833984375 663.999023438 415.5 661.499023438 401.5 658.499023438 c 0
 387.5 655.499023438 375.5 652.33203125 365.5 648.999023438 c 0
 355.5 645.666015625 343.833984375 640.999023438 330.5 634.999023438 c 0
 303.833984375 622.33203125 276.833984375 598.999023438 249.5 564.999023438 c 0
 234.833984375 546.33203125 221.166015625 521.665039062 208.499023438 490.998046875 c 0
 195.83203125 460.331054688 187.83203125 432.998046875 184.499023438 408.998046875 c 2
 180.499023438 375.998046875 l 1
 201.499023438 400.998046875 l 2
 221.499023438 424.331054688 246.166015625 441.998046875 275.499023438 453.998046875 c 0
 304.166015625 465.998046875 336.499023438 471.998046875 372.499023438 471.998046875 c 0
 399.166015625 471.331054688 423.166015625 466.998046875 444.499023438 458.998046875 c 0
 467.166015625 450.998046875 486.833984375 438.165039062 503.5 420.498046875 c 0
 520.166992188 402.831054688 533 379.498046875 542 350.498046875 c 0
 551 321.498046875 555.5 286.665039062 555.5 245.998046875 c 0
 555.5 209.998046875 549.498046875 176 537.498046875 144 c 0
186.5 228.998046875 m 0
 189.166992188 196.331054688 199.166992188 164.998046875 216.5 134.998046875 c 0
 225.166992188 118.998046875 235.166992188 104.998046875 246.5 92.998046875 c 0
 257.166992188 80.3310546875 270.166992188 70.3310546875 285.5 62.998046875 c 0
 300.833984375 55.6650390625 317.166015625 51.998046875 334.499023438 51.998046875 c 2
 336.499023438 51.998046875 l 2
 361.166015625 51.998046875 384.166015625 61.3310546875 405.499023438 79.998046875 c 0
 426.83203125 97.998046875 444.166015625 120.998046875 457.498046875 148.998046875 c 0
 470.831054688 176.998046875 477.498046875 205.331054688 477.498046875 233.998046875 c 0
 477.498046875 266.665039062 474.498046875 294.165039062 468.498046875 316.498046875 c 0
 462.498046875 338.831054688 453.166015625 356.331054688 440.498046875 368.998046875 c 0
 428.498046875 381.665039062 415.166015625 390.33203125 400.498046875 394.999023438 c 0
 385.831054688 399.666015625 368.498046875 401.999023438 348.498046875 401.999023438 c 0
 316.498046875 401.999023438 286.498046875 392.999023438 258.498046875 374.999023438 c 0
 229.831054688 356.999023438 205.831054688 333.999023438 186.498046875 305.999023438 c 1
 184.498046875 303.999023438 l 1
 184.498046875 300.999023438 l 2
 184.498046875 269.666015625 185.166992188 245.665039062 186.5 228.998046875 c 0
EndSplineSet
EndChar

StartChar: seven
Encoding: 55 55 24
Width: 670
GlyphClass: 2
Flags: HMW
HStem: -14 21G<182.168 187.502> 632.8 71.2011
LayerCount: 2
Fore
SplineSet
531.999023438 693.5 m 0
 537.666015625 691.166992188 542.833007812 687.333984375 547.5 682.000976562 c 0
 552.166992188 676.66796875 554.5 669.66796875 554.5 661.000976562 c 0
 554.5 652.333984375 551.833007812 641.666992188 546.5 629 c 0
 537.166992188 609 520.333984375 579 496.000976562 539 c 0
 471.66796875 499 446.834960938 457.666992188 421.501953125 415 c 0
 397.501953125 373 368.168945312 316.833007812 333.501953125 246.5 c 0
 298.834960938 176.166992188 266.16796875 104 235.500976562 30 c 0
 228.16796875 14 218.834960938 2.3330078125 207.501953125 -5 c 0
 199.501953125 -11 191.501953125 -14 183.501953125 -14 c 0
 180.834960938 -14 178.501953125 -13.6669921875 176.501953125 -13 c 0
 165.834960938 -10.3330078125 158.16796875 -3.8330078125 153.500976562 6.5 c 0
 151.458984375 11.0205078125 150.438476562 15.701171875 150.438476562 20.541015625 c 0
 150.438476562 26.763671875 152.125976562 33.25 155.500976562 40 c 0
 190.16796875 108 225.834960938 176 262.501953125 244 c 0
 297.834960938 312 327.001953125 366.166992188 350.001953125 406.5 c 0
 373.001953125 446.833007812 394.501953125 486.333007812 414.501953125 525 c 0
 435.168945312 563 449.501953125 594 457.501953125 618 c 2
 461.501953125 631 l 1
 424.302734375 632.200195312 387.463867188 632.799804688 350.984375 632.799804688 c 0
 326.6640625 632.799804688 302.502929688 632.533203125 278.501953125 632 c 0
 214.501953125 630 172.168945312 626.333007812 151.501953125 621 c 0
 149.501953125 620.333007812 147.168945312 620 144.501953125 620 c 0
 141.834960938 620 139.16796875 620.666992188 136.500976562 622 c 0
 131.833984375 623.333007812 128.166992188 626 125.5 630 c 0
 119.5 638.666992188 116.166992188 648.666992188 115.5 660 c 0
 115.5 669.333007812 117.666992188 676.833007812 122 682.5 c 0
 126.333007812 688.166992188 135.5 692.333984375 149.5 695.000976562 c 0
 184.833007812 701.000976562 240.833007812 704.000976562 317.5 704.000976562 c 0
 341.5 704.000976562 388.5 702.333984375 458.5 699.000976562 c 0
 493.833007812 697.66796875 512.833007812 697.000976562 515.5 697.000976562 c 0
 520.833007812 697.000976562 526.33203125 695.833007812 531.999023438 693.5 c 0
EndSplineSet
EndChar

StartChar: eight
Encoding: 56 56 25
Width: 670
GlyphClass: 2
Flags: HMW
HStem: -17.999 66.001 656.002 52.001
VStem: 108.5 66.9971 135.501 73.9971 447.5 70 487.498 74.002
LayerCount: 2
Fore
SplineSet
553.498046875 142.5 m 0xc4
 548.165039062 122.166992188 538.998046875 102.333984375 525.998046875 83.0009765625 c 0
 512.998046875 63.66796875 497.331054688 46.66796875 478.998046875 32.0009765625 c 0
 460.665039062 17.333984375 437.83203125 5.333984375 410.499023438 -3.9990234375 c 0
 384.499023438 -13.33203125 355.83203125 -17.9990234375 324.499023438 -17.9990234375 c 0
 293.166015625 -17.9990234375 265.499023438 -13.666015625 241.499023438 -4.9990234375 c 0
 216.166015625 3.66796875 195.499023438 15.0009765625 179.499023438 29.0009765625 c 0
 163.499023438 43.0009765625 149.83203125 59.5009765625 138.499023438 78.5009765625 c 0
 127.166015625 97.5009765625 119.333007812 116.66796875 115 136.000976562 c 0
 110.666992188 155.333984375 108.5 175.500976562 108.5 196.500976562 c 0xe4
 108.5 217.500976562 114 240.333984375 125 265.000976562 c 0
 136 289.66796875 151.833007812 312.66796875 172.5 334.000976562 c 0
 193.166992188 355.333984375 215.5 370.000976562 239.5 378.000976562 c 2
 261.5 386.000976562 l 1
 240.5 396.000976562 l 2
 207.166992188 412.000976562 181.333984375 432.66796875 163.000976562 458.000976562 c 0
 144.66796875 483.333984375 135.500976562 509.000976562 135.500976562 535.000976562 c 0
 135.500976562 542.333984375 136.000976562 550.333984375 137.000976562 559.000976562 c 0
 138.000976562 567.66796875 140.500976562 577.834960938 144.500976562 589.501953125 c 0
 148.500976562 601.168945312 153.333984375 612.3359375 159.000976562 623.002929688 c 0
 164.66796875 633.669921875 172.66796875 644.169921875 183.000976562 654.502929688 c 0
 193.333984375 664.8359375 205.166992188 674.002929688 218.5 682.002929688 c 0
 231.166992188 689.3359375 246.666992188 695.502929688 265 700.502929688 c 0
 283.333007812 705.502929688 303.833007812 708.002929688 326.5 708.002929688 c 0
 349.166992188 708.002929688 369.666992188 705.669921875 388 701.002929688 c 0
 406.333007812 696.3359375 421.833007812 690.002929688 434.5 682.002929688 c 0
 447.833007812 674.002929688 459.666015625 664.8359375 469.999023438 654.502929688 c 0
 480.33203125 644.169921875 488.33203125 633.669921875 493.999023438 623.002929688 c 0
 499.666015625 612.3359375 504.333007812 601.002929688 508 589.002929688 c 0
 511.666992188 577.002929688 514.166992188 566.502929688 515.5 557.502929688 c 0
 516.833007812 548.502929688 517.5 540.002929688 517.5 532.002929688 c 0xd8
 517.5 524.002929688 516.5 516.502929688 514.5 509.502929688 c 0
 512.5 502.502929688 510.166992188 496.169921875 507.5 490.502929688 c 0
 504.833007812 484.8359375 501 479.002929688 496 473.002929688 c 0
 491 467.002929688 486.166992188 461.669921875 481.5 457.002929688 c 0
 473.5 448.3359375 459.833007812 437.3359375 440.5 424.002929688 c 0
 432.5 418.002929688 419.5 408.3359375 401.5 395.002929688 c 1
 416.5 388.002929688 l 2
 439.166992188 378.002929688 459.5 366.502929688 477.5 353.502929688 c 0
 495.5 340.502929688 509.666992188 327.669921875 520 315.002929688 c 0
 530.333007812 302.3359375 538.833007812 289.168945312 545.5 275.501953125 c 0
 552.166992188 261.834960938 556.5 249.501953125 558.5 238.501953125 c 0
 560.5 227.501953125 561.5 216.001953125 561.5 204.001953125 c 0
 561.5 183.334960938 558.831054688 162.833007812 553.498046875 142.5 c 0xc4
242.5 472.001953125 m 0
 261.833007812 454.001953125 293.5 436.334960938 337.5 419.001953125 c 1
 340.5 417.001953125 l 1
 344.5 419.001953125 l 2
 370.5 430.334960938 393.833007812 446.334960938 414.5 467.001953125 c 0
 436.5 488.334960938 447.5 509.001953125 447.5 529.001953125 c 0
 447.5 549.001953125 442.166992188 568.668945312 431.5 588.001953125 c 0
 420.833007812 607.334960938 406.166015625 623.501953125 387.499023438 636.501953125 c 0
 368.83203125 649.501953125 348.83203125 656.001953125 327.499023438 656.001953125 c 2
 325.499023438 656.001953125 l 2
 294.83203125 655.334960938 268.165039062 643.001953125 245.498046875 619.001953125 c 0
 221.498046875 595.001953125 209.498046875 568.001953125 209.498046875 538.001953125 c 0xd8
 209.498046875 513.334960938 220.5 491.334960938 242.5 472.001953125 c 0
199.498046875 113.501953125 m 0
 215.498046875 91.8349609375 234.831054688 75.3349609375 257.498046875 64.001953125 c 0
 279.498046875 53.3349609375 303.165039062 48.001953125 328.498046875 48.001953125 c 0
 346.498046875 48.001953125 364.498046875 51.001953125 382.498046875 57.001953125 c 0
 400.498046875 63.001953125 417.165039062 71.6689453125 432.498046875 83.001953125 c 0
 448.498046875 95.001953125 461.665039062 110.168945312 471.998046875 128.501953125 c 0
 482.331054688 146.834960938 487.498046875 166.66796875 487.498046875 188.000976562 c 0
 487.498046875 200.000976562 486.665039062 211.16796875 484.998046875 221.500976562 c 0
 483.331054688 231.833984375 479.1640625 243.666992188 472.497070312 257 c 0
 465.830078125 270.333007812 456.830078125 282.666015625 445.497070312 293.999023438 c 0
 434.830078125 305.33203125 420.663085938 316.83203125 402.99609375 328.499023438 c 0
 385.329101562 340.166015625 363.49609375 351.333007812 337.49609375 362 c 1
 334.49609375 361 l 2
 289.163085938 347.666992188 251.830078125 324.666992188 222.497070312 292 c 0
 191.1640625 259.333007812 175.497070312 224 175.497070312 186 c 0xe4
 175.497070312 159.333007812 183.498046875 135.168945312 199.498046875 113.501953125 c 0
EndSplineSet
EndChar

StartChar: nine
Encoding: 57 57 26
Width: 670
GlyphClass: 2
Flags: HMW
HStem: -13 21G<217.501 222.501 222.501 230.501> 244.999 69 664.999 64.002
VStem: 114.5 78<464 497> 486.499 69.001
LayerCount: 2
Fore
SplineSet
536.5 238 m 0
 524.5 196 508.166992188 160.333007812 487.5 131 c 0
 466.833007812 101.666992188 442.5 76.6669921875 414.5 56 c 0
 387.833007812 35.3330078125 359.333007812 19.5 329 8.5 c 0
 298.666992188 -2.5 265.833984375 -9.6669921875 230.500976562 -13 c 2
 222.500976562 -13 l 2
 212.500976562 -13 203.333984375 -10.8330078125 195.000976562 -6.5 c 0
 186.66796875 -2.1669921875 181.834960938 4.3330078125 180.501953125 13 c 2
 180.501953125 14 l 2
 180.501953125 19.3330078125 183.501953125 25.3330078125 189.501953125 32 c 0
 196.834960938 40 205.16796875 45.3330078125 214.500976562 48 c 0
 221.833984375 50.6669921875 233.166992188 53.6669921875 248.5 57 c 0
 263.833007812 60.3330078125 277.5 63.666015625 289.5 66.9990234375 c 0
 301.5 70.33203125 315.166992188 75.1650390625 330.5 81.498046875 c 0
 345.833007812 87.8310546875 360.666015625 96.498046875 374.999023438 107.498046875 c 0
 389.33203125 118.498046875 402.83203125 131.665039062 415.499023438 146.998046875 c 0
 431.499023438 167.665039062 446.166015625 190.998046875 459.499023438 216.998046875 c 0
 472.83203125 242.998046875 481.83203125 266.998046875 486.499023438 288.998046875 c 2
 493.499023438 324.998046875 l 1
 469.499023438 296.998046875 l 2
 452.166015625 277.665039062 430.833007812 264.33203125 405.5 256.999023438 c 0
 380.833007812 248.999023438 349.166015625 244.999023438 310.499023438 244.999023438 c 0
 285.166015625 244.999023438 260.833007812 251.666015625 237.5 264.999023438 c 0
 212.833007812 277.666015625 191.5 294.833007812 173.5 316.5 c 0
 155.5 338.166992188 141.166992188 363.166992188 130.5 391.5 c 0
 119.833007812 419.833007812 114.5 449 114.5 479 c 0
 114.5 515 120.5 548.666992188 132.5 580 c 0
 144.5 611.333007812 160.5 637.833007812 180.5 659.5 c 0
 200.5 681.166992188 224.166992188 698.333984375 251.5 711.000976562 c 0
 277.5 723.000976562 305.166992188 729.000976562 334.5 729.000976562 c 0
 405.833007812 729.000976562 460.5 699.66796875 498.5 641.000976562 c 0
 536.5 582.333984375 555.5 498.666992188 555.5 390 c 0
 555.5 333.333007812 549.166992188 282.666992188 536.5 238 c 0
230.5 359.999023438 m 0
 253.833007812 329.33203125 288.166015625 313.999023438 333.499023438 313.999023438 c 0
 361.499023438 313.999023438 388.83203125 320.999023438 415.499023438 334.999023438 c 0
 444.166015625 348.999023438 467.166015625 368.33203125 484.499023438 392.999023438 c 2
 486.499023438 395.999023438 l 1
 486.499023438 411.999023438 l 2
 486.499023438 430.666015625 485.499023438 455.666015625 483.499023438 486.999023438 c 2
 483.499023438 487.999023438 l 2
 480.166015625 520.666015625 470.166015625 551.999023438 453.499023438 581.999023438 c 0
 444.83203125 597.999023438 434.83203125 611.999023438 423.499023438 623.999023438 c 0
 412.83203125 635.999023438 399.83203125 645.83203125 384.499023438 653.499023438 c 0
 369.166015625 661.166015625 352.833007812 664.999023438 335.5 664.999023438 c 2
 333.5 664.999023438 l 2
 309.5 664.33203125 286.833007812 655.665039062 265.5 638.998046875 c 0
 244.166992188 622.331054688 226.666992188 600.6640625 213 573.997070312 c 0
 199.333007812 547.330078125 192.5 519.663085938 192.5 490.99609375 c 0
 192.5 434.329101562 205.166992188 390.666015625 230.5 359.999023438 c 0
EndSplineSet
EndChar

StartChar: colon
Encoding: 58 58 27
Width: 670
GlyphClass: 2
Flags: HMW
HStem: 49.001 136.124 317 135.143
VStem: 280.748 110.001
LayerCount: 2
Fore
SplineSet
338.750976562 317 m 2
 335.750976562 317 l 2
 319.750976562 317.666992188 307.083984375 320.666992188 297.750976562 326 c 0
 287.750976562 332 282.083984375 341.333007812 280.750976562 354 c 0
 280.083984375 365.333007812 279.750976562 377 279.750976562 389 c 0
 279.416992188 394.666015625 279.250976562 400.249023438 279.250976562 405.749023438 c 0
 279.250976562 411.249023438 279.416992188 416.666015625 279.750976562 422 c 0
 280.418945312 428.666992188 282.418945312 434 285.750976562 438 c 0
 289.083984375 442 293.416992188 445 298.750976562 447 c 0
 309.036132812 450.428710938 319.810546875 452.143554688 331.075195312 452.143554688 c 0
 332.954101562 452.143554688 334.844726562 452.095703125 336.750976562 452 c 0
 342.083007812 452 347.416015625 451.333007812 352.749023438 450 c 0
 366.749023438 447.333007812 376.416015625 442 381.749023438 434 c 0
 385.083007812 429.333007812 387.083007812 423.333007812 387.749023438 416 c 0
 388.416015625 412 388.749023438 408 388.749023438 404 c 0
 388.749023438 386.666992188 386.083007812 368.333984375 380.749023438 349.000976562 c 0
 378.083007812 338.333984375 372.415039062 330.333984375 363.748046875 325.000976562 c 0
 355.081054688 319.66796875 346.750976562 317 338.750976562 317 c 2
335.748046875 49.0009765625 m 0
 323.081054688 49.0009765625 310.748046875 53.0009765625 298.748046875 61.0009765625 c 0
 288.748046875 67.0009765625 283.081054688 75.333984375 281.748046875 86.0009765625 c 0
 281.081054688 104.000976562 280.748046875 114.000976562 280.748046875 116.000976562 c 0
 280.748046875 118.000976562 281.081054688 123.66796875 281.748046875 133.000976562 c 0
 282.415039062 142.333984375 283.083007812 149.666992188 283.749023438 155 c 0
 283.749023438 161 285.416015625 166 288.749023438 170 c 0
 291.416015625 174 295.416015625 177 300.749023438 179 c 0
 312.415039062 183.083007812 323.315429688 185.125 333.450195312 185.125 c 0
 334.899414062 185.125 336.331054688 185.083007812 337.748046875 185 c 0
 344.415039062 185 351.083007812 184 357.749023438 182 c 0
 365.083007812 180 371.749023438 176 377.749023438 170 c 0
 383.749023438 164 387.416015625 157 388.749023438 149 c 0
 390.083007812 140.333007812 390.749023438 132 390.749023438 124 c 0
 390.749023438 110 388.749023438 95.6669921875 384.749023438 81 c 0
 382.083007812 70.3330078125 375.415039062 62.3330078125 364.748046875 57 c 0
 354.748046875 51.6669921875 345.081054688 49.0009765625 335.748046875 49.0009765625 c 0
EndSplineSet
EndChar

StartChar: semicolon
Encoding: 59 59 28
Width: 670
GlyphClass: 2
Flags: HMW
HStem: 275.002 136.001
VStem: 308.834 109.666
LayerCount: 2
Fore
SplineSet
398.498046875 79.001953125 m 0
 398.498046875 62.3349609375 376.831054688 -25.33203125 333.498046875 -183.999023438 c 0
 330.165039062 -195.999023438 324.833007812 -204.33203125 317.499023438 -208.999023438 c 0
 310.166015625 -213.666015625 302.499023438 -215.999023438 294.499023438 -215.999023438 c 2
 292.499023438 -215.999023438 l 2
 281.166015625 -215.33203125 270.833007812 -211.665039062 261.500976562 -204.998046875 c 0
 254.833007812 -200.331054688 251.500976562 -193.6640625 251.500976562 -184.997070312 c 0
 251.500976562 -173.6640625 258.500976562 -133.331054688 272.500976562 -63.998046875 c 0
 285.166992188 -2.6650390625 295.500976562 44.3349609375 303.500976562 77.001953125 c 0
 305.500976562 85.6689453125 308.000976562 92.3359375 311.000976562 97.0029296875 c 0
 314.000976562 101.669921875 316.833007812 104.669921875 319.500976562 106.002929688 c 0
 326.166992188 108.669921875 332.500976562 110.002929688 338.500976562 110.002929688 c 0
 340.500976562 110.002929688 342.833007812 109.669921875 345.500976562 109.002929688 c 2
 346.500976562 109.002929688 l 2
 357.833007812 109.002929688 369.500976562 106.3359375 381.500976562 101.002929688 c 0
 387.500976562 98.3359375 392.166992188 94.6689453125 395.500976562 90.001953125 c 0
 397.500976562 87.3349609375 398.498046875 83.6689453125 398.498046875 79.001953125 c 0
366.500976562 275.001953125 m 2
 359.166992188 275.668945312 351.331054688 277.333984375 342.998046875 280.000976562 c 0
 334.665039062 282.66796875 327.333007812 286.834960938 320.999023438 292.501953125 c 0
 314.666015625 298.168945312 311.166015625 304.668945312 310.499023438 312.001953125 c 0
 309.833007812 323.334960938 309.333007812 334.834960938 308.999023438 346.501953125 c 0
 308.887695312 350.38671875 308.833007812 354.216796875 308.833007812 357.991210938 c 0
 308.833007812 365.55078125 309.055664062 372.887695312 309.500976562 380.002929688 c 0
 310.166992188 386.002929688 312.166992188 391.169921875 315.500976562 395.502929688 c 0
 318.833007812 399.8359375 323.500976562 403.002929688 329.500976562 405.002929688 c 0
 335.500976562 407.002929688 341.333007812 408.502929688 347.000976562 409.502929688 c 0
 352.666992188 410.502929688 357.000976562 411.002929688 360.000976562 411.002929688 c 2
 366.500976562 411.002929688 l 2
 377.833007812 410.3359375 388.498046875 407.668945312 398.498046875 403.001953125 c 0
 403.831054688 401.001953125 408.166015625 397.501953125 411.499023438 392.501953125 c 0
 414.833007812 387.501953125 416.833007812 381.668945312 417.499023438 375.001953125 c 0
 418.166015625 371.001953125 418.499023438 367.001953125 418.499023438 363.001953125 c 0
 418.499023438 345.001953125 415.833007812 326.334960938 410.499023438 307.001953125 c 0
 407.833007812 296.334960938 402.165039062 288.334960938 393.498046875 283.001953125 c 0
 384.831054688 277.668945312 376.498046875 275.001953125 368.498046875 275.001953125 c 2
 366.998046875 275.001953125 l 1
 366.500976562 275.001953125 l 2
EndSplineSet
EndChar

StartChar: less
Encoding: 60 60 29
Width: 670
GlyphClass: 2
Flags: HMW
HStem: 683 20G<522.167 529.501>
LayerCount: 2
Fore
SplineSet
563.5 648 m 0
 556.83203125 637.333007812 542.83203125 624.333007812 521.5 609 c 0
 484.166992188 583 427.5 540.333007812 351.5 481 c 0
 274.83203125 421 222.83203125 380.666992188 195.5 360 c 1
 206.5 353 l 2
 231.83203125 333 260.5 308.666992188 292.5 280 c 0
 324.5 251.333007812 352.5 225.666015625 376.5 202.999023438 c 0
 400.5 179.666015625 426.5 155.999023438 454.5 131.999023438 c 0
 483.166992188 107.999023438 507.833984375 89.33203125 528.5 75.9990234375 c 0
 549.833984375 61.9990234375 563.5 50.33203125 569.5 40.9990234375 c 0
 572.16796875 36.9990234375 573.5 32.666015625 573.5 27.9990234375 c 0
 573.5 25.9990234375 572.833984375 22.666015625 571.5 17.9990234375 c 0
 569.5 12.666015625 565.833984375 8.3330078125 560.5 5 c 0
 555.16796875 1.6669921875 547.5 -0.666015625 537.5 -1.9990234375 c 0
 534.833984375 -2.666015625 532.5 -2.9990234375 530.5 -2.9990234375 c 0
 521.833984375 -2.9990234375 512.166992188 -0.9990234375 501.5 3.0009765625 c 0
 484.83203125 8.333984375 464.83203125 19.6669921875 441.5 37 c 0
 417.5 54.3330078125 391.5 75.666015625 363.5 100.999023438 c 0
 335.5 126.33203125 307.5 151.999023438 279.5 177.999023438 c 0
 251.5 203.999023438 221.83203125 230.666015625 190.5 257.999023438 c 0
 159.166992188 285.33203125 132.5 306.999023438 110.5 322.999023438 c 0
 103.833007812 328.33203125 99.5 335.665039062 97.5 344.998046875 c 0
 96.8330078125 349.665039062 96.5 354.33203125 96.5 358.999023438 c 0
 96.5 363.666015625 97.1669921875 368.333007812 98.5 373 c 0
 101.166992188 381.666992188 105.5 388 111.5 392 c 0
 149.5 420 194.166992188 455.333007812 245.5 498 c 0
 296.83203125 540.666992188 343.5 579 385.5 613 c 0
 428.166992188 647 465.833984375 673.666992188 498.5 693 c 0
 508.5 699.666992188 517.833984375 703 526.5 703 c 0
 532.5 703 537.5 701.666992188 541.5 699 c 0
 552.833984375 693 560.833984375 684.666992188 565.5 674 c 0
 567.5 669.333007812 568.5 665 568.5 661 c 0
 567.833984375 657 566.166992188 652.666992188 563.5 648 c 0
EndSplineSet
EndChar

StartChar: equal
Encoding: 61 61 30
Width: 670
GlyphClass: 2
Flags: HMW
HStem: 256.909 63.091 452.907 66.0929
LayerCount: 2
Fore
SplineSet
188.499023438 519 m 2
 191.499023438 519 l 2
 229.499023438 517.666992188 268.499023438 517 308.499023438 517 c 0
 349.166015625 517 386.833007812 517.333007812 421.499023438 518 c 0
 456.166992188 518.666992188 477.166992188 519 484.499023438 519 c 0
 497.166992188 518.333007812 505.499023438 515.666015625 509.499023438 510.999023438 c 0
 514.166992188 506.33203125 516.833984375 499.665039062 517.500976562 490.998046875 c 0
 516.833984375 473.665039062 511.833984375 462.998046875 502.500976562 458.998046875 c 0
 499.833984375 457.665039062 496.833984375 456.998046875 493.500976562 456.998046875 c 2
 485.500976562 456.998046875 l 2
 470.166992188 457.665039062 456.166992188 457.998046875 443.500976562 457.998046875 c 2
 408.500976562 457.998046875 l 1
 298.500976562 454.998046875 l 2
 252.500976562 453.665039062 218.500976562 452.998046875 196.500976562 452.998046875 c 0
 195.166992188 452.9375 193.862304688 452.907226562 192.588867188 452.907226562 c 0
 179.862304688 452.907226562 170.166992188 455.9375 163.500976562 461.998046875 c 0
 156.166992188 467.998046875 152.500976562 475.331054688 152.500976562 483.998046875 c 2
 152.500976562 486.998046875 l 2
 153.166992188 495.665039062 156.166992188 502.998046875 161.500976562 508.998046875 c 0
 167.500976562 515.665039062 176.499023438 519 188.499023438 519 c 2
194.500976562 319.998046875 m 2
 215.833984375 319.331054688 241.166992188 318.998046875 270.499023438 318.998046875 c 0
 300.499023438 319.665039062 336.499023438 320.33203125 378.499023438 320.999023438 c 2
 484.499023438 322.999023438 l 2
 497.166992188 322.999023438 505.499023438 320.666015625 509.499023438 315.999023438 c 0
 514.166992188 310.666015625 516.833984375 303.666015625 517.500976562 294.999023438 c 0
 517.500976562 284.33203125 515.500976562 275.999023438 511.500976562 269.999023438 c 0
 508.833984375 266.666015625 505.833984375 264.333007812 502.500976562 263 c 0
 499.833984375 261.666992188 496.833984375 261 493.500976562 261 c 2
 485.500976562 261 l 2
 468.833984375 261.666992188 450.166992188 262 429.499023438 262 c 0
 408.833007812 262 364.166015625 261 295.499023438 259 c 0
 248.166015625 257.666992188 213.833007812 257 192.499023438 257 c 0
 191.225585938 256.939453125 189.986328125 256.909179688 188.779296875 256.909179688 c 0
 176.713867188 256.909179688 167.954101562 259.939453125 162.499023438 266 c 0
 155.833007812 272.666992188 152.499023438 280.666992188 152.499023438 290 c 2
 152.499023438 292 l 2
 153.166992188 300 156.499023438 306.666992188 162.499023438 312 c 0
 168.499023438 317.333007812 178.499023438 320 192.499023438 320 c 2
 194.500976562 319.998046875 l 2
EndSplineSet
EndChar

StartChar: greater
Encoding: 62 62 31
Width: 670
GlyphClass: 2
Flags: HMW
HStem: 690 20G<138.499 143.833>
LayerCount: 2
Fore
SplineSet
571.500976562 334 m 0
 568.833984375 325.333007812 564.500976562 319 558.500976562 315 c 0
 520.500976562 287 475.833984375 251.666992188 424.500976562 209 c 0
 373.16796875 166.333007812 326.500976562 128 284.500976562 94 c 0
 241.833984375 60.6669921875 204.166992188 34 171.5 14 c 0
 161.5 7.3330078125 151.833007812 4 142.5 4 c 0
 137.166992188 4 132.5 5.3330078125 128.5 8 c 0
 117.166992188 14 109.166992188 22.3330078125 104.5 33 c 0
 102.5 37.6669921875 101.5 42 101.5 46 c 0
 101.5 50 102.833007812 54.3330078125 105.5 59 c 0
 112.166992188 69.6669921875 126.5 82.6669921875 148.5 98 c 0
 185.833007812 124 242.5 166.666992188 318.5 226 c 0
 394.5 286 443.166992188 323.666992188 464.5 339 c 2
 474.5 347 l 1
 464.5 354 l 2
 438.5 374 409.5 398.333007812 377.5 427 c 0
 345.5 455.666992188 317.5 481.333984375 293.5 504.000976562 c 0
 269.5 527.333984375 243.5 551.000976562 215.5 575.000976562 c 0
 186.833007812 599.000976562 162.166015625 617.66796875 141.499023438 631.000976562 c 0
 120.166015625 645.000976562 106.499023438 656.66796875 100.499023438 666.000976562 c 0
 97.83203125 670.66796875 96.4990234375 675.334960938 96.4990234375 680.001953125 c 0
 96.4990234375 681.334960938 97.166015625 684.334960938 98.4990234375 689.001953125 c 0
 100.499023438 694.334960938 104.166015625 698.66796875 109.499023438 702.000976562 c 0
 114.83203125 705.333984375 122.499023438 707.666992188 132.499023438 709 c 0
 135.166015625 709.666992188 137.499023438 710 139.499023438 710 c 0
 148.166015625 710 157.833007812 708 168.5 704 c 0
 184.5 698.666992188 204.5 687.333984375 228.5 670.000976562 c 0
 252.5 652.66796875 278.5 631.334960938 306.5 606.001953125 c 0
 334.5 580.668945312 362.5 555.001953125 390.5 529.001953125 c 0
 418.5 503.001953125 448.166992188 476.334960938 479.5 449.001953125 c 0
 510.166992188 421.668945312 536.833984375 400.001953125 559.500976562 384.001953125 c 0
 566.16796875 378.668945312 570.500976562 371.3359375 572.500976562 362.002929688 c 0
 573.16796875 357.3359375 573.500976562 352.668945312 573.500976562 348.001953125 c 0
 573.500976562 343.334960938 572.833984375 338.666992188 571.500976562 334 c 0
EndSplineSet
EndChar

StartChar: question
Encoding: 63 63 32
Width: 670
GlyphClass: 2
Flags: HMW
HStem: -4.00195 134.053 646.999 64.999
VStem: 241.549 143 452.549 80.001
LayerCount: 2
Fore
SplineSet
532.55078125 522 m 0
 532.55078125 505.333007812 529.8828125 490 524.55078125 476 c 0
 519.217773438 462.666992188 512.217773438 451 503.55078125 441 c 0
 494.8828125 431 484.8828125 421.333007812 473.55078125 412 c 0
 461.55078125 403.333007812 449.55078125 394.333007812 437.55078125 385 c 0
 425.55078125 375.666992188 413.8828125 365.666992188 402.55078125 355 c 0
 391.8828125 343.666992188 382.216796875 330.333984375 373.549804688 315.000976562 c 0
 364.8828125 299.66796875 359.21484375 282.66796875 356.548828125 264.000976562 c 0
 353.881835938 248.66796875 348.548828125 237.000976562 340.548828125 229.000976562 c 0
 335.881835938 225.000976562 329.548828125 223.000976562 321.548828125 223.000976562 c 0
 317.548828125 222.333984375 313.21484375 222.666992188 308.548828125 224 c 0
 293.21484375 228 283.21484375 235 278.548828125 245 c 0
 275.881835938 250.333007812 274.548828125 256.666015625 274.548828125 263.999023438 c 0
 274.548828125 271.999023438 275.548828125 280.666015625 277.548828125 289.999023438 c 0
 282.21484375 306.666015625 288.8828125 322.666015625 297.549804688 337.999023438 c 0
 306.216796875 353.33203125 315.549804688 366.33203125 325.549804688 376.999023438 c 0
 336.216796875 388.33203125 347.216796875 398.999023438 358.549804688 408.999023438 c 0
 369.8828125 418.999023438 380.8828125 428.666015625 391.549804688 437.999023438 c 0
 402.216796875 447.33203125 412.216796875 456.999023438 421.549804688 466.999023438 c 0
 430.216796875 476.999023438 437.549804688 487.999023438 443.549804688 499.999023438 c 0
 449.549804688 511.999023438 452.549804688 524.999023438 452.549804688 538.999023438 c 0
 452.549804688 576.999023438 441.216796875 604.666015625 418.549804688 621.999023438 c 0
 397.216796875 638.666015625 366.549804688 646.999023438 326.549804688 646.999023438 c 0
 315.8828125 646.999023438 305.21484375 644.666015625 294.548828125 639.999023438 c 0
 283.881835938 635.999023438 274.881835938 630.999023438 267.548828125 624.999023438 c 0
 260.21484375 618.999023438 252.548828125 611.33203125 244.548828125 601.999023438 c 0
 235.881835938 591.999023438 229.548828125 583.999023438 225.548828125 577.999023438 c 0
 221.548828125 571.999023438 216.548828125 564.666015625 210.548828125 555.999023438 c 0
 204.548828125 547.33203125 199.548828125 540.999023438 195.548828125 536.999023438 c 0
 191.548828125 533.666015625 187.548828125 531.666015625 183.548828125 530.999023438 c 2
 177.548828125 530.999023438 l 2
 175.548828125 530.999023438 172.881835938 531.33203125 169.548828125 531.999023438 c 0
 166.21484375 532.666015625 160.8828125 534.666015625 153.549804688 537.999023438 c 0
 145.549804688 542.666015625 140.549804688 548.999023438 138.548828125 556.999023438 c 0
 137.869140625 559.040039062 137.44921875 562.078125 137.44921875 566.469726562 c 0
 137.44921875 574.08984375 140.150390625 583.599609375 145.549804688 594.999023438 c 0
 160.216796875 622.33203125 181.216796875 647.665039062 208.549804688 670.998046875 c 0
 223.216796875 683.665039062 240.549804688 693.665039062 260.549804688 700.998046875 c 0
 280.549804688 708.331054688 301.216796875 711.998046875 322.549804688 711.998046875 c 0
 391.8828125 711.998046875 444.21484375 696.331054688 479.548828125 664.998046875 c 0
 514.881835938 633.665039062 532.55078125 586 532.55078125 522 c 0
313.548828125 -4.001953125 m 2
 304.549804688 -4.001953125 l 2
 303.63671875 -4.037109375 302.732421875 -4.0546875 301.8359375 -4.0546875 c 0
 285.71484375 -4.0546875 272.287109375 1.6298828125 261.55078125 12.998046875 c 0
 248.217773438 27.6650390625 241.55078125 44.6650390625 241.55078125 63.998046875 c 0
 241.55078125 81.3310546875 248.8828125 96.3310546875 263.55078125 108.998046875 c 0
 279.55078125 122.998046875 298.217773438 129.998046875 319.55078125 129.998046875 c 0
 320.498046875 130.033203125 321.4375 130.05078125 322.3671875 130.05078125 c 0
 339.12109375 130.05078125 353.181640625 124.366210938 364.549804688 112.998046875 c 0
 377.8828125 100.331054688 384.549804688 84.6640625 384.549804688 65.9970703125 c 0
 384.549804688 47.330078125 378.216796875 31.6630859375 365.549804688 18.99609375 c 0
 352.216796875 6.3291015625 334.881835938 -1.3349609375 313.548828125 -4.001953125 c 2
EndSplineSet
EndChar

StartChar: at
Encoding: 64 64 33
Width: 670
GlyphClass: 2
Flags: HMW
HStem: -120 66.0049 111.004 59 127.005 61.002 391.008 56.998 623.005 69.9971
VStem: 86.4985 67.0049 209.501 58.0029 391.504 61.001 529.505 53.9971
LayerCount: 2
Fore
SplineSet
533.5 9 m 0xdf80
 530.166992188 -0.3330078125 526.5 -8.3330078125 522.5 -15 c 0
 519.166992188 -22.3330078125 514.5 -30.666015625 508.5 -39.9990234375 c 0
 502.5 -49.9990234375 496.166992188 -58.33203125 489.5 -64.9990234375 c 0
 482.83203125 -71.666015625 474.166015625 -78.666015625 463.499023438 -85.9990234375 c 0
 453.499023438 -93.33203125 442.166015625 -99.33203125 429.499023438 -103.999023438 c 0
 416.83203125 -108.666015625 402.1640625 -112.333007812 385.498046875 -115 c 0
 368.831054688 -118.333007812 351.498046875 -120 333.498046875 -120 c 2
 327.498046875 -120 l 2
 294.1640625 -120 262.83203125 -111.666992188 233.499023438 -95 c 0
 203.499023438 -78.3330078125 177.83203125 -55 156.499023438 -25 c 0
 135.166015625 5 118.166015625 41.6669921875 105.498046875 85 c 0
 92.83203125 129 86.498046875 176.666992188 86.498046875 228 c 0
 87.166015625 286 91.83203125 340 100.5 390 c 0
 109.83203125 440.666992188 122.5 484.333984375 138.5 521.000976562 c 0
 154.5 557.66796875 173.5 589.000976562 195.5 615.000976562 c 0
 216.83203125 641.66796875 240.5 661.334960938 266.5 674.001953125 c 0
 292.5 686.668945312 319.83203125 693.001953125 348.5 693.001953125 c 0
 370.5 693.001953125 390.166992188 691.334960938 407.5 688.001953125 c 0
 425.5 684.668945312 442.5 679.001953125 458.5 671.001953125 c 0
 474.5 663.001953125 488.5 652.334960938 500.5 639.001953125 c 0
 513.166992188 625.668945312 524.833984375 609.001953125 535.5 589.001953125 c 0
 546.16796875 569.001953125 554.834960938 545.334960938 561.501953125 518.001953125 c 0
 576.16796875 458.668945312 583.501953125 383.3359375 583.501953125 292.002929688 c 0
 582.834960938 244.669921875 575.834960938 203.336914062 562.501953125 168.00390625 c 0
 555.834960938 150.00390625 546.501953125 136.00390625 534.501953125 126.00390625 c 0
 523.16796875 116.00390625 509.501953125 111.00390625 493.501953125 111.00390625 c 0xdf80
 470.16796875 111.670898438 452.501953125 119.337890625 440.501953125 134.004882812 c 0
 430.501953125 146.004882812 424.16796875 163.671875 421.501953125 187.004882812 c 2
 417.501953125 232.004882812 l 1
 402.501953125 189.00390625 l 2
 395.834960938 170.336914062 387.16796875 156.004882812 376.5 146.004882812 c 0
 363.833984375 133.337890625 346.833984375 127.004882812 325.5 127.004882812 c 0
 288.833984375 127.671875 260.5 139.338867188 240.5 162.005859375 c 0
 219.833984375 184.672851562 209.5 220.005859375 209.5 268.005859375 c 0
 209.5 292.005859375 212.16796875 314.338867188 217.5 335.005859375 c 0
 222.833984375 355.672851562 230.166992188 373.005859375 239.5 387.005859375 c 0
 248.83203125 400.338867188 259.5 412.005859375 271.5 422.005859375 c 0
 284.166992188 432.005859375 296.833984375 439.005859375 309.5 443.005859375 c 0
 322.16796875 446.338867188 334.834960938 448.005859375 347.501953125 448.005859375 c 0
 365.501953125 448.005859375 382.834960938 444.672851562 399.501953125 438.005859375 c 0
 413.501953125 432.672851562 424.501953125 425.672851562 432.501953125 417.005859375 c 0
 437.16796875 411.672851562 439.501953125 407.33984375 439.501953125 404.006835938 c 0
 439.501953125 402.673828125 439.16796875 401.340820312 438.501953125 400.0078125 c 0
 434.501953125 392.0078125 429.501953125 387.0078125 423.501953125 385.0078125 c 0
 416.834960938 383.0078125 411.834960938 382.0078125 408.501953125 382.0078125 c 0
 403.16796875 382.674804688 395.8359375 384.0078125 386.502929688 386.0078125 c 2
 371.502929688 389.0078125 l 2
 365.502929688 390.340820312 359.8359375 391.0078125 354.502929688 391.0078125 c 2
 342.502929688 391.0078125 l 2
 333.169921875 390.340820312 323.8359375 387.0078125 314.50390625 381.0078125 c 0
 305.170898438 375.0078125 297.170898438 367.674804688 290.50390625 359.0078125 c 0
 283.170898438 351.0078125 277.50390625 340.005859375 273.50390625 326.005859375 c 0
 269.50390625 312.005859375 267.50390625 296.674804688 267.50390625 280.0078125 c 0
 267.50390625 271.340820312 268.170898438 262.673828125 269.50390625 254.006835938 c 0
 270.170898438 246.006835938 272.170898438 236.670898438 275.50390625 226.00390625 c 0
 278.8359375 215.336914062 284.50390625 206.33984375 292.50390625 199.006835938 c 0
 300.50390625 191.673828125 310.50390625 188.006835938 322.50390625 188.006835938 c 0xbf80
 347.170898438 188.006835938 364.837890625 198.006835938 375.50390625 218.006835938 c 0
 384.837890625 235.33984375 390.170898438 263.672851562 391.50390625 303.005859375 c 0
 392.170898438 309.672851562 398.837890625 315.672851562 411.50390625 321.005859375 c 0
 421.50390625 324.338867188 430.171875 326.005859375 437.50390625 326.005859375 c 0
 442.171875 326.005859375 446.502929688 325.338867188 450.502929688 324.005859375 c 0
 454.502929688 322.005859375 456.50390625 319.672851562 456.50390625 317.005859375 c 2
 456.50390625 315.005859375 l 2
 453.837890625 290.338867188 452.50390625 269.671875 452.50390625 253.004882812 c 0
 452.50390625 244.337890625 452.837890625 236.670898438 453.50390625 230.00390625 c 0
 456.171875 208.670898438 460.171875 193.670898438 465.50390625 185.00390625 c 0
 472.171875 175.00390625 481.501953125 170.00390625 493.501953125 170.00390625 c 0
 503.501953125 170.00390625 511.171875 176.336914062 516.50390625 189.00390625 c 0
 520.50390625 199.00390625 523.50390625 211.336914062 525.50390625 226.00390625 c 0
 528.171875 250.670898438 529.50390625 273.670898438 529.50390625 295.00390625 c 0
 529.50390625 329.670898438 528.171875 361.333007812 525.50390625 390 c 0
 522.171875 419.333007812 518.170898438 444.337890625 513.50390625 465.004882812 c 0
 508.8359375 486.337890625 502.8359375 505.337890625 495.50390625 522.004882812 c 0
 488.170898438 539.337890625 480.838867188 553.337890625 473.505859375 564.004882812 c 0
 466.171875 574.671875 457.505859375 584.004882812 447.505859375 592.004882812 c 0
 437.505859375 599.337890625 428.834960938 605.004882812 421.501953125 609.004882812 c 0
 414.16796875 613.671875 405.505859375 617.004882812 395.505859375 619.004882812 c 0
 385.505859375 621.004882812 378.171875 622.004882812 373.505859375 622.004882812 c 0
 368.838867188 622.671875 363.171875 623.004882812 356.50390625 623.004882812 c 0
 327.837890625 622.337890625 301.170898438 613.337890625 276.50390625 596.004882812 c 0
 251.8359375 578.671875 230.50390625 554.671875 212.50390625 524.004882812 c 0
 194.50390625 492.671875 180.170898438 454.671875 169.50390625 410.004882812 c 0
 158.8359375 365.337890625 153.50390625 316.670898438 153.50390625 264.00390625 c 0
 154.170898438 218.00390625 157.837890625 176.670898438 164.50390625 140.00390625 c 0
 171.837890625 102.670898438 181.170898438 72.337890625 192.50390625 49.0048828125 c 0
 203.8359375 25.671875 217.499023438 6.0048828125 233.499023438 -9.9951171875 c 0
 248.83203125 -25.9951171875 264.8359375 -37.328125 281.50390625 -43.9951171875 c 0
 298.170898438 -50.662109375 315.498046875 -53.9951171875 333.498046875 -53.9951171875 c 0
 350.831054688 -53.9951171875 367.169921875 -52.328125 382.502929688 -48.9951171875 c 0
 397.8359375 -45.662109375 410.502929688 -41.3291015625 420.502929688 -35.99609375 c 0
 431.169921875 -30.6630859375 441.169921875 -23.6669921875 450.502929688 -15 c 0
 459.169921875 -7 466.169921875 0.6708984375 471.502929688 8.00390625 c 0
 476.169921875 15.3369140625 481.8359375 24.3369140625 488.50390625 35.00390625 c 0
 491.170898438 39.6708984375 493.50390625 43.337890625 495.50390625 46.0048828125 c 0
 497.50390625 48.0048828125 499.50390625 50.671875 501.50390625 54.0048828125 c 0
 504.170898438 57.337890625 506.170898438 59.6708984375 507.50390625 61.00390625 c 2
 513.50390625 64.00390625 l 2
 516.170898438 66.00390625 519.837890625 66.00390625 524.50390625 64.00390625 c 0
 531.837890625 61.3369140625 536.837890625 57.00390625 539.50390625 51.00390625 c 0
 540.837890625 48.3369140625 541.50390625 45.669921875 541.50390625 43.0029296875 c 0
 541.50390625 34.3359375 538.83203125 23 533.5 9 c 0xdf80
EndSplineSet
EndChar

StartChar: A
Encoding: 65 65 34
Width: 670
GlyphClass: 2
Flags: HMW
HStem: 271 50.998
VStem: 87.4985 72.001
LayerCount: 2
Fore
SplineSet
370.5 606.997070312 m 2
 343.16796875 561.6640625 304.16796875 466.331054688 253.5 320.998046875 c 2
 248.5 305.998046875 l 1
 262.5 307.998046875 l 2
 325.16796875 315.998046875 380.834960938 320.665039062 429.501953125 321.998046875 c 2
 440.501953125 321.998046875 l 1
 382.501953125 626.998046875 l 1
 370.5 606.997070312 l 2
502.5 53.9990234375 m 0
 494.5 74.666015625 477.5 147 451.5 271 c 0
 449.5 277.666992188 447.166992188 277.666992188 444.5 271 c 1
 365.166992188 267 292.166992188 259.33203125 225.5 247.999023438 c 1
 203.5 189.33203125 181.5 124.333007812 159.5 53 c 0
 154.166992188 35 146.5 23.330078125 136.5 17.9970703125 c 0
 131.166015625 15.330078125 126.166015625 13.9970703125 121.5 13.9970703125 c 0
 116.83203125 13.9970703125 112.166015625 14.9970703125 107.498046875 16.9970703125 c 0
 94.166015625 22.330078125 87.498046875 34.3330078125 87.498046875 53 c 0
 87.498046875 61 88.83203125 70.3330078125 91.498046875 81 c 0
 96.166015625 104.333007812 116.166015625 158.666015625 151.499023438 243.999023438 c 1
 148.83203125 251.999023438 146.499023438 253.33203125 144.499023438 247.999023438 c 1
 135.83203125 253.999023438 131.498046875 260.999023438 131.498046875 268.999023438 c 2
 131.498046875 269.999023438 l 2
 130.83203125 275.999023438 133.83203125 281.999023438 140.499023438 287.999023438 c 0
 149.166015625 295.33203125 159.83203125 300.999023438 172.5 304.999023438 c 1
 173.83203125 311.666015625 175.166015625 311.998046875 176.499023438 305.998046875 c 1
 255.166015625 499.331054688 314.83203125 627.665039062 355.5 690.998046875 c 0
 364.166992188 703.665039062 371.333984375 712.498046875 377 717.498046875 c 0
 382.66796875 722.498046875 388.834960938 724.998046875 395.501953125 724.998046875 c 2
 396.501953125 724.998046875 l 1
 402.501953125 724.998046875 l 2
 409.834960938 724.998046875 416.834960938 722.998046875 423.501953125 718.998046875 c 0
 430.16796875 714.998046875 434.501953125 706.998046875 436.501953125 694.998046875 c 0
 449.834960938 612.331054688 472.834960938 494.998046875 505.501953125 342.998046875 c 0
 538.16796875 190.331054688 561.16796875 102.331054688 574.501953125 78.998046875 c 0
 579.834960938 69.6650390625 582.501953125 61.33203125 582.501953125 53.9990234375 c 0
 581.834960938 53.33203125 581.501953125 52.33203125 581.501953125 50.9990234375 c 0
 580.834960938 42.33203125 578.334960938 35.1650390625 574.001953125 29.498046875 c 0
 569.66796875 23.8310546875 564.501953125 19.6640625 558.501953125 16.9970703125 c 0
 553.834960938 14.9970703125 549.16796875 13.9970703125 544.5 13.9970703125 c 0
 539.16796875 13.9970703125 533.834960938 15.330078125 528.501953125 17.9970703125 c 0
 517.834960938 23.330078125 509.166992188 35.33203125 502.5 53.9990234375 c 0
EndSplineSet
EndChar

StartChar: B
Encoding: 66 66 35
Width: 670
GlyphClass: 2
Flags: HMW
HStem: -20.3672 79.3672 307 51.999 640.002 49.998
VStem: 111.5 77.7998 115.5 82.999 446.5 72.001 480.502 79.998
LayerCount: 2
Fore
SplineSet
432.497070312 260.001953125 m 0xea
 418.497070312 269.334960938 399.330078125 278.16796875 374.997070312 286.500976562 c 0
 350.6640625 294.833984375 322.831054688 301.666992188 291.498046875 307 c 1
 290.498046875 307 l 2
 245.165039062 307 211.83203125 306.666992188 190.499023438 306 c 1
 193.83203125 192 196.499023438 109 198.499023438 57 c 1
 211.83203125 58.3330078125 226.499023438 59 242.499023438 59 c 0
 258.499023438 59.6669921875 270.499023438 60 278.499023438 60 c 0
 307.166015625 61.3330078125 334.333007812 66.666015625 360 75.9990234375 c 0
 385.666992188 85.33203125 406.833984375 96.9990234375 423.500976562 110.999023438 c 0
 440.16796875 124.33203125 453.834960938 138.83203125 464.501953125 154.499023438 c 0
 475.168945312 170.166015625 480.501953125 184.999023438 480.501953125 198.999023438 c 0
 480.501953125 219.666015625 464.497070312 240.001953125 432.497070312 260.001953125 c 0xea
201.5 626.999023438 m 2
 194.5 624.999023438 l 1
 194.5 607.666015625 193.833007812 584.999023438 192.5 556.999023438 c 0
 190.366210938 503.668945312 189.299804688 451.40625 189.299804688 400.209960938 c 0
 189.299804688 387.40625 189.366210938 374.668945312 189.5 361.999023438 c 1
 225.5 359.999023438 256.5 358.999023438 282.5 358.999023438 c 0
 301.833007812 358.999023438 319.333007812 360.83203125 335 364.499023438 c 0
 350.666992188 368.166015625 364.166992188 372.833007812 375.5 378.5 c 0
 386.833007812 384.166992188 396.833007812 391.166992188 405.5 399.5 c 0
 414.166992188 407.833007812 420.833007812 416.333007812 425.5 425 c 0
 430.166992188 433.666992188 434.16796875 443 437.500976562 453 c 0
 440.833984375 463 443.166992188 472.333007812 444.5 481 c 0
 445.833007812 489.666992188 446.5 498.333984375 446.5 507.000976562 c 0xf4
 445.833007812 525.66796875 442.166015625 543.000976562 435.499023438 559.000976562 c 0
 428.83203125 575.000976562 420.165039062 587.833984375 409.498046875 597.500976562 c 0
 398.831054688 607.16796875 387.1640625 615.334960938 374.497070312 622.001953125 c 0
 351.830078125 634.001953125 327.830078125 640.001953125 302.497070312 640.001953125 c 0
 268.497070312 640.001953125 234.833007812 635.666015625 201.5 626.999023438 c 2
542.001953125 130 m 0
 529.668945312 106.666992188 511.666015625 84.833984375 487.999023438 64.5009765625 c 0
 464.33203125 44.16796875 435.166992188 27.0009765625 400.5 13.0009765625 c 0
 366.5 -0.9990234375 328.833007812 -9.9990234375 287.5 -13.9990234375 c 1
 267.81640625 -20.3671875 l 2
 263.044921875 -20.3671875 258.2734375 -19.244140625 253.501953125 -16.9990234375 c 2
 234.974609375 -23.3671875 l 2
 230.483398438 -23.3671875 225.9921875 -22.244140625 221.500976562 -19.9990234375 c 0
 201.500976562 -21.9990234375 185.833984375 -22.9990234375 174.500976562 -22.9990234375 c 0
 167.16796875 -22.9990234375 160.16796875 -22.33203125 153.500976562 -20.9990234375 c 2
 149.500976562 -20.9990234375 l 2
 138.833984375 -21.666015625 130.166992188 -18.3330078125 123.5 -11 c 0
 118.166992188 -5 115.5 3.3330078125 115.5 14 c 2
 115.5 19 l 2xea
 116.833007812 39.6669921875 117.5 74.333984375 117.5 123.000976562 c 0
 117.5 213.66796875 115.5 314.000976562 111.5 424.000976562 c 0
 110.166992188 468.66796875 109.5 498.500976562 109.5 513.500976562 c 0
 109.5 528.500976562 110.166992188 549.000976562 111.5 575.000976562 c 0
 112.833007812 601.000976562 113.5 619.000976562 113.5 629.000976562 c 0
 114.166992188 644.333984375 118.333984375 655.666992188 126.000976562 663 c 0
 133.66796875 670.333007812 142.833984375 674 153.500976562 674 c 2
 157.501953125 674 l 1
 158.501953125 674 l 2
 169.834960938 677.333007812 181.166992188 680 192.5 682 c 0
 214.5 686 234.500976562 688.333007812 252.500976562 689 c 0
 262.500976562 689.666992188 270.16796875 690 275.500976562 690 c 2
 294.500976562 690 l 1
 304.500976562 690 l 2
 344.500976562 690 379.833984375 682 410.500976562 666 c 0
 442.500976562 650 468.500976562 626.833007812 488.500976562 596.5 c 0
 508.500976562 566.166992188 518.500976562 530 518.500976562 488 c 0xf4
 518.500976562 452.666992188 510.16796875 422.333984375 493.500976562 397.000976562 c 0
 476.833984375 371.66796875 454.166992188 353.000976562 425.5 341.000976562 c 1
 417.5 331.000976562 409.833007812 327.66796875 402.5 331.000976562 c 1
 410.5 321.000976562 418.166992188 318.000976562 425.5 322.000976562 c 1
 446.166992188 314.66796875 467 304.16796875 488 290.500976562 c 0
 509 276.833984375 526.333007812 261.666992188 540 245 c 0
 553.666992188 228.333007812 560.5 213.666015625 560.5 200.999023438 c 2
 560.5 198.999023438 l 2xe2
 560.5 176.33203125 554.334960938 153.333007812 542.001953125 130 c 0
EndSplineSet
EndChar

StartChar: C
Encoding: 67 67 36
Width: 670
GlyphClass: 2
Flags: HMW
HStem: -30.999 72.001 650.002 62.999
VStem: 96.999 80.999 490 83.001
LayerCount: 2
Fore
SplineSet
560 553.5 m 0
 551.333007812 541.166992188 543 534.333984375 535 533.000976562 c 2
 529 533.000976562 l 2
 521 533.000976562 512.666992188 535.66796875 504 541.000976562 c 0
 494.666992188 547.66796875 490 556.334960938 490 567.001953125 c 0
 490 572.334960938 490.666992188 588.334960938 492 615.001953125 c 1
 476.666992188 625.668945312 467.666992188 632.001953125 465 634.001953125 c 0
 462.333007812 636.001953125 458.333007812 638.334960938 453 641.001953125 c 0
 443 647.001953125 432.666992188 650.001953125 422 650.001953125 c 0
 401.333007812 650.001953125 379.5 642.668945312 356.5 628.001953125 c 0
 333.5 613.334960938 311.666992188 593.001953125 291 567.001953125 c 0
 270.333007812 541.001953125 251.666015625 511.334960938 234.999023438 478.001953125 c 0
 218.33203125 444.001953125 204.665039062 406.001953125 193.998046875 364.001953125 c 0
 183.331054688 322.001953125 177.998046875 279.668945312 177.998046875 237.001953125 c 0
 177.998046875 205.001953125 183.998046875 174.168945312 195.998046875 144.501953125 c 0
 207.998046875 114.834960938 224.665039062 90.001953125 245.998046875 70.001953125 c 0
 266.665039062 50.6689453125 289.665039062 41.001953125 314.998046875 41.001953125 c 0
 335.665039062 41.001953125 355.665039062 43.3349609375 374.998046875 48.001953125 c 0
 394.331054688 52.6689453125 411.831054688 58.8359375 427.498046875 66.5029296875 c 0
 443.165039062 74.169921875 456.998046875 81.669921875 468.998046875 89.0029296875 c 0
 480.331054688 96.3359375 491.331054688 104.3359375 501.998046875 113.002929688 c 0
 509.998046875 118.3359375 516.831054688 122.3359375 522.498046875 125.002929688 c 0
 528.165039062 127.669921875 533.998046875 129.002929688 539.998046875 129.002929688 c 0
 545.331054688 129.002929688 550.331054688 127.3359375 554.998046875 124.002929688 c 0
 563.665039062 117.3359375 567.998046875 109.668945312 567.998046875 101.001953125 c 0
 567.998046875 90.3349609375 561.665039062 77.66796875 548.998046875 63.0009765625 c 0
 494.998046875 0.333984375 415.998046875 -30.9990234375 311.998046875 -30.9990234375 c 2
 303.998046875 -30.9990234375 l 2
 279.998046875 -30.9990234375 257.331054688 -26.666015625 235.998046875 -17.9990234375 c 0
 213.998046875 -8.666015625 194.665039062 3.6669921875 177.998046875 19 c 0
 161.331054688 34.3330078125 146.831054688 52 134.498046875 72 c 0
 122.165039062 92 112.83203125 113.333007812 106.499023438 136 c 0
 100.166015625 158.666992188 96.9990234375 181.333984375 96.9990234375 204.000976562 c 0
 96.9990234375 252.66796875 101.999023438 300.16796875 111.999023438 346.500976562 c 0
 121.999023438 392.833984375 135.33203125 434.333984375 151.999023438 471.000976562 c 0
 168.666015625 507.66796875 188.333007812 541.334960938 211 572.001953125 c 0
 231.666992188 603.334960938 253.5 629.16796875 276.5 649.500976562 c 0
 299.5 669.833984375 322.833007812 685.500976562 346.5 696.500976562 c 0
 370.166992188 707.500976562 393 713.000976562 415 713.000976562 c 0
 437 713.000976562 457.666992188 710.333984375 477 705.000976562 c 1
 479.666992188 710.333984375 482.666992188 709.333984375 486 702.000976562 c 1
 487.333007812 712.000976562 488.333007812 715.333984375 489 712.000976562 c 1
 491 720.000976562 495 726.66796875 501 732.000976562 c 0
 507 736.66796875 513.666992188 739.334960938 521 740.001953125 c 0
 524.333007812 740.668945312 526.333007812 741.001953125 527 741.001953125 c 0
 533.666992188 741.001953125 540.666992188 738.668945312 548 734.001953125 c 0
 556.666992188 728.668945312 562.333984375 720.3359375 565.000976562 709.002929688 c 0
 570.333984375 683.669921875 573.000976562 656.668945312 573.000976562 628.001953125 c 2
 573.000976562 591.002929688 l 2
 573.000976562 578.3359375 568.666992188 565.833007812 560 553.5 c 0
EndSplineSet
EndChar

StartChar: D
Encoding: 68 68 37
Width: 670
GlyphClass: 2
Flags: HMW
HStem: -31 75.999 675 20G<131.834 148.167>
VStem: 94.5014 77.7113 498.503 76.9953
LayerCount: 2
Fore
SplineSet
349.498046875 551 m 0
 315.498046875 574.333007812 266.498046875 598.666015625 202.498046875 623.999023438 c 1
 201.498046875 624.999023438 l 1
 200.498046875 624.999023438 l 1
 199.498046875 625.999023438 l 1
 198.498046875 625.999023438 l 1
 197.498046875 625.999023438 l 1
 197.498046875 626.999023438 l 1
 196.498046875 626.999023438 l 1
 195.498046875 626.999023438 l 1
 194.498046875 626.999023438 l 1
 194.498046875 627.999023438 l 1
 193.498046875 627.999023438 l 1
 192.498046875 627.999023438 l 1
 191.498046875 627.999023438 l 1
 191.498046875 628.999023438 l 1
 190.498046875 628.999023438 l 1
 189.498046875 628.999023438 l 1
 188.49609375 629.999023438 l 1
 187.498046875 629.999023438 l 1
 174.498046875 643.999023438 l 1
 173.498046875 620.999023438 l 2
 172.640625 583.283203125 172.212890625 546.118164062 172.212890625 509.50390625 c 0
 172.212890625 460.689453125 172.974609375 412.854492188 174.498046875 365.999023438 c 0
 175.831054688 324.666015625 177.1640625 275.166015625 178.498046875 217.499023438 c 0
 179.830078125 159.83203125 181.163085938 114.33203125 182.49609375 80.9990234375 c 1
 188.49609375 78.9990234375 l 2
 215.830078125 66.33203125 243.49609375 57.4990234375 271.49609375 52.4990234375 c 0
 299.49609375 47.4990234375 331.49609375 44.9990234375 367.49609375 44.9990234375 c 0
 386.830078125 44.9990234375 404.830078125 51.83203125 421.49609375 65.4990234375 c 0
 438.163085938 79.166015625 451.830078125 96.3330078125 462.498046875 117 c 0
 473.830078125 137.666992188 482.663085938 160.166992188 488.99609375 184.5 c 0
 498.458984375 220.85546875 498.502929688 247.245117188 498.502929688 258.552734375 c 0
 498.502929688 385.967773438 448.8359375 483.450195312 349.498046875 551 c 0
566.501953125 152.5 m 0
 560.501953125 128.833007812 551.169921875 106 538.501953125 84 c 0
 525.834960938 62 511.16796875 42.5 494.501953125 25.5 c 0
 477.833984375 8.5 458.501953125 -5.3330078125 436.501953125 -16 c 0
 415.16796875 -26 392.501953125 -31 368.501953125 -31 c 2
 359.501953125 -31 l 2
 332.16796875 -31 304.66796875 -29.6669921875 277.001953125 -27 c 0
 249.333984375 -24.3330078125 226.833984375 -21 209.501953125 -17 c 0
 191.501953125 -12.3330078125 175.333984375 -8.3330078125 161.001953125 -5 c 0
 146.66796875 -1.6669921875 137.8359375 0 134.501953125 0 c 0
 123.8359375 0 115.16796875 3.3330078125 108.501953125 10 c 0
 102.501953125 16 99.501953125 24.3330078125 99.501953125 35 c 2
 99.501953125 41 l 2
 101.501953125 65 102.501953125 102.333007812 102.501953125 153 c 0
 101.833984375 243.666992188 99.501953125 351.666992188 95.501953125 477 c 0
 94.833984375 514.333007812 94.501953125 538.833007812 94.501953125 550.5 c 0
 94.501953125 562.166992188 95.001953125 580.333984375 96.001953125 605.000976562 c 0
 97.001953125 629.66796875 97.501953125 644.66796875 97.501953125 650.000976562 c 0
 98.16796875 665.333984375 102.16796875 676.666992188 109.501953125 684 c 0
 116.833984375 691.333007812 126.16796875 695 137.5 695 c 0
 158.833984375 695 186.166015625 691.666992188 219.499023438 685 c 0
 238.83203125 681 258.499023438 675.5 278.499023438 668.5 c 0
 298.499023438 661.5 320.166015625 651.833007812 343.499023438 639.5 c 0
 366.83203125 627.166992188 388.83203125 612.666992188 409.499023438 596 c 0
 430.166015625 579.333007812 450.499023438 559 470.499023438 535 c 0
 491.83203125 511 510.166015625 484.5 525.498046875 455.5 c 0
 540.831054688 426.5 552.998046875 391.833007812 561.998046875 351.5 c 0
 570.998046875 311.166992188 575.498046875 267.666992188 575.498046875 221 c 0
 575.498046875 199 572.501953125 176.166992188 566.501953125 152.5 c 0
EndSplineSet
EndChar

StartChar: E
Encoding: 69 69 38
Width: 670
GlyphClass: 2
Flags: HMW
HStem: -20 68.0039<216.124 276.796> -6 71.0039<502.791 534.796 510.458 534.796> 312.004 65.998 332.004 61.999 615.002 63.999
VStem: 108.457 76.0039
LayerCount: 2
Fore
SplineSet
523.45703125 -6 m 2x4c
 510.45703125 -6 l 2x4c
 495.124023438 -6 470.124023438 -7 435.45703125 -9 c 0
 334.790039062 -16.3330078125 265.123046875 -20 226.456054688 -20 c 0
 205.7890625 -20 188.456054688 -19.3330078125 174.456054688 -18 c 0
 161.123046875 -17.3330078125 147.623046875 -10.666015625 133.956054688 2.0009765625 c 0
 120.2890625 14.66796875 112.456054688 30.00390625 110.456054688 48.00390625 c 0
 108.456054688 64.00390625 107.456054688 91.333984375 107.456054688 130.000976562 c 0
 107.456054688 168.66796875 107.7890625 210.66796875 108.456054688 256.000976562 c 2
 108.456054688 343.500976562 l 2
 108.456054688 370.500976562 107.7890625 408.000976562 106.456054688 456.000976562 c 0
 105.7890625 496.000976562 105.456054688 522.333984375 105.456054688 535.000976562 c 0
 105.456054688 547.66796875 105.956054688 566.500976562 106.956054688 591.500976562 c 0
 107.956054688 616.500976562 108.456054688 632.333984375 108.456054688 639.000976562 c 0
 109.123046875 654.333984375 113.290039062 665.833984375 120.95703125 673.500976562 c 0
 128.624023438 681.16796875 137.791015625 685.000976562 148.458007812 685.000976562 c 1
 149.125 678.333984375 150.125 678.333984375 151.458007812 685.000976562 c 1
 164.125 684.333984375 173.791992188 679.666992188 180.458984375 671 c 0
 181.791992188 663.666992188 183.126953125 662.333984375 184.459960938 667.000976562 c 1
 186.459960938 661.000976562 188.458007812 661.333984375 190.458007812 668.000976562 c 1
 241.125 675.333984375 304.791992188 679.000976562 381.458984375 679.000976562 c 0
 402.791992188 679.000976562 421.791992188 678.66796875 438.458984375 678.000976562 c 0
 477.125976562 676.000976562 507.79296875 673.666992188 530.459960938 671 c 0
 544.459960938 669.666992188 553.626953125 666.834960938 557.959960938 662.501953125 c 0
 562.29296875 658.168945312 564.459960938 652.001953125 564.459960938 644.001953125 c 0
 564.459960938 626.668945312 559.79296875 616.001953125 550.459960938 612.001953125 c 0
 546.459960938 610.001953125 542.959960938 609.168945312 539.959960938 609.501953125 c 0
 536.959960938 609.834960938 534.459960938 610.001953125 532.459960938 610.001953125 c 0
 485.79296875 613.334960938 440.459960938 615.001953125 396.459960938 615.001953125 c 0
 381.126953125 615.001953125 365.793945312 614.668945312 350.4609375 614.001953125 c 0
 292.4609375 612.668945312 241.4609375 608.668945312 197.4609375 602.001953125 c 1
 194.793945312 595.334960938 192.126953125 595.001953125 189.459960938 601.001953125 c 1
 186.126953125 525.668945312 184.459960938 454.668945312 184.459960938 388.001953125 c 2
 184.459960938 378.001953125 l 1xac
 237.79296875 378.668945312 303.125976562 381.3359375 380.458984375 386.002929688 c 0
 460.458984375 391.3359375 505.458984375 394.002929688 515.458984375 394.002929688 c 0
 528.125976562 394.002929688 536.79296875 391.502929688 541.459960938 386.502929688 c 0
 546.126953125 381.502929688 548.459960938 374.669921875 548.459960938 366.002929688 c 0
 548.459960938 354.669921875 546.459960938 346.336914062 542.459960938 341.00390625 c 0
 537.126953125 335.00390625 528.293945312 332.00390625 515.9609375 332.00390625 c 0x1c
 503.627929688 332.00390625 454.4609375 328.670898438 368.4609375 322.00390625 c 0
 284.4609375 315.336914062 226.4609375 312.00390625 194.4609375 312.00390625 c 1
 191.793945312 304.670898438 188.793945312 304.337890625 185.4609375 311.004882812 c 1
 185.4609375 284.337890625 185.793945312 247.670898438 186.4609375 201.00390625 c 0
 186.4609375 172.336914062 186.793945312 149.00390625 187.4609375 131.00390625 c 0
 188.793945312 93.00390625 191.4609375 68.6708984375 195.4609375 58.00390625 c 0
 196.127929688 50.00390625 196.793945312 48.6708984375 197.4609375 54.00390625 c 1
 199.4609375 47.3369140625 201.12890625 47.00390625 202.461914062 53.00390625 c 1
 213.12890625 49.6708984375 234.12890625 48.00390625 265.461914062 48.00390625 c 0xac
 288.12890625 48.00390625 316.4609375 48.6708984375 350.4609375 50.00390625 c 0
 431.793945312 54.00390625 485.124023438 58.3369140625 510.45703125 63.00390625 c 0
 519.124023438 64.3369140625 526.294921875 65.00390625 531.961914062 65.00390625 c 0x4c
 537.62890625 65.00390625 542.461914062 64.00390625 546.461914062 62.00390625 c 0
 550.461914062 60.00390625 553.461914062 58.00390625 555.461914062 56.00390625 c 0
 557.461914062 54.00390625 559.12890625 51.3369140625 560.461914062 48.00390625 c 0x8c
 561.794921875 44.6708984375 562.794921875 41.837890625 563.461914062 39.5048828125 c 0
 564.12890625 37.171875 564.459960938 34.3388671875 564.459960938 31.005859375 c 0
 565.126953125 20.3388671875 561.795898438 11.005859375 554.462890625 3.005859375 c 0
 549.129882812 -3.6611328125 540.796875 -6.994140625 529.463867188 -6.994140625 c 0
 527.463867188 -6.3271484375 525.45703125 -6 523.45703125 -6 c 2x4c
EndSplineSet
EndChar

StartChar: F
Encoding: 70 70 39
Width: 670
GlyphClass: 2
Flags: HMW
HStem: 310.003 62 323.003 64.999 619.002 67.998 675.001 20G
VStem: 106.997 77.8028 110.997 84.001
LayerCount: 2
Fore
SplineSet
532.001953125 682 m 0x28
 545.334960938 680.666992188 554.001953125 677.833007812 558.001953125 673.5 c 0
 562.001953125 669.166992188 564.334960938 662.666992188 565.001953125 654 c 0
 565.001953125 644.666992188 562.001953125 636.333984375 556.001953125 629.000976562 c 0
 551.334960938 622.333984375 542.66796875 619.000976562 530.001953125 619.000976562 c 2
 529.001953125 619.000976562 l 2
 492.333984375 621.000976562 455.333984375 622.000976562 418.001953125 622.000976562 c 0
 349.333984375 622.000976562 273.333984375 618.333984375 190.001953125 611.000976562 c 1
 189.333984375 594.333984375 188.666992188 573.333984375 188 548.000976562 c 0
 185.866210938 502.670898438 184.799804688 458.194335938 184.799804688 414.571289062 c 0
 184.799804688 403.661132812 184.866210938 392.8046875 185 382.001953125 c 0
 189 376.001953125 192.666992188 376.334960938 196 383.001953125 c 1
 223.333984375 386.334960938 252.666015625 388.001953125 283.999023438 388.001953125 c 2
 305.999023438 388.001953125 l 2x68
 345.999023438 386.668945312 381.999023438 384.668945312 413.999023438 382.001953125 c 0
 446.666015625 378.668945312 473.333984375 375.3359375 494 372.002929688 c 0
 508.666992188 369.3359375 518 366.002929688 522 362.002929688 c 0
 526 358.002929688 528.333984375 352.002929688 529 344.002929688 c 0
 529 334.002929688 526.666992188 325.3359375 522 318.002929688 c 0
 519.333984375 312.669921875 512.666015625 310.002929688 501.999023438 310.002929688 c 2
 496.999023438 310.002929688 l 2x88
 476.33203125 313.3359375 447.999023438 316.3359375 411.999023438 319.002929688 c 0
 377.999023438 321.669921875 339.666015625 323.002929688 296.999023438 323.002929688 c 0
 256.33203125 322.3359375 221.999023438 320.002929688 193.999023438 316.002929688 c 1
 191.33203125 309.3359375 188.666015625 309.002929688 185.998046875 315.002929688 c 1
 188.666015625 208.3359375 191.666015625 108.3359375 194.998046875 15.0029296875 c 0
 193.666015625 3.669921875 188.498046875 -5.330078125 179.498046875 -11.9970703125 c 0
 170.498046875 -18.6640625 160.331054688 -21.9970703125 148.998046875 -21.9970703125 c 1
 148.331054688 -27.9970703125 147.331054688 -27.6640625 145.998046875 -20.9970703125 c 1
 135.33203125 -21.6640625 126.6640625 -18.3310546875 119.998046875 -10.998046875 c 0
 113.998046875 -4.998046875 110.998046875 3.3349609375 110.998046875 14.001953125 c 2
 110.998046875 19.001953125 l 2x44
 112.998046875 41.001953125 113.998046875 77.6689453125 113.998046875 129.001953125 c 0
 113.330078125 223.668945312 110.998046875 329.001953125 106.998046875 445.001953125 c 0
 105.6640625 489.668945312 104.998046875 519.668945312 104.998046875 535.001953125 c 0
 104.998046875 550.334960938 105.6640625 570.834960938 106.998046875 596.501953125 c 0
 108.330078125 622.168945312 108.998046875 640.001953125 108.998046875 650.001953125 c 0
 109.6640625 665.334960938 113.6640625 676.66796875 120.998046875 684.000976562 c 0
 128.330078125 691.333984375 137.6640625 695.000976562 148.99609375 695.000976562 c 1
 150.99609375 688.333984375 152.663085938 688.333984375 153.99609375 695.000976562 c 1x58
 166.663085938 695.000976562 176.330078125 690.66796875 182.998046875 682.000976562 c 1
 183.6640625 673.333984375 184.6640625 671.666992188 185.998046875 677 c 1
 265.998046875 683.666992188 340.998046875 687 410.998046875 687 c 0
 457.6640625 687 498.001953125 685.333007812 532.001953125 682 c 0x28
EndSplineSet
EndChar

StartChar: G
Encoding: 71 71 40
Width: 670
GlyphClass: 2
Flags: HMW
HStem: -31.002 72.002 248.5 74.501 285.998 64.5022 661 62.998
VStem: 95.4015 79.998
LayerCount: 2
Fore
SplineSet
499.3984375 705 m 0xb8
 532.731445312 692.333007812 553.731445312 681.333007812 562.3984375 672 c 0
 570.3984375 664 574.3984375 654.666992188 574.3984375 644 c 0
 575.065429688 638 574.065429688 631.333007812 571.3984375 624 c 0
 570.065429688 618 565.732421875 613.666992188 558.399414062 611 c 0
 553.732421875 609.666992188 549.899414062 609 546.899414062 609 c 0
 543.899414062 609 539.732421875 609.666992188 534.399414062 611 c 0
 530.399414062 612.333007812 521.232421875 617.333007812 506.899414062 626 c 0
 492.56640625 634.666992188 477.399414062 642.666992188 461.399414062 650 c 0
 446.06640625 657.333007812 432.06640625 661 419.399414062 661 c 0
 398.732421875 661 376.899414062 653.5 353.899414062 638.5 c 0
 330.899414062 623.5 309.232421875 602.5 288.899414062 575.5 c 0
 268.56640625 548.5 250.06640625 518 233.399414062 484 c 0
 216.06640625 449.333007812 202.06640625 410.5 191.399414062 367.5 c 0
 180.732421875 324.5 175.399414062 281 175.399414062 237 c 0
 175.399414062 205 181.399414062 174.166992188 193.399414062 144.5 c 0
 205.399414062 114.833007812 222.06640625 90 243.399414062 70 c 0
 264.06640625 50.6669921875 287.06640625 41 312.399414062 41 c 0
 329.06640625 41 345.733398438 46.6669921875 362.400390625 58 c 0
 379.067382812 69.3330078125 393.900390625 83.666015625 406.900390625 100.999023438 c 0
 419.900390625 118.33203125 432.067382812 137.33203125 443.400390625 157.999023438 c 0
 454.733398438 178.666015625 464.400390625 198.999023438 472.400390625 218.999023438 c 0
 480.400390625 238.999023438 486.733398438 257.33203125 491.400390625 273.999023438 c 0
 492.733398438 276.666015625 494.06640625 280.999023438 495.399414062 286.999023438 c 1
 490.732421875 285.666015625 486.065429688 285.333007812 481.3984375 286 c 0
 441.3984375 284 402.3984375 280.166992188 364.3984375 274.5 c 0
 326.3984375 268.833007812 299.731445312 261.333007812 284.3984375 252 c 0
 281.065429688 250 277.732421875 248.833007812 274.399414062 248.5 c 0
 271.06640625 248.166992188 267.733398438 249.333984375 264.400390625 252.000976562 c 0
 257.067382812 257.333984375 252.734375 264.333984375 251.401367188 273.000976562 c 2
 251.401367188 281.000976562 l 2
 251.401367188 298.333984375 261.734375 312.333984375 282.401367188 323.000976562 c 0xd8
 298.401367188 332.333984375 334.734375 339.666992188 391.401367188 345 c 0
 433.401367188 348.333007812 470.068359375 350 501.401367188 350 c 0
 507.401367188 350.333984375 513.068359375 350.500976562 518.401367188 350.500976562 c 0
 523.734375 350.500976562 528.734375 350.333984375 533.401367188 350 c 0
 548.068359375 348.666992188 557.735351562 346 562.40234375 342 c 0
 568.40234375 337.333007812 571.40234375 328.666015625 571.40234375 315.999023438 c 0
 571.40234375 309.33203125 570.235351562 303.665039062 567.90234375 298.998046875 c 0
 565.569335938 294.331054688 561.40234375 290.998046875 555.40234375 288.998046875 c 0
 553.40234375 286.331054688 551.40234375 285.331054688 549.40234375 285.998046875 c 1
 549.40234375 278.998046875 l 2
 549.40234375 276.998046875 548.90234375 271.665039062 547.90234375 262.998046875 c 0
 546.90234375 254.331054688 546.069335938 247.331054688 545.40234375 241.998046875 c 0
 544.069335938 227.998046875 540.069335938 211.831054688 533.40234375 193.498046875 c 0
 526.735351562 175.165039062 517.90234375 155.498046875 506.90234375 134.498046875 c 0
 495.90234375 113.498046875 482.735351562 92.998046875 467.40234375 72.998046875 c 0
 452.735351562 53.6650390625 437.068359375 35.998046875 420.401367188 19.998046875 c 0
 403.734375 3.998046875 385.401367188 -8.6689453125 365.401367188 -18.001953125 c 0
 345.401367188 -26.6689453125 325.068359375 -31.001953125 304.401367188 -31.001953125 c 2
 302.401367188 -31.001953125 l 1
 301.401367188 -31.001953125 l 2
 277.401367188 -31.001953125 254.734375 -26.6689453125 233.401367188 -18.001953125 c 0
 211.401367188 -8.6689453125 192.068359375 3.6640625 175.401367188 18.9970703125 c 0
 158.734375 34.330078125 144.234375 51.9970703125 131.901367188 71.9970703125 c 0
 119.568359375 91.9970703125 110.401367188 113.330078125 104.401367188 135.997070312 c 0
 98.4013671875 158.6640625 95.4013671875 181.331054688 95.4013671875 203.998046875 c 0
 95.4013671875 253.998046875 100.234375 302.665039062 109.901367188 349.998046875 c 0
 119.568359375 397.331054688 132.735351562 439.831054688 149.40234375 477.498046875 c 0
 166.069335938 515.165039062 185.736328125 549.665039062 208.403320312 580.998046875 c 0
 229.0703125 612.331054688 250.903320312 638.331054688 273.903320312 658.998046875 c 0
 296.903320312 679.665039062 320.403320312 695.665039062 344.403320312 706.998046875 c 0
 368.403320312 718.331054688 391.403320312 723.998046875 413.403320312 723.998046875 c 0
 437.403320312 723.998046875 466.065429688 717.666992188 499.3984375 705 c 0xb8
EndSplineSet
EndChar

StartChar: H
Encoding: 72 72 41
Width: 670
GlyphClass: 2
Flags: HMW
HStem: 311.994 66.002 674.994 20G
VStem: 123 79.499 464.499 83.001 473.499 80.001
LayerCount: 2
Fore
SplineSet
199.999023438 292 m 0xe8
 199.666015625 287.333007812 199.499023438 284 199.499023438 282 c 0
 197.499023438 248.666992188 196.499023438 209.833984375 196.499023438 165.500976562 c 0
 196.499023438 121.16796875 197.499023438 70.9951171875 199.499023438 14.9951171875 c 0
 198.166015625 3.662109375 192.833007812 -5.337890625 183.499023438 -12.0048828125 c 0
 174.166992188 -18.671875 163.833984375 -22.0048828125 152.500976562 -22.0048828125 c 1
 151.833984375 -28.0048828125 150.833984375 -27.671875 149.500976562 -21.0048828125 c 1
 139.500976562 -21.671875 131.16796875 -18.3388671875 124.500976562 -11.005859375 c 0
 118.500976562 -5.005859375 115.500976562 3 115.500976562 13 c 0
 116.16796875 15 116.500976562 16.994140625 116.500976562 18.994140625 c 0
 117.833984375 38.3271484375 118.500976562 81.3330078125 118.500976562 148 c 0
 118.500976562 182.666992188 118.833984375 214 119.500976562 242 c 2
 119.500976562 243 l 2
 119.500976562 265 120.000976562 297.166992188 121.000976562 339.5 c 0
 122.000976562 381.833007812 122.66796875 409.166015625 123.000976562 421.499023438 c 0
 123.333984375 433.83203125 123.500976562 446.165039062 123.500976562 458.498046875 c 0
 123.500976562 470.831054688 123.16796875 490.998046875 122.500976562 518.998046875 c 0
 121.833984375 546.998046875 121.500976562 565.498046875 121.500976562 574.498046875 c 0
 121.500976562 583.498046875 122.500976562 608.662109375 124.500976562 649.995117188 c 0
 125.16796875 665.328125 129.16796875 676.661132812 136.500976562 683.994140625 c 0
 143.833984375 691.327148438 153.166992188 694.994140625 164.499023438 694.994140625 c 2
 167.499023438 694.994140625 l 2
 178.166992188 694.994140625 187.166992188 691.827148438 194.499023438 685.494140625 c 0
 201.833007812 679.161132812 205.499023438 668.328125 205.499023438 652.995117188 c 0
 205.499023438 646.328125 204.666992188 632.1640625 202.999023438 610.497070312 c 0
 201.333007812 588.830078125 200.499023438 568.830078125 200.499023438 550.497070312 c 0
 200.499023438 532.1640625 200.833007812 505.1640625 201.499023438 469.497070312 c 0
 202.166992188 433.830078125 202.499023438 406.663085938 202.499023438 387.99609375 c 2
 202.499023438 377.99609375 l 2
 205.166992188 371.329101562 208.166992188 371.329101562 211.499023438 377.99609375 c 1
 264.833007812 379.329101562 328.833007812 385.662109375 403.499023438 396.995117188 c 0
 432.166992188 400.995117188 455.166992188 403.662109375 472.499023438 404.995117188 c 1
 472.499023438 413.995117188 l 2
 472.499023438 418.662109375 472.166992188 425.662109375 471.499023438 434.995117188 c 0
 470.833007812 444.328125 470.499023438 451.328125 470.499023438 455.995117188 c 0
 469.833007812 497.328125 469.499023438 524.495117188 469.499023438 537.495117188 c 0
 469.499023438 550.495117188 470.166992188 570.995117188 471.499023438 598.995117188 c 0
 472.833007812 626.995117188 473.499023438 643.995117188 473.499023438 649.995117188 c 0
 473.499023438 665.328125 477.333007812 676.661132812 484.999023438 683.994140625 c 0
 492.666992188 691.327148438 501.833984375 694.994140625 512.500976562 694.994140625 c 2
 515.500976562 694.994140625 l 2
 526.833984375 694.994140625 536.166992188 691.827148438 543.499023438 685.494140625 c 0
 550.833007812 679.161132812 554.499023438 668.328125 554.499023438 652.995117188 c 0
 554.499023438 640.328125 553.999023438 614.495117188 552.999023438 575.495117188 c 0
 551.999023438 536.495117188 551.499023438 501.995117188 551.499023438 471.995117188 c 0
 551.499023438 441.995117188 551.833007812 398.995117188 552.499023438 342.995117188 c 0
 553.166992188 327.662109375 553.499023438 305.995117188 553.499023438 277.995117188 c 0xe8
 553.499023438 249.995117188 552.499023438 206.495117188 550.499023438 147.495117188 c 0
 548.499023438 88.4951171875 547.499023438 46.9951171875 547.499023438 22.9951171875 c 2
 547.499023438 16.9951171875 l 1
 547.499023438 14.9951171875 l 2
 547.499023438 4.328125 542.166992188 -4.671875 531.499023438 -12.0048828125 c 0
 522.833007812 -18.671875 512.833007812 -22.0048828125 501.499023438 -22.0048828125 c 1
 500.833007812 -28.0048828125 499.833007812 -27.671875 498.499023438 -21.0048828125 c 1
 487.833007812 -21.671875 479.166992188 -18.3388671875 472.499023438 -11.005859375 c 0
 467.166992188 -5.005859375 464.499023438 3.3271484375 464.499023438 13.994140625 c 2
 464.499023438 18.994140625 l 1xf0
 470.499023438 103.661132812 473.499023438 197.661132812 473.499023438 300.994140625 c 2
 473.499023438 342.995117188 l 1
 469.499023438 336.328125 465.831054688 335.994140625 462.499023438 341.994140625 c 1
 451.166015625 341.327148438 413.166015625 335.994140625 348.499023438 325.994140625 c 0
 284.499023438 316.661132812 238.166015625 311.994140625 209.499023438 311.994140625 c 2
 200.499023438 311.994140625 l 1
 200.499023438 301.994140625 l 2
 200.499023438 299.994140625 200.331054688 296.666992188 199.999023438 292 c 0xe8
EndSplineSet
EndChar

StartChar: I
Encoding: 73 73 42
Width: 670
GlyphClass: 2
Flags: HMW
HStem: -6.40211 58.3992 612 69.001 624 64.001
VStem: 293.5 76.001 300.5 75.001
LayerCount: 2
Fore
SplineSet
297.501953125 540 m 2xc8
 297.501953125 546.666992188 298.166992188 560.001953125 299.500976562 580.001953125 c 0
 300.833984375 600.001953125 301.501953125 611.668945312 301.501953125 615.001953125 c 2
 301.501953125 624.001953125 l 1
 267.501953125 624.668945312 239.168945312 625.001953125 216.501953125 625.001953125 c 0
 191.834960938 625.001953125 174.834960938 624.834960938 165.501953125 624.501953125 c 0
 156.168945312 624.168945312 151.168945312 624.001953125 150.501953125 624.001953125 c 0
 137.168945312 624.001953125 127.3359375 626.834960938 121.002929688 632.501953125 c 0
 114.669921875 638.168945312 111.502929688 645.3359375 111.502929688 654.002929688 c 2
 111.502929688 657.002929688 l 2
 111.502929688 665.002929688 114.502929688 672.169921875 120.502929688 678.502929688 c 0
 126.502929688 684.8359375 136.8359375 688.002929688 151.502929688 688.002929688 c 0xa8
 206.834960938 690.002929688 256.499023438 691.002929688 300.499023438 691.002929688 c 0
 388.499023438 691.002929688 464.168945312 687.669921875 527.501953125 681.002929688 c 0
 538.834960938 679.669921875 547.502929688 677.002929688 553.502929688 673.002929688 c 0
 560.169921875 668.3359375 563.836914062 660.668945312 564.502929688 650.001953125 c 0
 564.502929688 640.001953125 561.502929688 630.668945312 555.502929688 622.001953125 c 0
 552.836914062 618.001953125 549.169921875 615.001953125 544.502929688 613.001953125 c 0
 541.169921875 611.668945312 538.169921875 611.001953125 535.502929688 611.001953125 c 0
 532.834960938 611.001953125 530.168945312 611.334960938 527.501953125 612.001953125 c 0
 506.834960938 615.334960938 456.166992188 619.001953125 375.500976562 623.001953125 c 1
 375.500976562 613.001953125 l 2
 375.500976562 607.668945312 375.166992188 590.168945312 374.500976562 560.501953125 c 0
 373.833984375 530.834960938 373.500976562 504.66796875 373.500976562 482.000976562 c 2
 373.500976562 436.000976562 l 2
 373.500976562 415.333984375 373.833984375 394.166992188 374.500976562 372.5 c 0
 375.166992188 350.833007812 375.500976562 326.166015625 375.500976562 298.499023438 c 0xc8
 375.500976562 270.83203125 374.500976562 227.999023438 372.500976562 169.999023438 c 0
 370.500976562 111.999023438 369.500976562 75.9990234375 369.500976562 61.9990234375 c 2
 369.500976562 51.9990234375 l 1
 378.500976562 51.9990234375 l 2
 402.500976562 51.9990234375 453.833984375 51.666015625 532.500976562 50.9990234375 c 0
 545.833984375 50.9990234375 554.666992188 48.4990234375 558.999023438 43.4990234375 c 0
 563.333007812 38.4990234375 565.833007812 31.666015625 566.499023438 22.9990234375 c 0
 566.499023438 17.666015625 565.999023438 12.9990234375 564.999023438 8.9990234375 c 0
 563.999023438 4.9990234375 562.166992188 0.9990234375 559.499023438 -3.0009765625 c 0
 558.166992188 -6.333984375 555.833984375 -8.5009765625 552.500976562 -9.5009765625 c 0
 549.166992188 -10.5009765625 546.000976562 -11.16796875 543.000976562 -11.5009765625 c 0
 540.000976562 -11.833984375 537.166992188 -11.6669921875 534.500976562 -11 c 0
 516.500976562 -8.3330078125 487.833984375 -7 448.500976562 -7 c 0
 443.833984375 -7 432.500976562 -6.8330078125 414.500976562 -6.5 c 0
 410.903320312 -6.43359375 407.052734375 -6.400390625 402.948242188 -6.400390625 c 0
 386.521484375 -6.400390625 366.038085938 -6.93359375 341.501953125 -8 c 2
 275.501953125 -15.2001953125 l 2
 260.834960938 -15.2001953125 246.166992188 -14.1337890625 231.500976562 -12.0009765625 c 0
 190.166992188 -13.333984375 161.666992188 -14.0009765625 146.000976562 -14.0009765625 c 0
 130.333984375 -14.0009765625 119.333984375 -11.5009765625 113.000976562 -6.5009765625 c 0
 106.66796875 -1.5009765625 103.500976562 4.9990234375 103.500976562 12.9990234375 c 2
 103.500976562 14.9990234375 l 2
 103.500976562 22.9990234375 106.500976562 30.166015625 112.500976562 36.4990234375 c 0
 118.500976562 42.83203125 128.833984375 46.33203125 143.500976562 46.9990234375 c 0
 171.500976562 47.666015625 221.500976562 48.998046875 293.500976562 50.998046875 c 1xd0
 298.166992188 133.665039062 300.500976562 215.999023438 300.500976562 297.999023438 c 0
 300.723632812 311.783203125 300.834960938 325.641601562 300.834960938 339.57421875 c 0
 300.834960938 367.418945312 300.389648438 395.560546875 299.501953125 423.998046875 c 0
 298.168945312 453.331054688 297.501953125 484.998046875 297.501953125 518.998046875 c 2
 297.501953125 540 l 2xc8
EndSplineSet
EndChar

StartChar: J
Encoding: 74 74 43
Width: 670
GlyphClass: 2
Flags: HMW
HStem: -34.999 82.001 626 65.001
VStem: 101.5 70 355.5 64.001
LayerCount: 2
Fore
SplineSet
239.500976562 626 m 0
 208.16796875 626 186.5 625.666015625 174.5 624.999023438 c 0
 162.5 624.33203125 156.166992188 623.999023438 155.5 623.999023438 c 0
 142.166992188 623.999023438 132.166992188 626.83203125 125.5 632.499023438 c 0
 118.833007812 638.166015625 115.5 645.333007812 115.5 654 c 2
 115.5 657 l 2
 115.5 665 118.666992188 672.166992188 125 678.5 c 0
 131.333007812 684.833007812 141.833007812 688 156.5 688 c 0
 211.166992188 690 260.5 691 304.5 691 c 0
 392.5 691 468.166992188 687.666992188 531.5 681 c 0
 542.833007812 680.333007812 551.5 677.666015625 557.5 672.999023438 c 0
 564.166992188 668.33203125 567.833984375 660.665039062 568.500976562 649.998046875 c 0
 568.500976562 639.998046875 565.500976562 630.665039062 559.500976562 621.998046875 c 0
 556.833984375 617.998046875 553.166992188 614.998046875 548.5 612.998046875 c 0
 545.833007812 611.665039062 543 610.998046875 540 610.998046875 c 0
 537 610.998046875 534.166992188 611.331054688 531.5 611.998046875 c 0
 511.5 615.331054688 472.833007812 618.331054688 415.5 620.998046875 c 1
 415.5 610.998046875 l 2
 415.5 591.665039062 416.166992188 562.33203125 417.5 522.999023438 c 0
 418.166992188 480.999023438 419.166992188 445.33203125 420.5 415.999023438 c 0
 421.833007812 387.999023438 422.5 353.83203125 422.5 313.499023438 c 0
 422.5 273.166015625 421.5 237.333007812 419.5 206 c 0
 414.833007812 146 407.666015625 98 397.999023438 62 c 0
 388.33203125 26 377.165039062 0.8330078125 364.498046875 -13.5 c 0
 351.831054688 -27.8330078125 336.831054688 -35 319.498046875 -35 c 0
 300.165039062 -35 280.83203125 -31.1669921875 261.499023438 -23.5 c 0
 242.166015625 -15.8330078125 225.166015625 -5.666015625 210.499023438 7.0009765625 c 0
 195.166015625 19.66796875 180.666015625 33.66796875 166.999023438 49.0009765625 c 0
 153.33203125 64.333984375 141.999023438 79.5009765625 132.999023438 94.5009765625 c 0
 123.999023438 109.500976562 116.83203125 123.000976562 111.499023438 135.000976562 c 0
 106.166015625 147.000976562 103.166015625 156.66796875 102.499023438 164.000976562 c 0
 101.83203125 167.333984375 101.499023438 171.000976562 101.499023438 175.000976562 c 0
 101.499023438 183.000976562 102.83203125 192.000976562 105.499023438 202.000976562 c 0
 106.83203125 208.66796875 109.999023438 214.16796875 114.999023438 218.500976562 c 0
 119.999023438 222.833984375 126.499023438 225.666992188 134.499023438 227 c 2
 142.499023438 227 l 2
 150.499023438 227.666992188 156.83203125 225.666992188 161.499023438 221 c 0
 168.166015625 214.333007812 171.499023438 206 171.499023438 196 c 0
 171.499023438 176.666992188 177.499023438 154.333984375 189.499023438 129.000976562 c 0
 196.166015625 115.000976562 204.833007812 102.000976562 215.5 90.0009765625 c 0
 224.833007812 78.0009765625 237.666015625 67.833984375 253.999023438 59.5009765625 c 0
 270.33203125 51.16796875 288.499023438 47.0009765625 308.499023438 47.0009765625 c 0
 323.166015625 47.0009765625 334.166015625 60.66796875 341.499023438 88.0009765625 c 0
 348.83203125 117.333984375 353.499023438 164.666992188 355.499023438 230 c 2
 355.499023438 254 l 2
 355.499023438 267.333007812 354.999023438 310 353.999023438 382 c 0
 353.399414062 425.202148438 353.099609375 471.404296875 353.099609375 520.606445312 c 0
 353.099609375 553.404296875 353.233398438 587.536132812 353.5 623.000976562 c 1
 307.5 625.000976562 269.500976562 626 239.500976562 626 c 0
EndSplineSet
EndChar

StartChar: K
Encoding: 75 75 44
Width: 670
GlyphClass: 2
Flags: HMW
HStem: -21.0341 21G 694.001 21G
VStem: 108.499 79.002 112.501 83
LayerCount: 2
Fore
SplineSet
106.5 541.5 m 0xe0
 106.5 556.5 107.16796875 578.333007812 108.500976562 607 c 0
 109.833984375 635 110.500976562 652.666992188 110.500976562 660 c 0
 111.16796875 678.666992188 115.16796875 692.333984375 122.500976562 701.000976562 c 0
 129.833984375 709.66796875 139.166992188 714.000976562 150.5 714.000976562 c 2
 153.5 714.000976562 l 2
 164.166992188 714.66796875 173.166992188 711.000976562 180.5 703.000976562 c 0
 187.83203125 695.66796875 191.5 682.334960938 191.5 663.001953125 c 0
 191.5 647.668945312 190.83203125 613.001953125 189.5 559.001953125 c 0
 188.166992188 505.001953125 187.166992188 452.334960938 186.5 401.001953125 c 1
 220.5 437.001953125 259.83203125 480.001953125 304.5 530.001953125 c 0
 393.83203125 625.334960938 446.5 680.001953125 462.5 694.001953125 c 0
 470.5 703.334960938 478.166992188 709.334960938 485.5 712.001953125 c 0
 490.166992188 714.001953125 494.166992188 715.001953125 497.5 715.001953125 c 0
 504.166992188 715.001953125 510.5 711.000976562 516.5 703.000976562 c 0
 521.83203125 694.333984375 524.5 685.334960938 524.5 676.001953125 c 0
 524.5 667.334960938 518.5 657.334960938 506.5 646.001953125 c 0
 496.5 634.001953125 462.5 597.668945312 404.5 537.001953125 c 0
 349.166992188 473.668945312 297.833984375 416.001953125 250.5 364.001953125 c 1
 256.5 357.001953125 l 2
 277.833984375 333.668945312 313.5 296.3359375 363.5 245.002929688 c 0
 464.16796875 142.3359375 524.5 79.3359375 544.5 56.0029296875 c 0
 553.16796875 46.0029296875 558.5 39.3359375 560.5 36.0029296875 c 0
 562.5 32.669921875 563.5 29.3369140625 563.5 26.00390625 c 0
 563.5 20.00390625 562.833984375 14.6708984375 561.5 10.00390625 c 0
 558.16796875 0.00390625 553.16796875 -7.6630859375 546.5 -12.99609375 c 0
 539.833984375 -18.3291015625 533.5 -20.9970703125 527.5 -20.9970703125 c 0
 527.10546875 -21.021484375 526.708984375 -21.0341796875 526.311523438 -21.0341796875 c 0
 515.9921875 -21.0341796875 505.0546875 -12.6875 493.5 4.0029296875 c 0
 486.166992188 13.3359375 462.5 36.3359375 422.5 73.0029296875 c 0
 385.166992188 110.3359375 344.833984375 151.3359375 301.5 196.002929688 c 0
 258.16796875 244.002929688 225.834960938 282.002929688 204.501953125 310.002929688 c 2
 187.501953125 331.002929688 l 1
 187.501953125 284.002929688 l 1xe0
 195.501953125 24.001953125 l 2
 194.834960938 9.3349609375 189.83203125 -1.9970703125 180.499023438 -9.9970703125 c 0
 171.166015625 -17.9970703125 160.8359375 -21.9970703125 149.502929688 -21.9970703125 c 1
 148.8359375 -27.9970703125 147.8359375 -27.6640625 146.502929688 -20.9970703125 c 1
 135.8359375 -21.6640625 127.168945312 -17.3310546875 120.501953125 -7.998046875 c 0
 115.168945312 0.001953125 112.501953125 10.6689453125 112.501953125 24.001953125 c 2
 112.501953125 28.001953125 l 2xd0
 114.501953125 50.001953125 115.501953125 86.6689453125 115.501953125 138.001953125 c 0
 114.834960938 233.334960938 112.5 339.001953125 108.5 455.001953125 c 0
 107.166992188 497.668945312 106.5 526.5 106.5 541.5 c 0xe0
EndSplineSet
EndChar

StartChar: L
Encoding: 76 76 45
Width: 670
GlyphClass: 2
Flags: HMW
HStem: -15 67.001
VStem: 136.498 72.0039
LayerCount: 2
Fore
SplineSet
553 72.5 m 0
 556 68.1669921875 558.5 63.5 560.5 58.5 c 0
 562.5 53.5 563.5 48.6669921875 563.5 44 c 0
 563.5 34 561.333007812 26.5 557 21.5 c 0
 552.666992188 16.5 543.166992188 12.6669921875 528.5 10 c 0
 483.833007812 1.3330078125 418.833007812 -5 333.5 -9 c 0
 247.5 -13 183.166992188 -15 140.5 -15 c 0
 130.5 -15.6669921875 122.166992188 -12.333984375 115.5 -5.0009765625 c 0
 109.5 0.9990234375 106.5 9.33203125 106.5 19.9990234375 c 0
 106.5 21.9990234375 106.666992188 24.9990234375 107 28.9990234375 c 0
 107.333007812 32.9990234375 111.166015625 69.9990234375 118.499023438 139.999023438 c 0
 125.83203125 211.33203125 131.165039062 279.999023438 134.498046875 345.999023438 c 0
 135.831054688 363.999023438 136.498046875 388.166015625 136.498046875 418.499023438 c 0
 136.498046875 448.83203125 136.331054688 471.83203125 135.998046875 487.499023438 c 0
 135.665039062 503.166015625 134.83203125 554.333007812 133.499023438 641 c 0
 134.166015625 657 138.333007812 668.666992188 146 676 c 0
 153.666992188 683.333007812 162.833984375 687 173.500976562 687 c 2
 176.500976562 687 l 2
 187.16796875 687 196.16796875 683.666992188 203.500976562 677 c 0
 210.833984375 670.333007812 214.500976562 659.666015625 214.500976562 644.999023438 c 0
 214.723632812 638.7734375 214.834960938 631.732421875 214.834960938 623.875976562 c 0
 214.834960938 608.174804688 214.390625 589.215820312 213.501953125 566.999023438 c 0
 211.501953125 517.666015625 209.834960938 475.333007812 208.501953125 440 c 0
 206.501953125 389.333007812 204.833984375 345.333007812 203.500976562 308 c 0
 202.833984375 280.666992188 200.501953125 240.333984375 196.501953125 187.000976562 c 0
 192.501953125 133.66796875 190.501953125 92.0009765625 190.501953125 62.0009765625 c 2
 190.501953125 52.0009765625 l 1
 214.500976562 52.0009765625 l 2
 263.833984375 52.66796875 321.16796875 56.3349609375 386.500976562 63.001953125 c 0
 454.500976562 69.6689453125 501.16796875 76.001953125 526.500976562 82.001953125 c 0
 529.16796875 82.6689453125 531.66796875 83.001953125 534.000976562 83.001953125 c 0
 536.333984375 83.001953125 538.833984375 82.6689453125 541.500976562 82.001953125 c 0
 546.16796875 80.001953125 550 76.8330078125 553 72.5 c 0
EndSplineSet
EndChar

StartChar: M
Encoding: 77 77 46
Width: 670
GlyphClass: 2
Flags: HMW
HStem: -10 21G<113.499 118.834> 684.001 20G
VStem: 84.4995 68.001 290.501 85.999
LayerCount: 2
Fore
SplineSet
141.5 5 m 0
 133.5 -5 124.166992188 -10 113.5 -10 c 0
 94.1669921875 -9.3330078125 84.5 13.333984375 84.5 58.0009765625 c 0
 84.5 66.0009765625 85.3330078125 79.833984375 87 99.5009765625 c 0
 88.6669921875 119.16796875 91.1669921875 145.000976562 94.5 177.000976562 c 0
 97.8330078125 209.000976562 100.5 237.000976562 102.5 261.000976562 c 0
 108.5 342.333984375 112.5 394.000976562 114.5 416.000976562 c 0
 117.166992188 444.66796875 120.5 480.000976562 124.5 522.000976562 c 0
 132.5 603.333984375 140.83203125 652.333984375 149.5 669.000976562 c 0
 156.166992188 681.000976562 165.5 690.000976562 177.5 696.000976562 c 0
 188.83203125 701.333984375 199.5 704.000976562 209.5 704.000976562 c 2
 213.5 704.000976562 l 2
 224.83203125 704.000976562 234.166015625 702.000976562 241.499023438 698.000976562 c 0
 250.166015625 692.66796875 255.83203125 684.334960938 258.5 673.001953125 c 0
 265.83203125 643.668945312 274 595.3359375 283 528.002929688 c 0
 292 460.669921875 301.166992188 383.502929688 310.5 296.502929688 c 0
 319.83203125 209.502929688 326.5 152.002929688 330.5 124.002929688 c 0
 333.16796875 106.669921875 336.166992188 84 339.5 56 c 1
 341.5 83.3330078125 343.166992188 106.002929688 344.5 124.002929688 c 0
 350.5 218.669921875 357.5 303.669921875 365.5 379.002929688 c 0
 371.5 434.3359375 379.33203125 489.668945312 389 545.001953125 c 0
 398.666992188 600.334960938 407.166992188 643.001953125 414.5 673.001953125 c 0
 416.5 681.001953125 421 687.668945312 428 693.001953125 c 0
 435 698.334960938 442.166992188 701.66796875 449.5 703.000976562 c 0
 454.83203125 703.66796875 459.5 704.000976562 463.5 704.000976562 c 2
 473.5 704.000976562 l 1
 477.5 704.000976562 l 1
 490.5 704.000976562 l 2
 493.83203125 704.000976562 498.33203125 703.333984375 504 702.000976562 c 0
 509.666992188 700.66796875 513.833984375 698.834960938 516.5 696.501953125 c 0
 519.16796875 694.168945312 522 690.668945312 525 686.001953125 c 0
 528 681.334960938 530.16796875 675.334960938 531.5 668.001953125 c 0
 534.16796875 647.334960938 542 547.501953125 555 368.501953125 c 0
 568 189.501953125 577.16796875 88.001953125 582.5 64.001953125 c 0
 584.5 53.3349609375 585.5 43.66796875 585.5 35.0009765625 c 0
 585.5 15.0009765625 578.5 1.66796875 564.5 -4.9990234375 c 0
 559.833984375 -6.9990234375 555 -7.9990234375 550 -7.9990234375 c 0
 545 -7.9990234375 539.5 -6.33203125 533.5 -2.9990234375 c 0
 523.5 2.333984375 515.5 14.333984375 509.5 33.0009765625 c 0
 495.5 77.0009765625 483.16796875 271.000976562 472.5 615.000976562 c 0
 471.833984375 631.66796875 471.166992188 653.000976562 470.5 679.000976562 c 1
 466.5 653.66796875 462.5 633.000976562 458.5 617.000976562 c 0
 439.83203125 520.333984375 427.83203125 432.333984375 422.5 353.000976562 c 0
 417.166992188 277.000976562 409.666992188 205.000976562 400 137.000976562 c 0
 390.33203125 69.0009765625 382.5 27.66796875 376.5 13.0009765625 c 0
 371.166992188 -0.33203125 355.833984375 -6.9990234375 330.5 -6.9990234375 c 2
 326.5 -6.9990234375 l 2
 317.16796875 -6.9990234375 309.16796875 -5.166015625 302.5 -1.4990234375 c 0
 295.833984375 2.16796875 291.833984375 7.3349609375 290.5 14.001953125 c 0
 283.16796875 46.001953125 270.834960938 119.168945312 253.501953125 233.501953125 c 0
 236.16796875 347.834960938 220.16796875 458.001953125 205.501953125 564.001953125 c 0
 202.16796875 579.334960938 199.16796875 599.66796875 196.501953125 625.000976562 c 1
 194.501953125 599.66796875 192.501953125 579.334960938 190.501953125 564.001953125 c 0
 185.834960938 505.334960938 182.16796875 457.66796875 179.5 421.000976562 c 0
 177.5 387.000976562 175.5 358.000976562 173.5 334.000976562 c 0
 171.5 300.66796875 169.5 271.66796875 167.5 247.000976562 c 0
 165.5 219.000976562 163.16796875 190.000976562 160.5 160.000976562 c 0
 158.5 131.333984375 156.5 107.666992188 154.5 89 c 0
 153.16796875 75 152.5 64 152.5 56 c 0
 153.16796875 48 153.5 46 153.5 46 c 2
 153.5 28.6669921875 149.5 15 141.5 5 c 0
EndSplineSet
EndChar

StartChar: N
Encoding: 78 78 47
Width: 670
GlyphClass: 2
Flags: HMW
HStem: -11.998 21G 685 20G<156.5 164.5 516.501 524.834>
VStem: 108.501 63 115.751 58.7499 488.502 72.999 499.002 62.4988
LayerCount: 2
Fore
SplineSet
521.500976562 705 m 0xc8
 528.16796875 705 533.5 704.333007812 537.5 703 c 0
 541.5 701 544.5 699 546.5 697 c 0
 548.5 695 550.166992188 690.666992188 551.5 684 c 0
 553.5 680 554.833007812 675.666992188 555.5 671 c 0
 556.166992188 666.333007812 557.166992188 659 558.5 649 c 0
 559.833007812 639.666992188 560.833007812 586.666992188 561.5 490 c 2
 561.5 448 l 2
 561.5 364 560.5 285.666992188 558.5 213 c 0
 556.5 139.666992188 554.166992188 89.6669921875 551.5 63 c 0
 548.833007812 35 546.166015625 17.6669921875 543.499023438 11 c 0
 538.166015625 -5.6669921875 522.833007812 -14 497.5 -14 c 1
 495.5 -20.6669921875 493.833007812 -20.6669921875 492.5 -14 c 1
 483.833007812 -14 476.5 -11.6669921875 470.5 -7 c 0
 464.5 -2.3330078125 460.166992188 4 457.5 12 c 0
 452.833007812 22.6669921875 437.5 52.333984375 411.5 101.000976562 c 2
 337.5 247.000976562 l 2
 312.166992188 295.66796875 285.833984375 350.334960938 258.500976562 411.001953125 c 0
 230.500976562 473.001953125 208.833984375 525.668945312 193.500976562 569.001953125 c 0
 185.500976562 592.334960938 177.833984375 613.334960938 170.500976562 632.001953125 c 1
 171.833984375 610.001953125 173.166992188 586.668945312 174.5 562.001953125 c 0
 177.833007812 504.668945312 179.5 450.001953125 179.5 398.001953125 c 0
 179.5 384.668945312 179.166992188 359.3359375 178.5 322.002929688 c 0
 177.833007812 284.002929688 176.5 237.669921875 174.5 183.002929688 c 0xd8
 172.5 128.3359375 171.5 90.6689453125 171.5 70.001953125 c 2
 171.5 62.001953125 l 2
 172.166992188 57.3349609375 172.5 53.3349609375 172.5 50.001953125 c 2
 172.5 44.001953125 l 2
 172.5 24.6689453125 169.166992188 10.6689453125 162.5 2.001953125 c 0
 155.833007812 -7.3310546875 147.5 -11.998046875 137.5 -11.998046875 c 2
 135.5 -11.998046875 l 2
 130.833007812 -11.998046875 126.833007812 -10.6650390625 123.5 -7.998046875 c 0
 120.166992188 -5.3310546875 117.5 -0.6640625 115.5 6.0029296875 c 0
 110.833007812 16.669921875 108.5 33.0029296875 108.5 55.0029296875 c 0xe0
 108.5 67.669921875 109.5 119.002929688 111.5 209.002929688 c 0
 113.5 299.669921875 114.833007812 378.669921875 115.5 446.002929688 c 0
 115.666992188 462.837890625 115.75 479.505859375 115.75 496.006835938 c 0
 115.75 545.504882812 115 593.50390625 113.5 640.002929688 c 2
 113.5 647.002929688 l 2
 114.166992188 657.002929688 115.833984375 666.002929688 118.500976562 674.002929688 c 0
 121.16796875 682.669921875 125.16796875 689.336914062 130.500976562 694.00390625 c 0
 139.833984375 701.336914062 150.5 705 162.5 705 c 0
 166.5 705 170.16796875 704.670898438 173.500976562 704.00390625 c 2
 174.5 704.00390625 l 2
 185.166992188 704.00390625 194.16796875 701.666992188 201.500976562 697 c 0
 210.16796875 691.666992188 216.16796875 682.00390625 219.500976562 668.00390625 c 0
 232.833984375 624.00390625 268.833984375 541.336914062 327.500976562 420.00390625 c 0
 385.500976562 299.336914062 435.833984375 202.00390625 478.500976562 128.00390625 c 0
 483.833984375 115.336914062 489.166992188 106.00390625 494.5 100.00390625 c 1
 495.166992188 110.00390625 495.833984375 122.336914062 496.500976562 137.00390625 c 0
 497.833984375 179.670898438 498.500976562 234.670898438 498.500976562 302.00390625 c 0
 498.834960938 318.670898438 499.001953125 336.170898438 499.001953125 354.50390625 c 0xd4
 499.001953125 372.836914062 498.834960938 392.00390625 498.501953125 412.00390625 c 0
 496.501953125 532.670898438 493.168945312 612.337890625 488.501953125 651.004882812 c 1
 488.501953125 657.004882812 l 2
 488.501953125 669.671875 491.168945312 680.338867188 496.501953125 689.005859375 c 0
 503.168945312 699.672851562 511.500976562 705 521.500976562 705 c 0xc8
EndSplineSet
EndChar

StartChar: O
Encoding: 79 79 48
Width: 670
GlyphClass: 2
Flags: HMW
HStem: -23.998 73.999 646.508 71.4923
VStem: 109.5 77.002 483.501 76.999
LayerCount: 2
Fore
SplineSet
439.5 120.001953125 m 0
 452.166992188 137.334960938 461.833984375 157.001953125 468.500976562 179.001953125 c 0
 471.16796875 187.668945312 474.000976562 208.001953125 477.000976562 240.001953125 c 0
 480.000976562 272.001953125 482.16796875 309.668945312 483.500976562 353.001953125 c 0
 484.16796875 365.668945312 484.500976562 378.3359375 484.500976562 391.002929688 c 0
 484.500976562 422.3359375 483.16796875 453.002929688 480.500976562 483.002929688 c 0
 476.500976562 529.002929688 461.500976562 567.669921875 435.500976562 599.002929688 c 0
 411.500976562 630.3359375 381.833984375 646.168945312 346.500976562 646.501953125 c 0
 346.095703125 646.505859375 345.690429688 646.5078125 345.286132812 646.5078125 c 0
 310.487304688 646.5078125 281.225585938 632.338867188 257.500976562 604.000976562 c 0
 234.16796875 576.000976562 216.834960938 537.66796875 205.501953125 489.000976562 c 0
 192.834960938 437.000976562 186.501953125 377.66796875 186.501953125 311.000976562 c 0
 187.168945312 269.66796875 189.501953125 233.334960938 193.501953125 202.001953125 c 0
 195.501953125 183.334960938 199.501953125 164.66796875 205.501953125 146.000976562 c 0
 211.501953125 127.333984375 218.834960938 111.000976562 227.501953125 97.0009765625 c 0
 235.501953125 83.0009765625 246.168945312 71.66796875 259.501953125 63.0009765625 c 0
 272.834960938 54.333984375 287.833007812 50.0009765625 304.5 50.0009765625 c 0
 339.833007812 50.0009765625 371.501953125 59.66796875 399.501953125 79.0009765625 c 0
 414.168945312 89.0009765625 427.5 102.668945312 439.5 120.001953125 c 0
109.5 261 m 2
 109.5 291.666992188 109.833984375 316.166992188 110.500976562 334.5 c 0
 111.16796875 352.833007812 112.500976562 377.333007812 114.500976562 408 c 0
 118.500976562 467.333007812 129.500976562 522 147.500976562 572 c 0
 164.16796875 614.666992188 192.500976562 649.666992188 232.500976562 677 c 0
 269.16796875 704.333007812 310.834960938 718 357.501953125 718 c 0
 380.834960938 718 403.16796875 713 424.500976562 703 c 0
 446.500976562 693 466.833984375 678.5 485.500976562 659.5 c 0
 504.16796875 640.5 519.66796875 616.166992188 532.000976562 586.5 c 0
 544.333984375 556.833007812 552.166992188 523.333007812 555.5 486 c 0
 558.833007812 444.666992188 560.5 402.333984375 560.5 359.000976562 c 0
 560.5 325.66796875 559.333007812 290.834960938 557 254.501953125 c 0
 554.666992188 218.168945312 550.5 188.668945312 544.5 166.001953125 c 0
 535.833007812 134.668945312 525.333007812 107.668945312 513 85.001953125 c 0
 500.666992188 62.3349609375 487.333984375 44.001953125 473.000976562 30.001953125 c 0
 458.66796875 16.001953125 442.16796875 5.001953125 423.500976562 -2.998046875 c 0
 406.16796875 -10.998046875 388.16796875 -16.6650390625 369.500976562 -19.998046875 c 0
 350.833984375 -22.6650390625 329.166992188 -23.998046875 304.5 -23.998046875 c 0
 269.166992188 -23.998046875 236.5 -11.998046875 206.5 12.001953125 c 0
 175.166992188 36.001953125 151.166992188 68.001953125 134.5 108.001953125 c 0
 117.833007812 148.001953125 109.5 191.334960938 109.5 238.001953125 c 2
 109.5 243.001953125 l 1
 109.5 261 l 2
EndSplineSet
EndChar

StartChar: P
Encoding: 80 80 49
Width: 670
GlyphClass: 2
Flags: HMW
HStem: -19 21G<165.501 171.501 171.501 174.501> 230 71.998 639.996 52.0029
VStem: 128.501 75 135.701 81.7989 478.5 73<470.999 514.997>
LayerCount: 2
Fore
SplineSet
206.500976562 630.998046875 m 1xf4
 203.500976562 547.998046875 l 2
 201.3671875 480.26953125 200.30078125 417.874023438 200.30078125 360.810546875 c 0
 200.30078125 346.5390625 200.3671875 332.6015625 200.500976562 318.998046875 c 1
 207.500976562 316.998046875 l 2
 234.833984375 306.998046875 265.500976562 301.998046875 299.500976562 301.998046875 c 0
 317.500976562 301.998046875 334.000976562 303.498046875 349.000976562 306.498046875 c 0
 364.000976562 309.498046875 377.16796875 313.498046875 388.500976562 318.498046875 c 0
 399.833984375 323.498046875 409.833984375 329.998046875 418.500976562 337.998046875 c 0
 427.833984375 345.998046875 435.833984375 354.165039062 442.500976562 362.498046875 c 0
 449.16796875 370.831054688 454.834960938 380.331054688 459.501953125 390.998046875 c 0
 464.168945312 401.665039062 467.668945312 411.498046875 470.001953125 420.498046875 c 0
 472.334960938 429.498046875 474.16796875 439.665039062 475.500976562 450.998046875 c 0
 476.833984375 462.331054688 477.666992188 471.6640625 478 478.997070312 c 0
 478.333007812 486.330078125 478.5 494.997070312 478.5 504.997070312 c 0
 478.5 524.997070312 474.833007812 543.1640625 467.5 559.497070312 c 0
 460.166992188 575.830078125 450.833007812 588.997070312 439.5 598.997070312 c 0
 428.833007812 608.330078125 417.000976562 616.163085938 404.000976562 622.49609375 c 0
 391.000976562 628.829101562 378.66796875 633.329101562 367.000976562 635.99609375 c 0
 355.333984375 638.663085938 343.833007812 639.99609375 332.5 639.99609375 c 0
 311.833007812 639.99609375 269.833984375 636.998046875 206.500976562 630.998046875 c 1xf4
127.5 626 m 1
 126.166992188 621.333007812 124.5 622.998046875 122.5 630.998046875 c 0
 119.833007812 635.665039062 118.5 640 118.5 644 c 0
 119.166992188 644.666992188 119.5 645.666992188 119.5 647 c 0
 120.166992188 653.666992188 122.666992188 659.5 127 664.5 c 0
 131.333007812 669.5 135.833007812 672.666992188 140.5 674 c 0
 163.833007812 679.333007812 198.5 683.666015625 244.5 686.999023438 c 0
 286.5 690.33203125 315.833007812 691.999023438 332.5 691.999023438 c 0
 372.5 691.999023438 408.166992188 684.33203125 439.5 668.999023438 c 0
 473.5 653.666015625 500.5 630.666015625 520.5 599.999023438 c 0
 540.5 569.33203125 550.833007812 532.33203125 551.5 488.999023438 c 0
 551.5 452.999023438 545.666992188 419.166015625 534 387.499023438 c 0
 522.333007812 355.83203125 506.333007812 328.33203125 486 304.999023438 c 0
 465.666992188 281.666015625 441.5 263.333007812 413.5 250 c 0
 386.833007812 236.666992188 357.833007812 230 326.5 230 c 0
 279.833007812 230 242.5 233.333007812 214.5 240 c 1
 209.833007812 234.666992188 205.5 235.666992188 201.5 243 c 1
 204.166992188 189.666992188 208.166992188 130.666992188 213.5 66 c 0
 216.166992188 35.3330078125 217.5 17.666015625 217.5 12.9990234375 c 2
 217.5 11.9990234375 l 2
 217.5 2.666015625 213.5 -4.6669921875 205.5 -10 c 0
 196.166992188 -16 185.833984375 -19 174.500976562 -19 c 2
 171.500976562 -19 l 2
 159.500976562 -19 149.833984375 -15.6669921875 142.500976562 -9 c 0
 137.16796875 -3.6669921875 134.500976562 3.666015625 134.500976562 12.9990234375 c 0
 134.500976562 14.9990234375 134.66796875 20.166015625 135.000976562 28.4990234375 c 0
 135.333984375 36.83203125 135.500976562 55.6650390625 135.500976562 84.998046875 c 0
 135.634765625 91.7998046875 135.701171875 100.109375 135.701171875 109.926757812 c 0xec
 135.701171875 149.180664062 134.634765625 212.538085938 132.500976562 299.998046875 c 0
 130.500976562 371.998046875 129.500976562 420.998046875 129.500976562 446.998046875 c 0
 128.833984375 462.998046875 128.500976562 484.498046875 128.500976562 511.498046875 c 0
 128.500976562 538.498046875 129.16796875 575.665039062 130.500976562 622.998046875 c 1
 129.16796875 617.665039062 128.166992188 618.666992188 127.5 626 c 1
EndSplineSet
EndChar

StartChar: Q
Encoding: 81 81 50
Width: 670
GlyphClass: 2
Flags: HMW
HStem: -24.0667 74.0667 646.001 71.999
VStem: 105.514 75.998 302.509 51.0039 483.512 74.002
LayerCount: 2
Fore
SplineSet
252.514648438 -11 m 0
 230.514648438 -1.6669921875 210.513671875 11.166015625 192.513671875 27.4990234375 c 0
 174.513671875 43.83203125 159.180664062 63.33203125 146.513671875 85.9990234375 c 0
 121.846679688 129.999023438 108.1796875 182.666015625 105.512695312 243.999023438 c 2
 105.512695312 295.999023438 l 2
 105.49609375 298.634765625 105.48828125 301.259765625 105.48828125 303.874023438 c 0
 105.48828125 408.397460938 118.49609375 496.10546875 144.512695312 566.999023438 c 0
 159.845703125 609.666015625 187.845703125 645.333007812 228.512695312 674 c 0
 266.512695312 703.333007812 308.512695312 718 354.512695312 718 c 0
 402.512695312 717.333007812 444.512695312 699.333007812 480.512695312 664 c 0
 498.512695312 646.666992188 513.845703125 622.833984375 526.512695312 592.500976562 c 0
 539.1796875 562.16796875 547.512695312 527.66796875 551.512695312 489.000976562 c 0
 555.512695312 450.333984375 557.512695312 406.000976562 557.512695312 356.000976562 c 0
 557.512695312 269.333984375 553.1796875 204.000976562 544.512695312 160.000976562 c 0
 530.512695312 89.333984375 499.1796875 39.0009765625 450.512695312 9.0009765625 c 0
 447.1796875 2.333984375 444.1796875 0.6669921875 441.512695312 4 c 1
 458.845703125 -21.3330078125 475.178710938 -44.3330078125 490.51171875 -65 c 0
 505.178710938 -85 516.01171875 -99.5 523.01171875 -108.5 c 0
 530.01171875 -117.5 542.51171875 -133.666992188 560.51171875 -157 c 0
 563.178710938 -160.333007812 564.51171875 -164.333007812 564.51171875 -169 c 2
 564.51171875 -173 l 2
 563.178710938 -180.333007812 560.678710938 -187.166015625 557.01171875 -193.499023438 c 0
 553.344726562 -199.83203125 549.51171875 -204.33203125 545.51171875 -206.999023438 c 0
 540.178710938 -210.33203125 534.51171875 -211.999023438 528.51171875 -211.999023438 c 0
 525.844726562 -211.999023438 522.844726562 -211.666015625 519.51171875 -210.999023438 c 0
 509.51171875 -207.666015625 500.51171875 -201.333007812 492.51171875 -192 c 0
 482.51171875 -180.666992188 466.51171875 -158.666992188 444.51171875 -126 c 0
 424.51171875 -93.3330078125 403.51171875 -58 381.51171875 -20 c 1
 379.51171875 -26.6669921875 377.51171875 -27 375.51171875 -21 c 1
 360.178710938 -23 343.178710938 -24 324.51171875 -24 c 0
 322.778320312 -24.044921875 321.053710938 -24.0673828125 319.337890625 -24.0673828125 c 0
 295.321289062 -24.0673828125 273.047851562 -19.7109375 252.514648438 -11 c 0
341.51171875 208.999023438 m 0
 346.178710938 205.666015625 350.178710938 199.333007812 353.51171875 190 c 0
 364.178710938 156.666992188 380.178710938 120.333984375 401.51171875 81.0009765625 c 2
 406.51171875 71.0009765625 l 1
 414.51171875 77.0009765625 l 2
 443.844726562 98.333984375 463.177734375 131.333984375 472.510742188 176.000976562 c 0
 474.510742188 185.333984375 476.84375 205.666992188 479.510742188 237 c 0
 481.510742188 267.666992188 482.84375 306 483.510742188 352 c 2
 483.510742188 368 l 2
 483.59375 373.084960938 483.635742188 378.138671875 483.635742188 383.161132812 c 0
 483.635742188 418.305664062 481.59375 451.918945312 477.510742188 484.000976562 c 0
 471.510742188 532.66796875 456.177734375 572.000976562 431.510742188 602.000976562 c 0
 408.84375 631.333984375 379.510742188 646.000976562 343.510742188 646.000976562 c 0
 307.510742188 646.000976562 277.510742188 632.333984375 253.510742188 605.000976562 c 0
 229.510742188 577.66796875 211.84375 539.66796875 200.510742188 491.000976562 c 0
 187.84375 439.000976562 181.510742188 383.66796875 181.510742188 325.000976562 c 2
 181.510742188 321.000976562 l 2
 182.177734375 302.333984375 183.177734375 282.666992188 184.510742188 262 c 0
 187.177734375 221.333007812 194.677734375 185.5 207.010742188 154.5 c 0
 219.34375 123.5 235.676757812 98.3330078125 256.009765625 79 c 0
 276.342773438 59.6669921875 299.17578125 50 324.508789062 50 c 2
 333.508789062 50 l 1
 348.508789062 50 l 1
 341.508789062 65 l 2
 326.841796875 94.3330078125 316.674804688 116.833007812 311.0078125 132.5 c 0
 305.340820312 148.166992188 302.5078125 161.666992188 302.5078125 173 c 0
 302.5078125 187 307.174804688 198 316.5078125 206 c 0
 321.840820312 210.666992188 326.840820312 213 331.5078125 213 c 0
 334.840820312 213 338.178710938 211.666015625 341.51171875 208.999023438 c 0
EndSplineSet
EndChar

StartChar: R
Encoding: 82 82 51
Width: 670
GlyphClass: 2
Flags: HMW
HStem: -18.998 21G 280.633 68.3692 675.001 20G
VStem: 110.501 76.001 114.502 83.998 119.168 59.3317 120.001 70.5 476.499 72.0029
LayerCount: 2
Fore
SplineSet
454.501953125 504.000976562 m 0xe3
 439.834960938 522.66796875 422.500976562 538.834960938 402.500976562 552.501953125 c 0
 382.500976562 566.168945312 360.16796875 578.668945312 335.500976562 590.001953125 c 0
 288.833984375 610.668945312 242.833984375 625.001953125 197.500976562 633.001953125 c 2
 186.500976562 635.001953125 l 1xf1
 187.833984375 578.334960938 189.166992188 532.334960938 190.5 497.001953125 c 0
 190.5 485.001953125 189.499023438 465.334960938 187.499023438 438.001953125 c 0
 186.83203125 429.334960938 184.166015625 400.334960938 179.499023438 351.001953125 c 1
 187.499023438 350.001953125 l 2
 196.260742188 348.477539062 206.981445312 347.715820312 219.661132812 347.715820312 c 0
 229.171875 347.715820312 239.784179688 348.14453125 251.499023438 349.001953125 c 0
 329.499023438 352.334960938 382.83203125 359.334960938 411.499023438 370.001953125 c 0
 422.83203125 374.001953125 433.499023438 379.334960938 443.499023438 386.001953125 c 0
 465.499023438 400.001953125 476.499023438 419.668945312 476.499023438 445.001953125 c 0
 476.499023438 465.668945312 469.168945312 485.333984375 454.501953125 504.000976562 c 0xe3
489.500976562 3 m 0
 478.833984375 17 463.49609375 34.66796875 443.49609375 56.0009765625 c 0
 425.49609375 76.66796875 403.666015625 99.5009765625 377.999023438 124.500976562 c 0
 352.33203125 149.500976562 323.165039062 174.333984375 290.498046875 199.000976562 c 0
 257.831054688 223.66796875 224.831054688 243.334960938 191.498046875 258.001953125 c 1
 186.831054688 253.334960938 182.1640625 255.334960938 177.497070312 264.001953125 c 1
 178.1640625 252.668945312 178.497070312 249.001953125 178.497070312 249.001953125 c 2xe5
 179.830078125 210.334960938 183.497070312 163.001953125 189.497070312 107.001953125 c 0
 195.497070312 51.001953125 198.497070312 19.3349609375 198.497070312 12.001953125 c 0
 197.830078125 2.6689453125 193.497070312 -4.6640625 185.497070312 -9.9970703125 c 0
 176.1640625 -15.9970703125 165.831054688 -18.9970703125 154.498046875 -18.9970703125 c 2
 151.498046875 -18.9970703125 l 2
 140.165039062 -18.9970703125 130.83203125 -15.6640625 123.499023438 -8.9970703125 c 0
 117.499023438 -3.6640625 114.499023438 3.6689453125 114.499023438 13.001953125 c 0xe9
 115.166015625 14.3349609375 115.499023438 16.3349609375 115.499023438 19.001953125 c 0
 117.499023438 53.6689453125 118.666015625 83.501953125 118.999023438 108.501953125 c 0
 119.110351562 116.827148438 119.166015625 129.051757812 119.166015625 145.176757812 c 0xe5
 119.166015625 177.473632812 118.943359375 225.415039062 118.498046875 289.000976562 c 2
 118.498046875 305.500976562 l 2
 118.498046875 314.500976562 118.998046875 333.000976562 119.998046875 361.000976562 c 0xe3
 120.998046875 389.000976562 121.498046875 412.833984375 121.498046875 432.500976562 c 0
 121.498046875 452.16796875 121.165039062 472.000976562 120.498046875 492.000976562 c 0
 119.831054688 512.000976562 117.998046875 541.500976562 114.998046875 580.500976562 c 0
 111.998046875 619.500976562 110.498046875 642.66796875 110.498046875 650.000976562 c 2
 110.498046875 656.000976562 l 1
 110.498046875 659.000976562 l 2xf1
 110.498046875 667.000976562 114.165039062 674.66796875 121.498046875 682.000976562 c 0
 128.165039062 690.66796875 137.83203125 695.000976562 150.499023438 695.000976562 c 0
 161.166015625 695.000976562 169.499023438 692.66796875 175.499023438 688.000976562 c 1
 176.83203125 681.333984375 177.830078125 681.000976562 178.497070312 687.000976562 c 1xe5
 232.497070312 684.333984375 279.999023438 677.166992188 320.999023438 665.5 c 0
 361.999023438 653.833007812 395.83203125 639.666015625 422.499023438 622.999023438 c 0
 450.499023438 606.33203125 474.33203125 587.33203125 493.999023438 565.999023438 c 0
 513.666015625 544.666015625 527.666015625 523.499023438 535.999023438 502.499023438 c 0
 544.33203125 481.499023438 548.499023438 460.33203125 548.499023438 438.999023438 c 0
 548.499023438 408.33203125 540.83203125 382.999023438 525.499023438 362.999023438 c 0
 518.166015625 353.666015625 508.499023438 345.166015625 496.499023438 337.499023438 c 0
 484.499023438 329.83203125 471.499023438 323.33203125 457.499023438 317.999023438 c 0
 444.166015625 312.666015625 428.829101562 307.833007812 411.49609375 303.5 c 0
 394.163085938 299.166992188 376.666992188 295.833984375 359 293.500976562 c 0
 341.333007812 291.16796875 321.5 289.000976562 299.5 287.000976562 c 0
 293.7109375 282.755859375 287.809570312 280.6328125 281.796875 280.6328125 c 0
 277.423828125 280.6328125 272.9921875 281.755859375 268.500976562 284.000976562 c 1
 276.301757812 273.201171875 284.372070312 267.801757812 292.711914062 267.801757812 c 0
 293.638671875 267.801757812 294.568359375 267.868164062 295.501953125 268.000976562 c 0
 356.168945312 234.000976562 410.16796875 194.333984375 457.500976562 149.000976562 c 0
 508.16796875 103.000976562 541.501953125 64.333984375 557.501953125 33.0009765625 c 0
 558.834960938 28.333984375 559.501953125 23.833984375 559.501953125 19.5009765625 c 0
 559.501953125 15.16796875 558.834960938 11.0009765625 557.501953125 7.0009765625 c 0
 554.168945312 -0.33203125 549.168945312 -6.33203125 542.501953125 -10.9990234375 c 0
 536.501953125 -15.666015625 530.501953125 -17.9990234375 524.501953125 -17.9990234375 c 0
 511.834960938 -17.9990234375 500.16796875 -11 489.500976562 3 c 0
EndSplineSet
EndChar

StartChar: S
Encoding: 83 83 52
Width: 670
GlyphClass: 2
Flags: HMW
HStem: -29.0049 67.0049 664.997 59.1678
VStem: 133.499 81 486.496 80.0039
LayerCount: 2
Fore
SplineSet
104.497070312 102 m 0
 106.497070312 110.666992188 111.830078125 117 120.497070312 121 c 0
 127.830078125 124.333007812 132.997070312 126.333007812 135.997070312 127 c 0
 138.997070312 127.666992188 141.497070312 128 143.497070312 128 c 2
 149.497070312 128 l 2
 153.497070312 128 157.6640625 126 161.997070312 122 c 0
 166.330078125 118 171.163085938 112 176.49609375 104 c 0
 189.829101562 84 207.49609375 68 229.49609375 56 c 0
 250.163085938 44 273.49609375 38 299.49609375 38 c 0
 314.829101562 38 330.99609375 40.3330078125 347.99609375 45 c 0
 364.99609375 49.6669921875 381.49609375 56.6669921875 397.49609375 66 c 0
 413.49609375 75.3330078125 427.829101562 86.666015625 440.49609375 99.9990234375 c 0
 453.829101562 113.33203125 464.829101562 128.999023438 473.49609375 146.999023438 c 0
 482.163085938 164.999023438 486.49609375 183.999023438 486.49609375 203.999023438 c 0
 486.49609375 214.666015625 485.829101562 224.499023438 484.49609375 233.499023438 c 0
 483.163085938 242.499023438 480.330078125 252.166015625 475.997070312 262.499023438 c 0
 471.6640625 272.83203125 466.1640625 282.33203125 459.497070312 290.999023438 c 0
 452.830078125 299.666015625 443.830078125 308.333007812 432.497070312 317 c 0
 421.1640625 325.666992188 408.331054688 333 393.998046875 339 c 0
 379.665039062 345 361.998046875 350.666992188 340.998046875 356 c 0
 319.998046875 361.333007812 296.831054688 365.666015625 271.498046875 368.999023438 c 0
 250.831054688 371.666015625 231.831054688 377.666015625 214.498046875 386.999023438 c 0
 195.831054688 396.33203125 180.831054688 407.83203125 169.498046875 421.499023438 c 0
 158.165039062 435.166015625 149.33203125 449.666015625 142.999023438 464.999023438 c 0
 136.666015625 480.33203125 133.499023438 495.33203125 133.499023438 509.999023438 c 0
 133.499023438 531.999023438 137.166015625 553.33203125 144.499023438 573.999023438 c 0
 151.83203125 594.666015625 163.165039062 614.166015625 178.498046875 632.499023438 c 0
 193.831054688 650.83203125 212.1640625 666.665039062 233.497070312 679.998046875 c 0
 253.497070312 693.331054688 277.6640625 703.998046875 305.997070312 711.998046875 c 0
 334.330078125 719.998046875 364.830078125 723.998046875 397.497070312 723.998046875 c 0
 400.165039062 724.109375 403.018554688 724.165039062 406.057617188 724.165039062 c 0
 421.2421875 724.165039062 441.055664062 722.776367188 465.497070312 719.999023438 c 0
 496.1640625 716.666015625 516.831054688 712.999023438 527.498046875 708.999023438 c 0
 538.165039062 704.999023438 545.498046875 698.999023438 549.498046875 690.999023438 c 0
 553.498046875 684.33203125 555.498046875 677.665039062 555.498046875 670.998046875 c 0
 555.498046875 662.331054688 553.498046875 655.998046875 549.498046875 651.998046875 c 0
 546.831054688 648.665039062 543.498046875 646.83203125 539.498046875 646.499023438 c 0
 535.498046875 646.166015625 531.831054688 645.999023438 528.498046875 645.999023438 c 0
 519.165039062 645.999023438 510.165039062 647.666015625 501.498046875 650.999023438 c 0
 489.498046875 654.33203125 479.831054688 656.665039062 472.498046875 657.998046875 c 0
 465.165039062 659.331054688 453.83203125 660.6640625 438.499023438 661.997070312 c 0
 423.83203125 663.997070312 407.499023438 664.997070312 389.499023438 664.997070312 c 0
 360.83203125 664.997070312 333.499023438 660.330078125 307.499023438 650.997070312 c 0
 280.83203125 640.997070312 258.83203125 625.997070312 241.499023438 605.997070312 c 0
 223.499023438 585.997070312 214.499023438 562.997070312 214.499023438 536.997070312 c 0
 215.166015625 506.997070312 227.166015625 481.997070312 250.499023438 461.997070312 c 0
 272.499023438 441.997070312 303.166015625 430.997070312 342.499023438 428.997070312 c 0
 376.499023438 426.997070312 406.166015625 421.330078125 431.499023438 411.997070312 c 0
 458.166015625 402.6640625 479.833007812 391.331054688 496.5 377.998046875 c 0
 513.166992188 364.665039062 527 348.998046875 538 330.998046875 c 0
 549 312.998046875 556.5 295.331054688 560.5 277.998046875 c 0
 564.5 260.665039062 566.5 241.998046875 566.5 221.998046875 c 0
 566.5 191.331054688 561.5 162.6640625 551.5 135.997070312 c 0
 541.5 109.330078125 527.666992188 86.1630859375 510 66.49609375 c 0
 492.333007812 46.8291015625 471.5 29.662109375 447.5 14.9951171875 c 0
 426.166992188 0.328125 402.5 -10.671875 376.5 -18.0048828125 c 0
 350.5 -25.337890625 323.833007812 -29.0048828125 296.5 -29.0048828125 c 0
 254.5 -29.0048828125 216.5 -20.0048828125 182.5 -2.0048828125 c 0
 148.5 15.9951171875 125.166992188 37.662109375 112.5 62.9951171875 c 0
 106.5 75.662109375 103.5 86.3291015625 103.5 94.99609375 c 0
 103.5 97.6630859375 103.830078125 100 104.497070312 102 c 0
EndSplineSet
EndChar

StartChar: T
Encoding: 84 84 53
Width: 670
GlyphClass: 2
Flags: HMW
HStem: 612 69<531 533 529 537.333> 640.499 54.499
VStem: 298.999 75 308.999 76.001
LayerCount: 2
Fore
SplineSet
141.999023438 694 m 0x60
 179.33203125 688 309 683.666992188 531 681 c 0
 543.666992188 681 552.666992188 678 558 672 c 0
 563.333007812 666 566.333007812 658.666992188 567 650 c 0
 567 639.333007812 563.666992188 630 557 622 c 0
 551.666992188 615.333007812 543.666992188 612 533 612 c 2
 529 612 l 2
 510.333007812 610.366210938 491.870117188 609.549804688 473.611328125 609.549804688 c 0
 439.703125 609.549804688 406.499023438 612.366210938 373.999023438 618 c 1xa0
 374.666015625 475.333007812 378.333007812 277.333007812 385 24 c 0
 384.333007812 12.6669921875 379.666015625 3.6669921875 370.999023438 -3 c 0
 362.33203125 -9.6669921875 352.999023438 -13 342.999023438 -13 c 1
 341.666015625 -19.6669921875 340.666015625 -19.6669921875 339.999023438 -13 c 1
 329.999023438 -13 321.999023438 -9.3330078125 315.999023438 -2 c 0
 311.33203125 3.3330078125 308.999023438 11 308.999023438 21 c 0x90
 308.999023438 23 309.166015625 26.6669921875 309.499023438 32 c 0
 309.83203125 37.3330078125 309.999023438 51.666015625 309.999023438 74.9990234375 c 0
 309.999023438 122.999023438 308.166015625 208.33203125 304.499023438 330.999023438 c 0
 300.83203125 453.666015625 298.999023438 540.999023438 298.999023438 592.999023438 c 2
 298.999023438 619.999023438 l 1
 210.33203125 624.666015625 159.33203125 627.999023438 145.999023438 629.999023438 c 0
 132.666015625 631.999023438 122.333007812 635.499023438 115 640.499023438 c 0
 107.666992188 645.499023438 104 651.999023438 104 659.999023438 c 1
 103.333007812 653.999023438 103 654.666015625 103 661.999023438 c 0
 103 671.33203125 106.333007812 679.665039062 113 686.998046875 c 0
 117.666992188 692.331054688 124.333984375 694.998046875 133.000976562 694.998046875 c 0
 135.66796875 694.998046875 138.666015625 694.666992188 141.999023438 694 c 0x60
EndSplineSet
EndChar

StartChar: U
Encoding: 85 85 54
Width: 670
GlyphClass: 2
Flags: HMW
HStem: -28.999 71 669.52 20G
VStem: 98.5379 73.9219 497.461 74.001
LayerCount: 2
Fore
SplineSet
567.461914062 250 m 0
 566.794921875 220.666992188 562.961914062 193.334960938 555.961914062 168.001953125 c 0
 548.961914062 142.668945312 540.461914062 120.668945312 530.461914062 102.001953125 c 0
 520.461914062 83.3349609375 508.62890625 66.501953125 494.961914062 51.501953125 c 0
 481.294921875 36.501953125 466.794921875 24.001953125 451.461914062 14.001953125 c 0
 437.461914062 4.001953125 422.794921875 -4.1650390625 407.461914062 -10.498046875 c 0
 392.12890625 -16.8310546875 377.12890625 -21.498046875 362.461914062 -24.498046875 c 0
 347.794921875 -27.498046875 332.627929688 -28.998046875 316.9609375 -28.998046875 c 0
 301.293945312 -28.998046875 284.793945312 -26.498046875 267.4609375 -21.498046875 c 0
 250.127929688 -16.498046875 232.127929688 -7.6650390625 213.4609375 5.001953125 c 0
 193.4609375 17.6689453125 175.793945312 33.501953125 160.4609375 52.501953125 c 0
 145.127929688 71.501953125 132.127929688 96.001953125 121.4609375 126.001953125 c 0
 110.793945312 156.001953125 104.793945312 190.334960938 103.4609375 229.001953125 c 0
 100.178710938 353.721679688 98.5380859375 453.825195312 98.5380859375 529.3125 c 0
 98.5380859375 576.490234375 99.1787109375 614.053710938 100.4609375 642.001953125 c 0
 100.4609375 657.334960938 104.627929688 669.16796875 112.9609375 677.500976562 c 0
 120.973632812 685.513671875 130.373046875 689.520507812 141.16015625 689.520507812 c 0
 141.590820312 689.520507812 142.024414062 689.513671875 142.459960938 689.500976562 c 0
 153.79296875 689.16796875 161.79296875 685.334960938 166.459960938 678.001953125 c 0
 170.459960938 671.334960938 172.459960938 661.334960938 172.459960938 648.001953125 c 0
 173.126953125 422.001953125 175.126953125 285.334960938 178.459960938 238.001953125 c 0
 179.79296875 215.334960938 182.125976562 196.334960938 185.458984375 181.001953125 c 0
 188.791992188 165.668945312 194.458984375 149.168945312 202.458984375 131.501953125 c 0
 210.458984375 113.834960938 219.791992188 98.66796875 230.458984375 86.0009765625 c 0
 241.125976562 73.333984375 254.625976562 62.833984375 270.958984375 54.5009765625 c 0
 287.291992188 46.16796875 305.791992188 42.0009765625 326.458984375 42.0009765625 c 0
 373.125976562 42.66796875 410.79296875 59.66796875 439.459960938 93.0009765625 c 0
 470.126953125 126.333984375 487.793945312 176.666992188 492.4609375 244 c 0
 494.4609375 272.666992188 495.793945312 305.166992188 496.4609375 341.5 c 0
 497.127929688 377.833007812 497.4609375 405 497.4609375 423 c 0
 497.4609375 441 497.293945312 469.833007812 496.9609375 509.5 c 0
 496.627929688 549.166992188 496.4609375 590.666992188 496.4609375 634 c 0
 496.4609375 661.333007812 500.127929688 678 507.4609375 684 c 0
 510.793945312 686.666992188 514.293945312 688.5 517.9609375 689.5 c 0
 521.627929688 690.5 526.4609375 691 532.4609375 691 c 0
 541.793945312 691 549.793945312 687.166992188 556.4609375 679.5 c 0
 563.127929688 671.833007812 566.794921875 660.333007812 567.461914062 645 c 0
 570.12890625 593 571.461914062 534 571.461914062 468 c 0
 571.461914062 402 570.12890625 329.333007812 567.461914062 250 c 0
EndSplineSet
EndChar

